<?xml version="1.0" encoding="utf-8"?>
<!-- (c) ammap.com | SVG map of Afghanistan - Low -->
<svg xmlns="http://www.w3.org/2000/svg" xmlns:amcharts="http://amcharts.com/ammap" xmlns:xlink="http://www.w3.org/1999/xlink" version="1.1">
	<defs>
		<style type="text/css">
			.land
			{
				fill: #CCCCCC;
				fill-opacity: 1;
				stroke:white;
				stroke-opacity: 1;
				stroke-width:0.5;
			}
		</style>

	<amcharts:ammap projection="mercator" leftLongitude="23.280029" topLatitude="35.619175" rightLongitude="24.246826" bottomLatitude="37.523716"></amcharts:ammap>

		<!-- All areas are listed in the line below. You can use this list in your script. -->		<!--{id:"AF-PIA"},{id:"AF-WAR"},{id:"AF-SAM"},{id:"AF-PAR"},{id:"AF-LOG"},{id:"AF-LAG"},{id:"AF-PAN"},{id:"AF-KAP"},{id:"AF-KAB"},{id:"AF-BGL"},{id:"AF-TAK"},{id:"AF-NAN"},{id:"AF-KDZ"},{id:"AF-KNR"},{id:"AF-NUR"},{id:"AF-BDS"},{id:"AF-PKA"},,{id:"AF-KHO"},{id:"AF-GHA"},{id:"AF-ZAB"},{id:"AF-KAN"},{id:"AF-DAY"},{id:"AF-URU"},{id:"AF-NIM"},{id:"AF-HEL"},{id:"AF-FRA"},{id:"AF-SAR"},{id:"AF-GHO"},{id:"AF-JOW"},{id:"AF-FYB"},{id:"AF-BAL"},{id:"AF-BAM"},{id:"AF-HER"},{id:"AF-BDG"}-->


	</defs>
  <g>
			    <path d="M -1227.164656600016 -215907.56156025332 L -1227.164656600016 -215907.56156025332 L -1343.5414672854306 -215763.8158351321 L -1394.833949879759 -215711.0064165143 L -1473.9198474016225 -215794.96644032473 L -1690.3749229005393 -216686.24186068538 L -1264.6553068456246 -216809.6186964751 L -862.0552580045571 -216414.86730756128 L -930.6249981713644 -216152.0471403993 L -1227.164656600016 -215907.56156025332 "  ID_2="4" _id="44" NAME_1="Attica" ID_0="89" CCN_3="0" CCA_3="0" NAME_0="Greece" NAME_2="Attica" ISO="GRC" NL_title="Αχαρνών" id="Acharnes" title="Acharnes" ENGTYPE_3="Municipality" ID_1="3"/>
    <path d="M -2489.263328799485 -213450.28678008443 L -2489.263328799485 -213450.28678008443 L -2710.352304594832 -213231.55110485796 L -3044.8819559743765 -213825.4893508079 L -2279.848985432764 -213865.9665659387 L -2489.263328799485 -213450.28678008443 "  ID_2="4" _id="45" NAME_1="Attica" ID_0="89" CCN_3="0" CCA_3="0" NAME_0="Greece" NAME_2="Attica" ISO="GRC" NL_title="Αίγινας" id="Aegina" title="Aegina" ENGTYPE_3="Municipality" ID_1="3"/>
    <path d="M -824.0253176382383 -215451.15186669579 L -824.0253176382383 -215451.15186669579 L -917.362455942472 -215281.3881600365 L -1030.6733024226355 -215440.04875979244 L -846.196133713134 -215539.3012631 L -824.0253176382383 -215451.15186669579 "  ID_2="4" _id="46" NAME_1="Attica" ID_0="89" CCN_3="0" CCA_3="0" NAME_0="Greece" NAME_2="Attica" ISO="GRC" NL_title="Αγίας Παρασκευής" id="Agia Paraskevi" title="Agia Paraskevi" ENGTYPE_3="Municipality" ID_1="3"/>
    <path d="M -1758.1057673233759 -215270.99845304902 L -1758.1057673233759 -215270.99845304902 L -1770.139926500075 -215260.9637267609 L -1873.2142475402225 -215369.48150161523 L -1747.5097151368357 -215359.64750826475 L -1758.1057673233759 -215270.99845304902 "  ID_2="4" _id="47" NAME_1="Attica" ID_0="89" CCN_3="0" CCA_3="0" NAME_0="Greece" NAME_2="Attica" ISO="GRC" NL_title="Αγίας Βαρβάρας" id="Agia Varvara" title="Agia Varvara" ENGTYPE_3="Municipality" ID_1="3"/>
    <path d="M -1523.5545122179783 -215482.81485576366 L -1523.5545122179783 -215482.81485576366 L -1663.879799005319 -215806.50890539103 L -1473.9198474016225 -215794.96644032473 L -1394.833949879759 -215711.0064165143 L -1477.1755618339378 -215485.3753635528 L -1483.6670169910137 -215461.03840772866 L -1523.5545122179783 -215482.81485576366 "  ID_2="4" _id="48" NAME_1="Attica" ID_0="89" CCN_3="0" CCA_3="0" NAME_0="Greece" NAME_2="Attica" ISO="GRC" NL_title="Αγίων Αναργύρων - Καματερού" title="Agioi Anargyroi-Kamatero" ENGTYPE_3="Municipality" ID_1="3"/>
    <path d="M -1479.132985235171 -214861.38962717145 L -1479.132985235171 -214861.38962717145 L -1497.8383629419002 -214922.94450785193 L -1431.3658621329216 -215006.1356928764 L -1359.6402760752524 -214986.9637421135 L -1347.4063798177117 -214903.39600403912 L -1479.132985235171 -214861.38962717145 "  ID_2="4" _id="49" NAME_1="Attica" ID_0="89" CCN_3="0" CCA_3="0" NAME_0="Greece" NAME_2="Attica" ISO="GRC" NL_title="Αγίου Δημητρίου" id="Agios Dimitrios" title="Agios Dimitrios" ENGTYPE_3="Municipality" ID_1="3"/>
    <path d="M -1646.7323705368576 -215234.2814821223 L -1646.7323705368576 -215234.2814821223 L -1655.490841571272 -215221.5616857674 L -1758.1057673233759 -215270.99845304902 L -1747.5097151368357 -215359.64750826475 L -1730.9115636429117 -215439.79526715507 L -1616.5920449001835 -215343.8324299889 L -1646.7323705368576 -215234.2814821223 "  ID_2="4" _id="50" NAME_1="Attica" ID_0="89" CCN_3="0" CCA_3="0" NAME_0="Greece" NAME_2="Attica" ISO="GRC" NL_title="Αιγάλεω" id="Aigaleo" title="Aigaleo" ENGTYPE_3="Municipality" ID_1="3"/>
    <path d="M -1345.1793113555154 -214842.98290847574 L -1345.1793113555154 -214842.98290847574 L -1481.380027404905 -214722.81193962324 L -1577.3836557506083 -214827.36179480286 L -1479.132985235171 -214861.38962717145 L -1347.4063798177117 -214903.39600403912 L -1345.1793113555154 -214842.98290847574 "  ID_2="4" _id="51" NAME_1="Attica" ID_0="89" CCN_3="0" CCA_3="0" NAME_0="Greece" NAME_2="Attica" ISO="GRC" NL_title="Αλίμου" id="Alimos" title="Alimos" ENGTYPE_3="Municipality" ID_1="3"/>
    <path d="M -3420.098050907017 -213499.9487677173 L -3420.098050907017 -213499.9487677173 L -3276.1275623773067 -213365.71896258718 L -3521.934002039978 -213240.73674865792 L -3420.098050907017 -213499.9487677173 "  ID_2="4" _id="52" NAME_1="Attica" ID_0="89" CCN_3="0" CCA_3="0" NAME_0="Greece" NAME_2="Attica" ISO="GRC" NL_title="Αγκιστρίου" id="Angistri" title="Angistri" ENGTYPE_3="Municipality" ID_1="3"/>
    <path d="M -1810.38694847358 -215670.37597994934 L -1810.38694847358 -215670.37597994934 L -1809.8476583528534 -215622.57234881626 L -2120.4388204833335 -215465.65219554002 L -2321.7438383304643 -215659.52148099945 L -2433.5366829895843 -216281.12867145595 L -1937.3897719081156 -216536.65077103514 L -2042.6112665765438 -216130.57073175686 L -1810.38694847358 -215670.37597994934 "  ID_2="4" _id="53" NAME_1="Attica" ID_0="89" CCN_3="0" CCA_3="0" NAME_0="Greece" NAME_2="Attica" ISO="GRC" NL_title="Ασπροπύργου" id="Aspropyrgos" title="Aspropyrgos" ENGTYPE_3="Municipality" ID_1="3"/>
    <path d="M -1550.1495046537862 -215138.33375719405 L -1550.1495046537862 -215138.33375719405 L -1646.7323705368576 -215234.2814821223 L -1616.5920449001835 -215343.8324299889 L -1483.6670169910137 -215461.03840772866 L -1477.1755618339378 -215485.3753635528 L -1351.1414632456585 -215602.71683548918 L -1298.8303215340725 -215557.6328651277 L -1250.2143158349743 -215413.71157980844 L -1118.407815583633 -215386.31127023385 L -1118.9071582880183 -215250.97988589646 L -1232.6374526398508 -215177.3743743319 L -1286.6064121303089 -215149.81000623378 L -1331.4973212549542 -215097.39640189096 L -1452.5579665081168 -215046.22953877682 L -1503.8404622483515 -215083.18566052185 L -1550.1495046537862 -215138.33375719405 "  ID_2="4" _id="54" NAME_1="Attica" ID_0="89" CCN_3="0" CCA_3="0" NAME_0="Greece" NAME_2="Attica" ISO="GRC" NL_title="Αθηναίων" id="Athens" title="Athens" ENGTYPE_3="Municipality" ID_1="3"/>
    <path d="M -1974.0015789939614 -215340.41096615524 L -1974.0015789939614 -215340.41096615524 L -2044.7684270595012 -215343.57898739938 L -2068.0477839387477 -215330.55221579864 L -2252.205373317151 -215335.5956133034 L -2120.4388204833335 -215465.65219554002 L -1809.8476583528534 -215622.57234881626 L -1739.7798900725736 -215606.57122685335 L -1730.9115636429117 -215439.79526715507 L -1747.5097151368357 -215359.64750826475 L -1873.2142475402225 -215369.48150161523 L -1974.0015789939614 -215340.41096615524 "  ID_2="4" _id="55" NAME_1="Attica" ID_0="89" CCN_3="0" CCA_3="0" NAME_0="Greece" NAME_2="Attica" ISO="GRC" NL_title="Χαϊδαρίου" id="Chaidari" title="Chaidari" ENGTYPE_3="Municipality" ID_1="3"/>
    <path d="M -846.196133713134 -215539.3012631 L -846.196133713134 -215539.3012631 L -1030.6733024226355 -215440.04875979244 L -1094.1297732964983 -215401.74751785523 L -1110.2385689400974 -215536.00519760716 L -939.3634954981911 -215607.00231199455 L -798.9083796068164 -215663.858179354 L -846.196133713134 -215539.3012631 "  ID_2="4" _id="56" NAME_1="Attica" ID_0="89" CCN_3="0" CCA_3="0" NAME_0="Greece" NAME_2="Attica" ISO="GRC" NL_title="Χαλανδρίου" id="Chalandri" title="Chalandri" ENGTYPE_3="Municipality" ID_1="3"/>
    <path d="M -5563.96603108002 -203330.89845501806 L -5563.96603108002 -203330.89845501806 L -5803.950134809494 -204346.1917803071 L -5620.6813754446475 -204736.22753923488 L -4705.84559358605 -203905.95217714302 L -4954.5582077885565 -203685.96320696836 L -4966.192892801141 -203224.65246427598 L -5563.96603108002 -203330.89845501806 "  ID_2="4" _id="57" NAME_1="Attica" ID_0="89" CCN_3="0" CCA_3="0" NAME_0="Greece" NAME_2="Attica" ISO="GRC" NL_title="Κυθήρων" id="Cythera" title="Cythera" ENGTYPE_3="Municipality" ID_1="3"/>
    <path d="M -1277.7680462629114 -215042.7595052576 L -1277.7680462629114 -215042.7595052576 L -1359.6402760752524 -214986.9637421135 L -1431.3658621329216 -215006.1356928764 L -1452.5579665081168 -215046.22953877682 L -1331.4973212549542 -215097.39640189096 L -1277.7680462629114 -215042.7595052576 "  ID_2="4" _id="58" NAME_1="Attica" ID_0="89" CCN_3="0" CCA_3="0" NAME_0="Greece" NAME_2="Attica" ISO="GRC" NL_title="Δάφνης - Υμηττού" title="Dafni-Ymittos" ENGTYPE_3="Municipality" ID_1="3"/>
    <path d="M -499.6423100118996 -215843.09144981226 L -499.6423100118996 -215843.09144981226 L -613.7121574033011 -215906.97796721561 L -930.6249981713644 -216152.0471403993 L -862.0552580045571 -216414.86730756128 L -482.8244477280308 -216448.1172076048 L -499.6423100118996 -215843.09144981226 "  ID_2="4" _id="59" NAME_1="Attica" ID_0="89" CCN_3="0" CCA_3="0" NAME_0="Greece" NAME_2="Attica" ISO="GRC" NL_title="Διονύσου" id="Dionysos" title="Dionysos" ENGTYPE_3="Municipality" ID_1="3"/>
    <path d="M -2709.2337769370033 -215568.9922123609 L -2709.2337769370033 -215568.9922123609 L -2743.518647020432 -215622.01445616028 L -2543.951341783973 -216282.52529566735 L -2433.5366829895843 -216281.12867145595 L -2321.7438383304643 -215659.52148099945 L -2709.2337769370033 -215568.9922123609 "  ID_2="4" _id="60" NAME_1="Attica" ID_0="89" CCN_3="0" CCA_3="0" NAME_0="Greece" NAME_2="Attica" ISO="GRC" NL_title="Ελευσίνας" id="Elefsina" title="Elefsina" ENGTYPE_3="Municipality" ID_1="3"/>
    <path d="M -1042.7573958685543 -214793.05786154073 L -1042.7573958685543 -214793.05786154073 L -1404.2415664304642 -214554.566573384 L -1481.380027404905 -214722.81193962324 L -1345.1793113555154 -214842.98290847574 L -1023.2730435435656 -214830.42521529758 L -1042.7573958685543 -214793.05786154073 "  ID_2="4" _id="61" NAME_1="Attica" ID_0="89" CCN_3="0" CCA_3="0" NAME_0="Greece" NAME_2="Attica" ISO="GRC" NL_title="Ελληνικού - Αργυρούπολης" title="Elliniko-Argyroupoli" ENGTYPE_3="Municipality" ID_1="3"/>
    <path d="M -1351.1414632456585 -215602.71683548918 L -1351.1414632456585 -215602.71683548918 L -1477.1755618339378 -215485.3753635528 L -1394.833949879759 -215711.0064165143 L -1343.5414672854306 -215763.8158351321 L -1313.1015360255294 -215715.7747550157 L -1351.1414632456585 -215602.71683548918 "  ID_2="4" _id="62" NAME_1="Attica" ID_0="89" CCN_3="0" CCA_3="0" NAME_0="Greece" NAME_2="Attica" ISO="GRC" NL_title="Φιλαδελφείας - Χαλκηδόνος" title="Filadelfeia-Chalkidona" ENGTYPE_3="Municipality" ID_1="3"/>
    <path d="M -1094.1297732964983 -215401.74751785523 L -1094.1297732964983 -215401.74751785523 L -1118.407815583633 -215386.31127023385 L -1250.2143158349743 -215413.71157980844 L -1203.9951551163497 -215603.88329281413 L -1153.5915025355282 -215570.28536913503 L -1110.2385689400974 -215536.00519760716 L -1094.1297732964983 -215401.74751785523 "  ID_2="4" _id="63" NAME_1="Attica" ID_0="89" CCN_3="0" CCA_3="0" NAME_0="Greece" NAME_2="Attica" ISO="GRC" NL_title="Φιλοθέης - Ψυχικού" title="Filothei-Psychiko" ENGTYPE_3="Municipality" ID_1="3"/>
    <path d="M -1663.879799005319 -215806.50890539103 L -1663.879799005319 -215806.50890539103 L -1688.477420623552 -215782.9930076272 L -1810.38694847358 -215670.37597994934 L -2042.6112665765438 -216130.57073175686 L -1937.3897719081156 -216536.65077103514 L -1924.4068615939802 -216785.21534936538 L -1690.3749229005393 -216686.24186068538 L -1473.9198474016225 -215794.96644032473 L -1663.879799005319 -215806.50890539103 "  ID_2="4" _id="64" NAME_1="Attica" ID_0="89" CCN_3="0" CCA_3="0" NAME_0="Greece" NAME_2="Attica" ISO="GRC" NL_title="Φυλής" id="Fyli" title="Fyli" ENGTYPE_3="Municipality" ID_1="3"/>
    <path d="M -1250.2143158349743 -215413.71157980844 L -1250.2143158349743 -215413.71157980844 L -1298.8303215340725 -215557.6328651277 L -1203.9951551163497 -215603.88329281413 L -1250.2143158349743 -215413.71157980844 "  ID_2="4" _id="65" NAME_1="Attica" ID_0="89" CCN_3="0" CCA_3="0" NAME_0="Greece" NAME_2="Attica" ISO="GRC" NL_title="Γαλατσίου" id="Galatsi" title="Galatsi" ENGTYPE_3="Municipality" ID_1="3"/>
    <path d="M -1085.8007369875465 -214536.24732073658 L -1085.8007369875465 -214536.24732073658 L -1350.4623571679697 -214408.76535080295 L -1404.2415664304642 -214554.566573384 L -1042.7573958685543 -214793.05786154073 L -1085.8007369875465 -214536.24732073658 "  ID_2="4" _id="66" NAME_1="Attica" ID_0="89" CCN_3="0" CCA_3="0" NAME_0="Greece" NAME_2="Attica" ISO="GRC" NL_title="Γλυφάδας" id="Glyfada" title="Glyfada" ENGTYPE_3="Municipality" ID_1="3"/>
    <path d="M -3315.3858857958517 -210757.09968502063 L -3315.3858857958517 -210757.09968502063 L -2525.635451386932 -211230.87646327793 L -2596.901642157756 -210886.92867384266 L -3315.3858857958517 -210757.09968502063 "  ID_2="4" _id="67" NAME_1="Attica" ID_0="89" CCN_3="0" CCA_3="0" NAME_0="Greece" NAME_2="Attica" ISO="GRC" NL_title="Ύδρας" id="Hydra" title="Hydra" ENGTYPE_3="Municipality" ID_1="3"/>
    <path d="M -1523.5545122179783 -215482.81485576366 L -1523.5545122179783 -215482.81485576366 L -1658.4569372359358 -215584.5863906557 L -1688.477420623552 -215782.9930076272 L -1663.879799005319 -215806.50890539103 L -1523.5545122179783 -215482.81485576366 "  ID_2="4" _id="68" NAME_1="Attica" ID_0="89" CCN_3="0" CCA_3="0" NAME_0="Greece" NAME_2="Attica" ISO="GRC" NL_title="Ιλίου" id="Ilio" title="Ilio" ENGTYPE_3="Municipality" ID_1="3"/>
    <path d="M -1345.1793113555154 -214842.98290847574 L -1345.1793113555154 -214842.98290847574 L -1347.4063798177117 -214903.39600403912 L -1359.6402760752524 -214986.9637421135 L -1277.7680462629114 -215042.7595052576 L -1053.9027250308309 -214953.35766175273 L -1023.2730435435656 -214830.42521529758 L -1345.1793113555154 -214842.98290847574 "  ID_2="4" _id="69" NAME_1="Attica" ID_0="89" CCN_3="0" CCA_3="0" NAME_0="Greece" NAME_2="Attica" ISO="GRC" NL_title="Ηλιουπόλεως" id="Ilioupoli" title="Ilioupoli" ENGTYPE_3="Municipality" ID_1="3"/>
    <path d="M -1181.1851803798068 -215653.56175388434 L -1181.1851803798068 -215653.56175388434 L -1313.1015360255294 -215715.7747550157 L -1191.2319555918427 -215812.8256670249 L -1136.843548229699 -215713.82175966282 L -1181.1851803798068 -215653.56175388434 "  ID_2="4" _id="70" NAME_1="Attica" ID_0="89" CCN_3="0" CCA_3="0" NAME_0="Greece" NAME_2="Attica" ISO="GRC" NL_title="Ηρακλείου" id="Irakleio" title="Irakleio" ENGTYPE_3="Municipality" ID_1="3"/>
    <path d="M -981.8475727876696 -215021.68654708465 L -981.8475727876696 -215021.68654708465 L -992.1140587893507 -215006.21167304317 L -1286.6064121303089 -215149.81000623378 L -1232.6374526398508 -215177.3743743319 L -953.8544207795929 -215162.24924782847 L -981.8475727876696 -215021.68654708465 "  ID_2="4" _id="71" NAME_1="Attica" ID_0="89" CCN_3="0" CCA_3="0" NAME_0="Greece" NAME_2="Attica" ISO="GRC" NL_title="Καισαριανής" id="Kaisariani" title="Kaisariani" ENGTYPE_3="Municipality" ID_1="3"/>
    <path d="M -1637.2748197160336 -214967.48864792704 L -1637.2748197160336 -214967.48864792704 L -1668.513699301749 -215004.33749903404 L -1550.1495046537862 -215138.33375719405 L -1503.8404622483515 -215083.18566052185 L -1580.4995542263111 -215002.61529142575 L -1637.2748197160336 -214967.48864792704 "  ID_2="4" _id="72" NAME_1="Attica" ID_0="89" CCN_3="0" CCA_3="0" NAME_0="Greece" NAME_2="Attica" ISO="GRC" NL_title="Καλλιθέας" id="Kallithea" title="Kallithea" ENGTYPE_3="Municipality" ID_1="3"/>
    <path d="M -1926.5939826386025 -215004.33749903404 L -1926.5939826386025 -215004.33749903404 L -2074.6890419065467 -215118.70062397906 L -2068.0477839387477 -215330.55221579864 L -2044.7684270595012 -215343.57898739938 L -1932.3264368853065 -215140.38578189787 L -1926.5939826386025 -215004.33749903404 "  ID_2="4" _id="73" NAME_1="Attica" ID_0="89" CCN_3="0" CCA_3="0" NAME_0="Greece" NAME_2="Attica" ISO="GRC" NL_title="Κερατσινίου - Δραπετσώνας" title="Keratsini-Drapetsona" ENGTYPE_3="Municipality" ID_1="3"/>
    <path d="M -1042.6874878905478 -215831.92866201221 L -1042.6874878905478 -215831.92866201221 L -1136.1344815894624 -215897.89430497645 L -1227.164656600016 -215907.56156025332 L -930.6249981713644 -216152.0471403993 L -613.7121574033011 -215906.97796721561 L -903.9700846107446 -215783.70328778747 L -1042.6874878905478 -215831.92866201221 "  ID_2="4" _id="74" NAME_1="Attica" ID_0="89" CCN_3="0" CCA_3="0" NAME_0="Greece" NAME_2="Attica" ISO="GRC" NL_title="Κηφισιάς" id="Kifisia" title="Kifisia" ENGTYPE_3="Municipality" ID_1="3"/>
    <path d="M -1770.139926500075 -215260.9637267609 L -1770.139926500075 -215260.9637267609 L -1974.0015789939614 -215340.41096615524 L -1873.2142475402225 -215369.48150161523 L -1770.139926500075 -215260.9637267609 "  ID_2="4" _id="75" NAME_1="Attica" ID_0="89" CCN_3="0" CCA_3="0" NAME_0="Greece" NAME_2="Attica" ISO="GRC" NL_title="Κορυδαλλού" id="Korydallos" title="Korydallos" ENGTYPE_3="Municipality" ID_1="3"/>
    <path d="M -365.22924084421703 -214803.310814155 L -365.22924084421703 -214803.310814155 L -573.3053457640802 -214500.54699348882 L -703.7636207129716 -214079.42424656308 L -921.0376182465063 -214143.83871001992 L -1085.8007369875465 -214536.24732073658 L -1042.7573958685543 -214793.05786154073 L -1023.2730435435656 -214830.42521529758 L -1053.9027250308309 -214953.35766175273 L -992.1140587893507 -215006.21167304317 L -981.8475727876696 -215021.68654708465 L -365.22924084421703 -214803.310814155 "  ID_2="4" _id="76" NAME_1="Attica" ID_0="89" CCN_3="0" CCA_3="0" NAME_0="Greece" NAME_2="Attica" ISO="GRC" NL_title="Κρωπίας" id="Kropia" title="Kropia" ENGTYPE_3="Municipality" ID_1="3"/>
    <path d="M 220.8992255679998 -214374.71843958445 L 220.8992255679998 -214374.71843958445 L 288.2006352662392 -214416.37943468697 L 448.69936731123386 -214051.79536560015 L 383.22555191104277 -213294.06230180393 L -192.16704635678929 -213176.44085128966 L -227.94994455335726 -213758.287378362 L 220.8992255679998 -214374.71843958445 "  ID_2="4" _id="77" NAME_1="Attica" ID_0="89" CCN_3="0" CCA_3="0" NAME_0="Greece" NAME_2="Attica" ISO="GRC" NL_title="Λαυρεωτικής" id="Lavreotiki" title="Lavreotiki" ENGTYPE_3="Municipality" ID_1="3"/>
    <path d="M -1136.843548229699 -215713.82175966282 L -1136.843548229699 -215713.82175966282 L -1191.2319555918427 -215812.8256670249 L -1136.1344815894624 -215897.89430497645 L -1042.6874878905478 -215831.92866201221 L -1136.843548229699 -215713.82175966282 "  ID_2="4" _id="78" NAME_1="Attica" ID_0="89" CCN_3="0" CCA_3="0" NAME_0="Greece" NAME_2="Attica" ISO="GRC" NL_title="Λυκόβρυσης - Πεύκης" title="Lykovrysi-Pefki" ENGTYPE_3="Municipality" ID_1="3"/>
    <path d="M -4310.246329459938 -215950.19111913463 L -4310.246329459938 -215950.19111913463 L -4586.592568923381 -216493.53786274145 L -3754.707597118645 -216601.28919918326 L -3574.7544733100435 -217099.93479138377 L -3171.864805700425 -217152.43758516395 L -2543.951341783973 -216282.52529566735 L -2743.518647020432 -215622.01445616028 L -3302.8523839159498 -215828.37691960039 L -3482.4859283931864 -216101.6070072882 L -3929.1579643239984 -215855.9036014662 L -4310.246329459938 -215950.19111913463 "  ID_2="4" _id="79" NAME_1="Attica" ID_0="89" CCN_3="0" CCA_3="0" NAME_0="Greece" NAME_2="Attica" ISO="GRC" NL_title="Μάνδρας - Ειδυλλίας" title="Mandra-Eidyllia" ENGTYPE_3="Municipality" ID_1="3"/>
    <path d="M -499.6423100118996 -215843.09144981226 L -499.6423100118996 -215843.09144981226 L -482.8244477280308 -216448.1172076048 L -336.7267592776446 -217318.81032933228 L 258.16017817015256 -216779.87728085494 L 291.5961656555166 -216332.12075448144 L -83.61992927712336 -216145.42133864269 L 0.7290403484072616 -215625.5900519881 L -192.51658625046852 -215656.57964913503 L -499.6423100118996 -215843.09144981226 "  ID_2="4" _id="80" NAME_1="Attica" ID_0="89" CCN_3="0" CCA_3="0" NAME_0="Greece" NAME_2="Attica" ISO="GRC" NL_title="Μαραθώνος" id="Marathon" title="Marathon" ENGTYPE_3="Municipality" ID_1="3"/>
    <path d="M 220.8992255679998 -214374.71843958445 L 220.8992255679998 -214374.71843958445 L -573.3053457640802 -214500.54699348882 L -365.22924084421703 -214803.310814155 L -300.53440006438393 -214888.5578955988 L 36.741636189613345 -214917.70279852842 L 288.2006352662392 -214416.37943468697 L 220.8992255679998 -214374.71843958445 "  ID_2="4" _id="81" NAME_1="Attica" ID_0="89" CCN_3="0" CCA_3="0" NAME_0="Greece" NAME_2="Attica" ISO="GRC" NL_title="Μαρκοπούλου Μεσογαίας" id="Markopoulo Mesogaias" title="Markopoulo Mesogaias" ENGTYPE_3="Municipality" ID_1="3"/>
    <path d="M -1153.5915025355282 -215570.28536913503 L -1153.5915025355282 -215570.28536913503 L -1181.1851803798068 -215653.56175388434 L -1136.843548229699 -215713.82175966282 L -1042.6874878905478 -215831.92866201221 L -903.9700846107446 -215783.70328778747 L -899.845513872477 -215663.14807405503 L -939.3634954981911 -215607.00231199455 L -1110.2385689400974 -215536.00519760716 L -1153.5915025355282 -215570.28536913503 "  ID_2="4" _id="82" NAME_1="Attica" ID_0="89" CCN_3="0" CCA_3="0" NAME_0="Greece" NAME_2="Attica" ISO="GRC" NL_title="Αμαρουσίου" id="Marousi" title="Marousi" ENGTYPE_3="Municipality" ID_1="3"/>
    <path d="M -4305.382731519187 -215068.92467317375 L -4305.382731519187 -215068.92467317375 L -4643.038268228212 -215276.167938115 L -4637.865077811038 -215794.30687916192 L -4310.246329459938 -215950.19111913463 L -3929.1579643239984 -215855.9036014662 L -3482.4859283931864 -216101.6070072882 L -3302.8523839159498 -215828.37691960039 L -2743.518647020432 -215622.01445616028 L -2709.2337769370033 -215568.9922123609 L -3120.502415127174 -215196.17376169044 L -3968.456235160067 -215236.76466833326 L -4305.382731519187 -215068.92467317375 "  ID_2="4" _id="83" NAME_1="Attica" ID_0="89" CCN_3="0" CCA_3="0" NAME_0="Greece" NAME_2="Attica" ISO="GRC" NL_title="Μεγαρέων" id="Megara" title="Megara" ENGTYPE_3="Municipality" ID_1="3"/>
    <path d="M -1191.2319555918427 -215812.8256670249 L -1191.2319555918427 -215812.8256670249 L -1313.1015360255294 -215715.7747550157 L -1343.5414672854306 -215763.8158351321 L -1227.164656600016 -215907.56156025332 L -1136.1344815894624 -215897.89430497645 L -1191.2319555918427 -215812.8256670249 "  ID_2="4" _id="84" NAME_1="Attica" ID_0="89" CCN_3="0" CCA_3="0" NAME_0="Greece" NAME_2="Attica" ISO="GRC" NL_title="Μεταμορφώσεως" id="Metamorfosi" title="Metamorfosi" ENGTYPE_3="Municipality" ID_1="3"/>
    <path d="M -1550.1495046537862 -215138.33375719405 L -1550.1495046537862 -215138.33375719405 L -1668.513699301749 -215004.33749903404 L -1722.7922512695447 -215000.234602683 L -1716.4206383618098 -215078.82879600182 L -1655.490841571272 -215221.5616857674 L -1646.7323705368576 -215234.2814821223 L -1550.1495046537862 -215138.33375719405 "  ID_2="4" _id="85" NAME_1="Attica" ID_0="89" CCN_3="0" CCA_3="0" NAME_0="Greece" NAME_2="Attica" ISO="GRC" NL_title="Μοσχάτου - Ταύρου" title="Moschato-Tavros" ENGTYPE_3="Municipality" ID_1="3"/>
    <path d="M -1153.5915025355282 -215570.28536913503 L -1153.5915025355282 -215570.28536913503 L -1203.9951551163497 -215603.88329281413 L -1298.8303215340725 -215557.6328651277 L -1351.1414632456585 -215602.71683548918 L -1313.1015360255294 -215715.7747550157 L -1181.1851803798068 -215653.56175388434 L -1153.5915025355282 -215570.28536913503 "  ID_2="4" _id="86" NAME_1="Attica" ID_0="89" CCN_3="0" CCA_3="0" NAME_0="Greece" NAME_2="Attica" ISO="GRC" NL_title="Νέας Ιωνίας" id="Nea Ionia" title="Nea Ionia" ENGTYPE_3="Municipality" ID_1="3"/>
    <path d="M -1431.3658621329216 -215006.1356928764 L -1431.3658621329216 -215006.1356928764 L -1497.8383629419002 -214922.94450785193 L -1580.4995542263111 -215002.61529142575 L -1503.8404622483515 -215083.18566052185 L -1452.5579665081168 -215046.22953877682 L -1431.3658621329216 -215006.1356928764 "  ID_2="4" _id="87" NAME_1="Attica" ID_0="89" CCN_3="0" CCA_3="0" NAME_0="Greece" NAME_2="Attica" ISO="GRC" NL_title="Νέας Σμύρνης" id="Nea Smyrni" title="Nea Smyrni" ENGTYPE_3="Municipality" ID_1="3"/>
    <path d="M -1932.3264368853065 -215140.38578189787 L -1932.3264368853065 -215140.38578189787 L -2044.7684270595012 -215343.57898739938 L -1974.0015789939614 -215340.41096615524 L -1770.139926500075 -215260.9637267609 L -1758.1057673233759 -215270.99845304902 L -1655.490841571272 -215221.5616857674 L -1716.4206383618098 -215078.82879600182 L -1932.3264368853065 -215140.38578189787 "  ID_2="4" _id="88" NAME_1="Attica" ID_0="89" CCN_3="0" CCA_3="0" NAME_0="Greece" NAME_2="Attica" ISO="GRC" NL_title="Νίκαιας - Αγίου Ιωάννη Ρέντη" title="Nikaia-Agios Ioannis Rentis" ENGTYPE_3="Municipality" ID_1="3"/>
    <path d="M -336.7267592776446 -217318.81032933228 L -336.7267592776446 -217318.81032933228 L -482.8244477280308 -216448.1172076048 L -862.0552580045571 -216414.86730756128 L -1264.6553068456246 -216809.6186964751 L -1690.3749229005393 -216686.24186068538 L -1924.4068615939802 -216785.21534936538 L -1920.5719096242635 -217190.19020356698 L -1632.8007090840867 -217663.61977556182 L -1171.5478661847967 -217628.37658764963 L -336.7267592776446 -217318.81032933228 "  ID_2="4" _id="89" NAME_1="Attica" ID_0="89" CCN_3="0" CCA_3="0" NAME_0="Greece" NAME_2="Attica" ISO="GRC" NL_title="Ωρωπού" id="Oropos" title="Oropos" ENGTYPE_3="Municipality" ID_1="3"/>
    <path d="M -547.7989204238531 -215298.49364784762 L -547.7989204238531 -215298.49364784762 L -300.53440006438393 -214888.5578955988 L -365.22924084421703 -214803.310814155 L -981.8475727876696 -215021.68654708465 L -953.8544207795929 -215162.24924782847 L -940.5619179881364 -215205.26968232574 L -917.362455942472 -215281.3881600365 L -824.0253176382383 -215451.15186669579 L -547.7989204238531 -215298.49364784762 "  ID_2="4" _id="90" NAME_1="Attica" ID_0="89" CCN_3="0" CCA_3="0" NAME_0="Greece" NAME_2="Attica" ISO="GRC" NL_title="Παιανίας" id="Paiania" title="Paiania" ENGTYPE_3="Municipality" ID_1="3"/>
    <path d="M -1479.132985235171 -214861.38962717145 L -1479.132985235171 -214861.38962717145 L -1577.3836557506083 -214827.36179480286 L -1642.2982073212854 -214965.6146226411 L -1641.9686411363932 -214965.6146226411 L -1637.2748197160336 -214967.48864792704 L -1580.4995542263111 -215002.61529142575 L -1497.8383629419002 -214922.94450785193 L -1479.132985235171 -214861.38962717145 "  ID_2="4" _id="91" NAME_1="Attica" ID_0="89" CCN_3="0" CCA_3="0" NAME_0="Greece" NAME_2="Attica" ISO="GRC" NL_title="Παλαιού Φαλήρου" id="Palaio Faliro" title="Palaio Faliro" ENGTYPE_3="Municipality" ID_1="3"/>
    <path d="M -570.9484481990656 -215659.1664313825 L -570.9484481990656 -215659.1664313825 L -380.68889097274126 -215371.10362267648 L -547.7989204238531 -215298.49364784762 L -824.0253176382383 -215451.15186669579 L -846.196133713134 -215539.3012631 L -798.9083796068164 -215663.858179354 L -776.228233973425 -215700.02419754022 L -570.9484481990656 -215659.1664313825 "  ID_2="4" _id="92" NAME_1="Attica" ID_0="89" CCN_3="0" CCA_3="0" NAME_0="Greece" NAME_2="Attica" ISO="GRC" NL_title="Παλλήνης" id="Pallini" title="Pallini" ENGTYPE_3="Municipality" ID_1="3"/>
    <path d="M -1118.407815583633 -215386.31127023385 L -1118.407815583633 -215386.31127023385 L -1094.1297732964983 -215401.74751785523 L -1030.6733024226355 -215440.04875979244 L -917.362455942472 -215281.3881600365 L -940.5619179881364 -215205.26968232574 L -1118.9071582880183 -215250.97988589646 L -1118.407815583633 -215386.31127023385 "  ID_2="4" _id="93" NAME_1="Attica" ID_0="89" CCN_3="0" CCA_3="0" NAME_0="Greece" NAME_2="Attica" ISO="GRC" NL_title="Παπάγου - Χολαργού" title="Papagou-Cholargos" ENGTYPE_3="Municipality" ID_1="3"/>
    <path d="M -192.51658625046852 -215656.57964913503 L -192.51658625046852 -215656.57964913503 L -570.9484481990656 -215659.1664313825 L -776.228233973425 -215700.02419754022 L -899.845513872477 -215663.14807405503 L -903.9700846107446 -215783.70328778747 L -613.7121574033011 -215906.97796721561 L -499.6423100118996 -215843.09144981226 L -192.51658625046852 -215656.57964913503 "  ID_2="4" _id="94" NAME_1="Attica" ID_0="89" CCN_3="0" CCA_3="0" NAME_0="Greece" NAME_2="Attica" ISO="GRC" NL_title="Πεντέλης" id="Penteli" title="Penteli" ENGTYPE_3="Municipality" ID_1="3"/>
    <path d="M -2074.6890419065467 -215118.70062397906 L -2074.6890419065467 -215118.70062397906 L -2252.205373317151 -215335.5956133034 L -2068.0477839387477 -215330.55221579864 L -2074.6890419065467 -215118.70062397906 "  ID_2="4" _id="95" NAME_1="Attica" ID_0="89" CCN_3="0" CCA_3="0" NAME_0="Greece" NAME_2="Attica" ISO="GRC" NL_title="Περάματος" id="Perama" title="Perama" ENGTYPE_3="Municipality" ID_1="3"/>
    <path d="M -1739.7798900725736 -215606.57122685335 L -1739.7798900725736 -215606.57122685335 L -1658.4569372359358 -215584.5863906557 L -1523.5545122179783 -215482.81485576366 L -1483.6670169910137 -215461.03840772866 L -1616.5920449001835 -215343.8324299889 L -1730.9115636429117 -215439.79526715507 L -1739.7798900725736 -215606.57122685335 "  ID_2="4" _id="96" NAME_1="Attica" ID_0="89" CCN_3="0" CCA_3="0" NAME_0="Greece" NAME_2="Attica" ISO="GRC" NL_title="Περιστερίου" id="Peristeri" title="Peristeri" ENGTYPE_3="Municipality" ID_1="3"/>
    <path d="M -1658.4569372359358 -215584.5863906557 L -1658.4569372359358 -215584.5863906557 L -1739.7798900725736 -215606.57122685335 L -1809.8476583528534 -215622.57234881626 L -1810.38694847358 -215670.37597994934 L -1688.477420623552 -215782.9930076272 L -1658.4569372359358 -215584.5863906557 "  ID_2="4" _id="97" NAME_1="Attica" ID_0="89" CCN_3="0" CCA_3="0" NAME_0="Greece" NAME_2="Attica" ISO="GRC" NL_title="Πετρουπόλεως" id="Petroupoli" title="Petroupoli" ENGTYPE_3="Municipality" ID_1="3"/>
    <path d="M -1938.048904277917 -214993.2698884847 L -1938.048904277917 -214993.2698884847 L -1933.6846490415337 -214997.37272627166 L -1932.206594635949 -214998.81632554904 L -1926.5939826386025 -215004.33749903404 L -1932.3264368853065 -215140.38578189787 L -1716.4206383618098 -215078.82879600182 L -1722.7922512695447 -215000.234602683 L -1904.6029299378763 -214904.73803950305 L -1942.073606474698 -214993.2698884847 L -1938.048904277917 -214993.2698884847 "  ID_2="4" _id="98" NAME_1="Attica" ID_0="89" CCN_3="0" CCA_3="0" NAME_0="Greece" NAME_2="Attica" ISO="GRC" NL_title="Πειραιώς" id="Piraeus" title="Piraeus" ENGTYPE_3="Municipality" ID_1="3"/>
    <path d="M -2849.319379226828 -212053.27641615528 L -2849.319379226828 -212053.27641615528 L -2528.5416259267836 -211626.3226882706 L -3023.21048260385 -211490.79238679548 L -2977.2709537999986 -211594.15319424865 L -2864.3895420453146 -211819.8114692786 L -2955.5395593052426 -211845.7297850176 L -2849.319379226828 -212053.27641615528 "  ID_2="4" _id="99" NAME_1="Attica" ID_0="89" CCN_3="0" CCA_3="0" NAME_0="Greece" NAME_2="Attica" ISO="GRC" NL_title="Πόρου" id="Poros" title="Poros" ENGTYPE_3="Municipality" ID_1="3"/>
    <path d="M 153.4879604753625 -215332.7571118046 L 153.4879604753625 -215332.7571118046 L -380.68889097274126 -215371.10362267648 L -570.9484481990656 -215659.1664313825 L -192.51658625046852 -215656.57964913503 L 0.7290403484072616 -215625.5900519881 L 153.4879604753625 -215332.7571118046 "  ID_2="4" _id="100" NAME_1="Attica" ID_0="89" CCN_3="0" CCA_3="0" NAME_0="Greece" NAME_2="Attica" ISO="GRC" NL_title="Ραφήνας - Πικερμίου" title="Rafina-Pikermi" ENGTYPE_3="Municipality" ID_1="3"/>
    <path d="M -3023.050692938151 -214921.3491990551 L -3023.050692938151 -214921.3491990551 L -2730.7155000804496 -215404.71315837078 L -2383.1030698461987 -215109.50498948354 L -2546.00863372666 -214698.28520305423 L -3023.050692938151 -214921.3491990551 "  ID_2="4" _id="101" NAME_1="Attica" ID_0="89" CCN_3="0" CCA_3="0" NAME_0="Greece" NAME_2="Attica" ISO="GRC" NL_title="Σαλαμίνος" id="Salamis Island" title="Salamis Island" ENGTYPE_3="Municipality" ID_1="3"/>
    <path d="M -703.7636207129716 -214079.42424656308 L -703.7636207129716 -214079.42424656308 L -573.3053457640802 -214500.54699348882 L 220.8992255679998 -214374.71843958445 L -227.94994455335726 -213758.287378362 L -192.16704635678929 -213176.44085128966 L -703.7636207129716 -214079.42424656308 "  ID_2="4" _id="102" NAME_1="Attica" ID_0="89" CCN_3="0" CCA_3="0" NAME_0="Greece" NAME_2="Attica" ISO="GRC" NL_title="Σαρωνικού" id="Saronikos" title="Saronikos" ENGTYPE_3="Municipality" ID_1="3"/>
    <path d="M 36.741636189613345 -214917.70279852842 L 36.741636189613345 -214917.70279852842 L -300.53440006438393 -214888.5578955988 L -547.7989204238531 -215298.49364784762 L -380.68889097274126 -215371.10362267648 L 153.4879604753625 -215332.7571118046 L 36.741636189613345 -214917.70279852842 "  ID_2="4" _id="103" NAME_1="Attica" ID_0="89" CCN_3="0" CCA_3="0" NAME_0="Greece" NAME_2="Attica" ISO="GRC" NL_title="Σπάτων - Αρτέμιδος" title="Spata-Artemida" ENGTYPE_3="Municipality" ID_1="3"/>
    <path d="M -4633.111335264334 -210652.88445119807 L -4633.111335264334 -210652.88445119807 L -4358.223176497722 -210530.44513543035 L -4569.1255611244205 -210349.5272850833 L -4633.111335264334 -210652.88445119807 "  ID_2="4" _id="104" NAME_1="Attica" ID_0="89" CCN_3="0" CCA_3="0" NAME_0="Greece" NAME_2="Attica" ISO="GRC" NL_title="Σπετσών" id="Spetses" title="Spetses" ENGTYPE_3="Municipality" ID_1="3"/>
    <path d="M -2849.319379226828 -212053.27641615528 L -2849.319379226828 -212053.27641615528 L -2955.5395593052426 -211845.7297850176 L -3445.2749100623346 -211819.83663203107 L -4366.012922686214 -212293.6020640622 L -4182.8540187166145 -212724.6639767299 L -3562.670379864391 -212295.33996691348 L -3286.314153546871 -212431.04126208738 L -2849.319379226828 -212053.27641615528 "  ID_2="4" _id="105" NAME_1="Attica" ID_0="89" CCN_3="0" CCA_3="0" NAME_0="Greece" NAME_2="Attica" ISO="GRC" NL_title="Τροιζηνία-Μέθανα" title="Troizinia-Methana" ENGTYPE_3="Municipality" ID_1="3"/>
    <path d="M -1350.4623571679697 -214408.76535080295 L -1350.4623571679697 -214408.76535080295 L -1085.8007369875465 -214536.24732073658 L -921.0376182465063 -214143.83871001992 L -1350.4623571679697 -214408.76535080295 "  ID_2="4" _id="106" NAME_1="Attica" ID_0="89" CCN_3="0" CCA_3="0" NAME_0="Greece" NAME_2="Attica" ISO="GRC" NL_title="Βάρης - Βούλας - Βουλιαγμένης" title="Vari-Voula-Vouliagmeni" ENGTYPE_3="Municipality" ID_1="3"/>
    <path d="M -899.845513872477 -215663.14807405503 L -899.845513872477 -215663.14807405503 L -776.228233973425 -215700.02419754022 L -798.9083796068164 -215663.858179354 L -939.3634954981911 -215607.00231199455 L -899.845513872477 -215663.14807405503 "  ID_2="4" _id="107" NAME_1="Attica" ID_0="89" CCN_3="0" CCA_3="0" NAME_0="Greece" NAME_2="Attica" ISO="GRC" NL_title="Βριλησσίων" id="Vrilissia" title="Vrilissia" ENGTYPE_3="Municipality" ID_1="3"/>
    <path d="M -992.1140587893507 -215006.21167304317 L -992.1140587893507 -215006.21167304317 L -1053.9027250308309 -214953.35766175273 L -1277.7680462629114 -215042.7595052576 L -1331.4973212549542 -215097.39640189096 L -1286.6064121303089 -215149.81000623378 L -992.1140587893507 -215006.21167304317 "  ID_2="4" _id="108" NAME_1="Attica" ID_0="89" CCN_3="0" CCA_3="0" NAME_0="Greece" NAME_2="Attica" ISO="GRC" NL_title="Βύρωνος" id="Vyronas" title="Vyronas" ENGTYPE_3="Municipality" ID_1="3"/>
    <path d="M -953.8544207795929 -215162.24924782847 L -953.8544207795929 -215162.24924782847 L -1232.6374526398508 -215177.3743743319 L -1118.9071582880183 -215250.97988589646 L -940.5619179881364 -215205.26968232574 L -953.8544207795929 -215162.24924782847 "  ID_2="4" _id="109" NAME_1="Attica" ID_0="89" CCN_3="0" CCA_3="0" NAME_0="Greece" NAME_2="Attica" ISO="GRC" NL_title="Ζωγράφου" id="Zografou" title="Zografou" ENGTYPE_3="Municipality" ID_1="3"/>
  </g>
</svg>