<?xml version="1.0" encoding="utf-8"?>
<!-- (c) ammap.com | SVG map of Afghanistan - Low -->
<svg xmlns="http://www.w3.org/2000/svg" xmlns:amcharts="http://amcharts.com/ammap" xmlns:xlink="http://www.w3.org/1999/xlink" version="1.1">
	<defs>
		<style type="text/css">
			.land
			{
				fill: #CCCCCC;
				fill-opacity: 1;
				stroke:white;
				stroke-opacity: 1;
				stroke-width:0.5;
			}
		</style>

	<amcharts:ammap projection="mercator" leftLongitude="21.379395" topLatitude="39.129394" rightLongitude="25.004883" bottomLatitude="38.114571"></amcharts:ammap>

		<!-- All areas are listed in the line below. You can use this list in your script. -->		<!--{id:"AF-PIA"},{id:"AF-WAR"},{id:"AF-SAM"},{id:"AF-PAR"},{id:"AF-LOG"},{id:"AF-LAG"},{id:"AF-PAN"},{id:"AF-KAP"},{id:"AF-KAB"},{id:"AF-BGL"},{id:"AF-TAK"},{id:"AF-NAN"},{id:"AF-KDZ"},{id:"AF-KNR"},{id:"AF-NUR"},{id:"AF-BDS"},{id:"AF-PKA"},,{id:"AF-KHO"},{id:"AF-GHA"},{id:"AF-ZAB"},{id:"AF-KAN"},{id:"AF-DAY"},{id:"AF-URU"},{id:"AF-NIM"},{id:"AF-HEL"},{id:"AF-FRA"},{id:"AF-SAR"},{id:"AF-GHO"},{id:"AF-JOW"},{id:"AF-FYB"},{id:"AF-BAL"},{id:"AF-BAM"},{id:"AF-HER"},{id:"AF-BDG"}-->


	</defs>
  <g>
    <path d="M -13058.830378911729 -221322.9190126979 L -13058.830378911729 -221322.9190126979 L -13082.419328267097 -221873.72578923212 L -13754.964043101309 -222191.8210272443 L -13434.78550104712 -222789.8586753778 L -13638.367521626282 -223178.78445319156 L -13056.024072912463 -223658.63382518006 L -12420.900100344907 -223785.8296312084 L -12022.494530220712 -223603.86657596123 L -11894.672784750992 -222840.23319937213 L -11678.11784071119 -222757.06790735153 L -12408.825993753064 -221228.98608043676 L -13058.830378911729 -221322.9190126979 "  ID_2="13" _id="276" NAME_1="Thessaly and Central Greece" ID_0="89" CCN_3="0" CCA_3="0" NAME_0="Greece" NAME_2="Central Greece" ISO="GRC" NL_title="Αγράφων" id="Agrafa" title="Agrafa" ENGTYPE_3="Municipality" ID_1="8"/>
    <path d="M -4441.473592173895 -218154.0059925162 L -4441.473592173895 -218154.0059925162 L -4387.474672120889 -217431.47960660618 L -4660.884776483099 -217234.05206186586 L -5424.91906161594 -217490.12789227843 L -5107.297154207624 -218252.6937347782 L -4441.473592173895 -218154.0059925162 "  ID_2="13" _id="277" NAME_1="Thessaly and Central Greece" ID_0="89" CCN_3="0" CCA_3="0" NAME_0="Greece" NAME_2="Central Greece" ISO="GRC" NL_title="Αλιάρτου" id="Aliartos" title="Aliartos" ENGTYPE_3="Municipality" ID_1="8"/>
    <path d="M -8244.018220373095 -220273.66824971364 L -8244.018220373095 -220273.66824971364 L -7634.410659999574 -220336.45352165055 L -6916.635483001715 -220013.70385498586 L -6341.652345750593 -219927.3703172506 L -5707.786716798108 -220032.74333448394 L -5966.98552779279 -219305.09709118452 L -6452.126925670093 -219298.45349321893 L -7124.781495899568 -218791.02594128088 L -7435.762145339203 -219111.24396042008 L -7581.8498469357955 -219737.40932364436 L -7846.581375095124 -219746.05390974318 L -8244.018220373095 -220273.66824971364 "  ID_2="13" _id="278" NAME_1="Thessaly and Central Greece" ID_0="89" CCN_3="0" CCA_3="0" NAME_0="Greece" NAME_2="Central Greece" ISO="GRC" NL_title="Αμφίκλειας - Ελάτειας" title="Amfikleia-Elateia" ENGTYPE_3="Municipality" ID_1="8"/>
    <path d="M -1960.6990893487275 -219013.60609499388 L -1960.6990893487275 -219013.60609499388 L -1613.4461858619331 -218944.94198825653 L -1099.9221486673982 -218480.10162642197 L -1439.1655951760895 -218121.86226150283 L -1852.231867100862 -218058.70262167783 L -1960.6990893487275 -219013.60609499388 M -1799.8707911188405 -217744.53094292185 L -1799.8707911188405 -217744.53094292185 L -2716.4243118802224 -218021.4937867291 L -3166.0025223506027 -218517.62645313216 L -3734.234546238646 -218122.39754798956 L -3517.589720512382 -218799.3727556411 L -2132.9323749468776 -218537.78035246144 L -1799.8707911188405 -217744.53094292185 "  ID_2="13" _id="279" NAME_1="Thessaly and Central Greece" ID_0="89" CCN_3="0" CCA_3="0" NAME_0="Greece" NAME_2="Central Greece" ISO="GRC" NL_title="Χαλκιδέων" id="Chalcis" title="Chalcis" ENGTYPE_3="Municipality" ID_1="8"/>
    <path d="M -8958.2280904622 -217645.05566644683 L -8958.2280904622 -217645.05566644683 L -9105.873741296211 -218559.44035548816 L -8775.598489758651 -218931.61375752185 L -9200.748855130292 -219163.99146012476 L -9153.411166753522 -219852.02667307245 L -9705.993790286027 -219788.05142070635 L -9953.238336937025 -220305.70000183966 L -9917.495386156783 -220318.83594338436 L -8926.619697274034 -220774.89936264444 L -8875.626820302052 -220170.75096284007 L -8244.018220373095 -220273.66824971364 L -7846.581375095124 -219746.05390974318 L -7581.8498469357955 -219737.40932364436 L -7435.762145339203 -219111.24396042008 L -7889.8843744201195 -219242.88083490817 L -7662.773325609501 -218417.7112663046 L -7275.183518461526 -218120.33287481498 L -7288.815574291668 -217785.99775175864 L -7543.470366676696 -217253.94894761482 L -7831.441304297731 -217934.4210233346 L -8286.682061035877 -218279.64452779084 L -8651.7415253612 -217722.93293274957 L -8958.2280904622 -217645.05566644683 "  ID_2="13" _id="280" NAME_1="Thessaly and Central Greece" ID_0="89" CCN_3="0" CCA_3="0" NAME_0="Greece" NAME_2="Central Greece" ISO="GRC" NL_title="Δελφών" id="Delphi" title="Delphi" ENGTYPE_3="Municipality" ID_1="8"/>
    <path d="M -2944.564006662459 -219901.58073727204 L -2944.564006662459 -219901.58073727204 L -2719.6300920424187 -220087.81877021937 L -1619.148679546073 -220136.04055989053 L -1434.471773754814 -220376.68445977426 L -1263.1672655865623 -220110.11178711127 L -380.0697060189984 -219856.70812376757 L -409.26128051732013 -219364.97026962563 L -448.13011662794275 -218831.84247308492 L -1099.9221486673982 -218480.10162642197 L -1613.4461858619331 -218944.94198825653 L -1960.6990893487275 -219013.60609499388 L -2579.4546080666837 -219327.96710118713 L -2944.564006662459 -219901.58073727204 "  ID_2="13" _id="281" NAME_1="Thessaly and Central Greece" ID_0="89" CCN_3="0" CCA_3="0" NAME_0="Greece" NAME_2="Central Greece" ISO="GRC" NL_title="Διρφύων - Μεσσαπίων" title="Dirfys-Messapia" ENGTYPE_3="Municipality" ID_1="8"/>
    <path d="M -7124.781495899568 -218791.02594128088 L -7124.781495899568 -218791.02594128088 L -6412.648891460737 -218472.11745467503 L -6451.3279773430795 -218163.7183575811 L -6864.723815453044 -217760.04237332856 L -7288.815574291668 -217785.99775175864 L -7275.183518461526 -218120.33287481498 L -7662.773325609501 -218417.7112663046 L -7889.8843744201195 -219242.88083490817 L -7435.762145339203 -219111.24396042008 L -7124.781495899568 -218791.02594128088 "  ID_2="13" _id="282" NAME_1="Thessaly and Central Greece" ID_0="89" CCN_3="0" CCA_3="0" NAME_0="Greece" NAME_2="Central Greece" ISO="GRC" NL_title="Διστόμου - Αράχοβας - Αντικύρας" title="Distomo-Arachova-Antikyra" ENGTYPE_3="Municipality" ID_1="8"/>
    <path d="M -9200.788802546633 -222130.53945161417 L -9200.788802546633 -222130.53945161417 L -9988.21229995307 -222692.67691699823 L -9607.523408979745 -222912.31640266595 L -9129.232993006959 -223907.58993971805 L -8974.806268247654 -223668.74221965682 L -8348.860214587095 -223533.096232337 L -7833.059174660245 -222954.18116485263 L -7818.288617464403 -222397.34149241573 L -7321.0731129949245 -222336.75349245232 L -7665.439815650654 -222077.7469622736 L -9200.788802546633 -222130.53945161417 "  ID_2="13" _id="283" NAME_1="Thessaly and Central Greece" ID_0="89" CCN_3="0" CCA_3="0" NAME_0="Greece" NAME_2="Central Greece" ISO="GRC" NL_title="Δομοκού" id="Domokos" title="Domokos" ENGTYPE_3="Municipality" ID_1="8"/>
    <path d="M -8958.2280904622 -217645.05566644683 L -8958.2280904622 -217645.05566644683 L -9461.865142109516 -217641.3378372343 L -10203.628742626875 -218027.17686852074 L -10823.223157088185 -218101.41985975625 L -11241.472606284824 -217891.74402689925 L -11070.068229575953 -218504.66717545036 L -10474.272488406177 -218808.99602076947 L -10402.476994368388 -219289.48478151343 L -10573.61172601718 -219847.4220119975 L -10484.698764073242 -220514.81674718132 L -9953.238336937025 -220305.70000183966 L -9705.993790286027 -219788.05142070635 L -9153.411166753522 -219852.02667307245 L -9200.748855130292 -219163.99146012476 L -8775.598489758651 -218931.61375752185 L -9105.873741296211 -218559.44035548816 L -8958.2280904622 -217645.05566644683 "  ID_2="13" _id="284" NAME_1="Thessaly and Central Greece" ID_0="89" CCN_3="0" CCA_3="0" NAME_0="Greece" NAME_2="Central Greece" ISO="GRC" NL_title="Δωρίδος" id="Dorida" title="Dorida" ENGTYPE_3="Municipality" ID_1="8"/>
    <path d="M -310.9806494399181 -217975.36900443092 L -310.9806494399181 -217975.36900443092 L -1439.1655951760895 -218121.86226150283 L -1099.9221486673982 -218480.10162642197 L -448.13011662794275 -218831.84247308492 L -409.26128051732013 -219364.97026962563 L -292.1154820674732 -219327.09827646767 L -310.9806494399181 -217975.36900443092 "  ID_2="13" _id="285" NAME_1="Thessaly and Central Greece" ID_0="89" CCN_3="0" CCA_3="0" NAME_0="Greece" NAME_2="Central Greece" ISO="GRC" NL_title="Ερέτριας" id="Eretria" title="Eretria" ENGTYPE_3="Municipality" ID_1="8"/>
    <path d="M -3185.466900967987 -221814.79687499028 L -3185.466900967987 -221814.79687499028 L -3664.2266990825956 -221607.72999416298 L -4214.762017527108 -220975.7080315086 L -4806.213477168436 -220999.96561903704 L -5194.532324664253 -221476.36626647128 L -4553.12662087547 -222144.11120181213 L -3763.3661996124724 -222350.04824664153 L -3261.59668967958 -222138.50766720125 L -3185.466900967987 -221814.79687499028 "  ID_2="13" _id="286" NAME_1="Thessaly and Central Greece" ID_0="89" CCN_3="0" CCA_3="0" NAME_0="Greece" NAME_2="Central Greece" ISO="GRC" NL_title="Ιστιαίας - Αιδηψού" title="Istiaia-Aidipsos" ENGTYPE_3="Municipality" ID_1="8"/>
    <path d="M -12444.249365202175 -220187.2111247951 L -12444.249365202175 -220187.2111247951 L -12836.273335564574 -220734.60934159998 L -12408.825993753064 -221228.98608043676 L -11678.11784071119 -222757.06790735153 L -11343.618149894224 -223110.16372439705 L -10967.3434484286 -222790.09032934663 L -10796.388480153963 -222509.82004637644 L -11343.718018435711 -221683.47888129402 L -10762.033702091661 -220612.55537167928 L -10771.671016286671 -220337.65707169744 L -11427.37789512856 -220015.6743037079 L -12444.249365202175 -220187.2111247951 "  ID_2="13" _id="287" NAME_1="Thessaly and Central Greece" ID_0="89" CCN_3="0" CCA_3="0" NAME_0="Greece" NAME_2="Central Greece" ISO="GRC" NL_title="Καρπενησίου" id="Karpenisi" title="Karpenisi" ENGTYPE_3="Municipality" ID_1="8"/>
    <path d="M 812.290764085083 -217200.41749754522 L 812.290764085083 -217200.41749754522 L 1259.2524187850286 -217383.83310701724 L 1424.6247356248687 -216716.94334032337 L 2224.5717480574135 -216363.58716555146 L 2918.3285409741243 -216337.70786184704 L 3059.3728812557783 -215561.61367764111 L 2921.24470236777 -215253.38713846527 L 1769.3409781730452 -215305.05724622862 L 1613.7358046307836 -215847.9118237165 L 1050.8667213890599 -216004.95528538115 L 1084.2727483127424 -216587.44101262273 L 812.290764085083 -217200.41749754522 "  ID_2="13" _id="288" NAME_1="Thessaly and Central Greece" ID_0="89" CCN_3="0" CCA_3="0" NAME_0="Greece" NAME_2="Central Greece" ISO="GRC" NL_title="Καρύστου" id="Karystos" title="Karystos" ENGTYPE_3="Municipality" ID_1="8"/>
    <path d="M -310.9806494399181 -217975.36900443092 L -310.9806494399181 -217975.36900443092 L -292.1154820674732 -219327.09827646767 L -409.26128051732013 -219364.97026962563 L -380.0697060189984 -219856.70812376757 L 250.88974839395095 -219985.2739953195 L 810.8426702429283 -219752.42235820126 L 688.6734841869302 -219305.63369348668 L 1113.3844279780647 -218955.94699319263 L 962.1035622567109 -218040.1743024212 L 1259.2524187850286 -217383.83310701724 L 812.290764085083 -217200.41749754522 L 311.9793348486888 -217667.31231021564 L 234.89080814559915 -218029.06274900355 L -310.9806494399181 -217975.36900443092 "  ID_2="13" _id="289" NAME_1="Thessaly and Central Greece" ID_0="89" CCN_3="0" CCA_3="0" NAME_0="Greece" NAME_2="Central Greece" ISO="GRC" NL_title="Κύμης - Αλιβερίου" title="Kymi-Aliveri" ENGTYPE_3="Municipality" ID_1="8"/>
    <path d="M -7355.837352075151 -220989.40085255483 L -7355.837352075151 -220989.40085255483 L -7634.410659999574 -220336.45352165055 L -8244.018220373095 -220273.66824971364 L -8875.626820302052 -220170.75096284007 L -8926.619697274034 -220774.89936264444 L -9917.495386156783 -220318.83594338436 L -9635.446653009216 -220632.23360606492 L -9711.406665201599 -221058.48634264042 L -9200.788802546633 -222130.53945161417 L -7665.439815650654 -222077.7469622736 L -7492.537410828925 -221700.86430488966 L -7598.72763034446 -221197.4825276993 L -7355.837352075151 -220989.40085255483 "  ID_2="13" _id="290" NAME_1="Thessaly and Central Greece" ID_0="89" CCN_3="0" CCA_3="0" NAME_0="Greece" NAME_2="Central Greece" ISO="GRC" NL_title="Λαμιέων" id="Lamia" title="Lamia" ENGTYPE_3="Municipality" ID_1="8"/>
    <path d="M -6864.723815453044 -217760.04237332856 L -6864.723815453044 -217760.04237332856 L -6451.3279773430795 -218163.7183575811 L -6412.648891460737 -218472.11745467503 L -7124.781495899568 -218791.02594128088 L -6452.126925670093 -219298.45349321893 L -5966.98552779279 -219305.09709118452 L -5891.84443763679 -219054.0328690335 L -5107.297154207624 -218252.6937347782 L -5424.91906161594 -217490.12789227843 L -5933.000263332622 -217169.5836253189 L -5874.047863652055 -216881.79369786053 L -6817.685732699819 -217480.04721232847 L -6864.723815453044 -217760.04237332856 "  ID_2="13" _id="291" NAME_1="Thessaly and Central Greece" ID_0="89" CCN_3="0" CCA_3="0" NAME_0="Greece" NAME_2="Central Greece" ISO="GRC" NL_title="Λεβαδέων" id="Livadeia" title="Livadeia" ENGTYPE_3="Municipality" ID_1="8"/>
    <path d="M -5891.84443763679 -219054.0328690335 L -5891.84443763679 -219054.0328690335 L -5966.98552779279 -219305.09709118452 L -5707.786716798108 -220032.74333448394 L -5862.123559870902 -220508.64310258834 L -4989.492223387976 -220356.2228541717 L -4702.959392754985 -219581.06635239255 L -4241.886313229865 -219728.20224327044 L -3555.3799763803017 -219657.4414905218 L -3583.0535490575967 -219166.11169840567 L -3275.5283511314515 -218874.1431784113 L -4156.428802800299 -218760.54981024022 L -4636.986234650392 -219249.31926928132 L -5192.964388572158 -218985.36299731693 L -5891.84443763679 -219054.0328690335 "  ID_2="13" _id="292" NAME_1="Thessaly and Central Greece" ID_0="89" CCN_3="0" CCA_3="0" NAME_0="Greece" NAME_2="Central Greece" ISO="GRC" NL_title="Λοκρών" id="Lokroi" title="Lokroi" ENGTYPE_3="Municipality" ID_1="8"/>
    <path d="M -9200.788802546633 -222130.53945161417 L -9200.788802546633 -222130.53945161417 L -9711.406665201599 -221058.48634264042 L -9635.446653009216 -220632.23360606492 L -9917.495386156783 -220318.83594338436 L -9953.238336937025 -220305.70000183966 L -10484.698764073242 -220514.81674718132 L -10762.033702091661 -220612.55537167928 L -11343.718018435711 -221683.47888129402 L -10796.388480153963 -222509.82004637644 L -10212.886556365958 -222409.22340488012 L -9988.21229995307 -222692.67691699823 L -9200.788802546633 -222130.53945161417 "  ID_2="13" _id="293" NAME_1="Thessaly and Central Greece" ID_0="89" CCN_3="0" CCA_3="0" NAME_0="Greece" NAME_2="Central Greece" ISO="GRC" NL_title="Μακρακώμης" id="Makrakomi" title="Makrakomi" ENGTYPE_3="Municipality" ID_1="8"/>
    <path d="M -1434.471773754814 -220376.68445977426 L -1434.471773754814 -220376.68445977426 L -1619.148679546073 -220136.04055989053 L -2719.6300920424187 -220087.81877021937 L -2944.564006662459 -219901.58073727204 L -4214.762017527108 -220975.7080315086 L -3664.2266990825956 -221607.72999416298 L -3185.466900967987 -221814.79687499028 L -3184.4881892679864 -221816.05552463402 L -3184.0088202711727 -221816.67200730476 L -3002.697484307526 -221797.97238734554 L -2774.348065589455 -220985.04167224423 L -1943.8612533564215 -220438.2538079928 L -1434.471773754814 -220376.68445977426 "  ID_2="13" _id="294" NAME_1="Thessaly and Central Greece" ID_0="89" CCN_3="0" CCA_3="0" NAME_0="Greece" NAME_2="Central Greece" ISO="GRC" NL_title="Μαντουδίου - Λίμνης" title="Mantoudi-Limni-Agia Anna" ENGTYPE_3="Municipality" ID_1="8"/>
    <path d="M -7355.837352075151 -220989.40085255483 L -7355.837352075151 -220989.40085255483 L -6893.326165561103 -221005.5814515368 L -6448.262013137829 -220602.40909797497 L -5862.123559870902 -220508.64310258834 L -5707.786716798108 -220032.74333448394 L -6341.652345750593 -219927.3703172506 L -6916.635483001715 -220013.70385498586 L -7634.410659999574 -220336.45352165055 L -7355.837352075151 -220989.40085255483 "  ID_2="13" _id="295" NAME_1="Thessaly and Central Greece" ID_0="89" CCN_3="0" CCA_3="0" NAME_0="Greece" NAME_2="Central Greece" ISO="GRC" NL_title="Μώλου - Αγίου Κωνσταντίνου" title="Molos-Agios Konstantinos" ENGTYPE_3="Municipality" ID_1="8"/>
    <path d="M -4441.473592173895 -218154.0059925162 L -4441.473592173895 -218154.0059925162 L -5107.297154207624 -218252.6937347782 L -5891.84443763679 -219054.0328690335 L -5192.964388572158 -218985.36299731693 L -4636.986234650392 -219249.31926928132 L -4156.428802800299 -218760.54981024022 L -3275.5283511314515 -218874.1431784113 L -3517.589720512382 -218799.3727556411 L -3734.234546238646 -218122.39754798956 L -4441.473592173895 -218154.0059925162 "  ID_2="13" _id="296" NAME_1="Thessaly and Central Greece" ID_0="89" CCN_3="0" CCA_3="0" NAME_0="Greece" NAME_2="Central Greece" ISO="GRC" NL_title="Ορχομενού" id="Orchomenus" title="Orchomenus" ENGTYPE_3="Municipality" ID_1="8"/>
    <path d="M 2943.046004841415 -220766.62066551307 L 2943.046004841415 -220766.62066551307 L 2399.0820363875787 -221280.1452954074 L 2355.469444585279 -221766.17444154964 L 2631.815684048705 -221900.8293684829 L 3036.1434586475666 -221581.0281669301 L 2943.046004841415 -220766.62066551307 "  ID_2="13" _id="297" NAME_1="Thessaly and Central Greece" ID_0="89" CCN_3="0" CCA_3="0" NAME_0="Greece" NAME_2="Central Greece" ISO="GRC" NL_title="Σκύρου" id="Skyros" title="Skyros" ENGTYPE_3="Municipality" ID_1="8"/>
    <path d="M -7587.092945331891 -221200.56095924508 L -7587.092945331891 -221200.56095924508 L -7588.541039174612 -221200.17615421704 L -7595.8114689508475 -221198.2521337268 L -7596.929996608958 -221197.94429116772 L -7598.72763034446 -221197.4825276993 L -7492.537410828925 -221700.86430488966 L -7665.439815650654 -222077.7469622736 L -7321.0731129949245 -222336.75349245232 L -7007.366052389058 -222439.13524600328 L -6528.6362148370135 -222079.31471730306 L -5607.948136482688 -221866.01889150692 L -5152.367826705856 -222087.384882143 L -5289.077872313424 -221710.08371555645 L -5991.593136265716 -221592.27356214882 L -6536.985224853803 -221207.28227034124 L -7319.475216341498 -221467.02302755223 L -7587.092945331891 -221200.56095924508 "  ID_2="13" _id="298" NAME_1="Thessaly and Central Greece" ID_0="89" CCN_3="0" CCA_3="0" NAME_0="Greece" NAME_2="Central Greece" ISO="GRC" NL_title="Στυλίδος" id="Stylida" title="Stylida" ENGTYPE_3="Municipality" ID_1="8"/>
    <path d="M -2543.951341783973 -216282.52529566735 L -2543.951341783973 -216282.52529566735 L -3171.864805700425 -217152.43758516395 L -3125.8453820635577 -217477.50161928928 L -2716.4243118802224 -218021.4937867291 L -1799.8707911188405 -217744.53094292185 L -1632.8007090840867 -217663.61977556182 L -1920.5719096242635 -217190.19020356698 L -1924.4068615939802 -216785.21534936538 L -1937.3897719081156 -216536.65077103514 L -2433.5366829895843 -216281.12867145595 L -2543.951341783973 -216282.52529566735 "  ID_2="13" _id="299" NAME_1="Thessaly and Central Greece" ID_0="89" CCN_3="0" CCA_3="0" NAME_0="Greece" NAME_2="Central Greece" ISO="GRC" NL_title="Τανάγρας" id="Tanagra" title="Tanagra" ENGTYPE_3="Municipality" ID_1="8"/>
    <path d="M -5874.047863652055 -216881.79369786053 L -5874.047863652055 -216881.79369786053 L -5933.000263332622 -217169.5836253189 L -5424.91906161594 -217490.12789227843 L -4660.884776483099 -217234.05206186586 L -4387.474672120889 -217431.47960660618 L -4441.473592173895 -218154.0059925162 L -3734.234546238646 -218122.39754798956 L -3166.0025223506027 -218517.62645313216 L -2716.4243118802224 -218021.4937867291 L -3125.8453820635577 -217477.50161928928 L -3171.864805700425 -217152.43758516395 L -3574.7544733100435 -217099.93479138377 L -3754.707597118645 -216601.28919918326 L -4586.592568923381 -216493.53786274145 L -5162.534444166933 -216803.9498928161 L -5690.519446080289 -216661.4381105391 L -5874.047863652055 -216881.79369786053 "  ID_2="13" _id="300" NAME_1="Thessaly and Central Greece" ID_0="89" CCN_3="0" CCA_3="0" NAME_0="Greece" NAME_2="Central Greece" ISO="GRC" NL_title="Θηβαίων" id="Thebes" title="Thebes" ENGTYPE_3="Municipality" ID_1="8"/>
  </g>
</svg>