<?xml version="1.0" encoding="utf-8"?>
<!-- (c) ammap.com | SVG map of Afghanistan - Low -->
<svg xmlns="http://www.w3.org/2000/svg" xmlns:amcharts="http://amcharts.com/ammap" xmlns:xlink="http://www.w3.org/1999/xlink" version="1.1">
	<defs>
		<style type="text/css">
			.land
			{
				fill: #CCCCCC;
				fill-opacity: 1;
				stroke:white;
				stroke-opacity: 1;
				stroke-width:0.5;
			}
		</style>

	<amcharts:ammap projection="mercator" leftLongitude="21.489258" topLatitude="41.749800" rightLongitude="24.345703" bottomLatitude="39.714318"></amcharts:ammap>

		<!-- All areas are listed in the line below. You can use this list in your script. -->		<!--{id:"AF-PIA"},{id:"AF-WAR"},{id:"AF-SAM"},{id:"AF-PAR"},{id:"AF-LOG"},{id:"AF-LAG"},{id:"AF-PAN"},{id:"AF-KAP"},{id:"AF-KAB"},{id:"AF-BGL"},{id:"AF-TAK"},{id:"AF-NAN"},{id:"AF-KDZ"},{id:"AF-KNR"},{id:"AF-NUR"},{id:"AF-BDS"},{id:"AF-PKA"},,{id:"AF-KHO"},{id:"AF-GHA"},{id:"AF-ZAB"},{id:"AF-KAN"},{id:"AF-DAY"},{id:"AF-URU"},{id:"AF-NIM"},{id:"AF-HEL"},{id:"AF-FRA"},{id:"AF-SAR"},{id:"AF-GHO"},{id:"AF-JOW"},{id:"AF-FYB"},{id:"AF-BAL"},{id:"AF-BAM"},{id:"AF-HER"},{id:"AF-BDG"}-->


	</defs>
  <g>
    <path d="M -6910.793173360663 -232502.9717625172 L -6910.793173360663 -232502.9717625172 L -6983.557392243744 -232214.12959533226 L -7774.356446331887 -232627.5488390298 L -8217.213504001453 -232465.18477208857 L -8394.659927433135 -231951.58310088734 L -8925.920617487593 -233215.38084655907 L -8848.472564037012 -233249.0179655278 L -8602.486361000789 -233513.96324669066 L -7907.65098784229 -233740.457922196 L -7284.171687140528 -233103.98529502953 L -6910.793173360663 -232502.9717625172 "  ID_2="8" _id="164" NAME_1="Macedonia and Thrace" ID_0="89" CCN_3="0" CCA_3="0" NAME_0="Greece" NAME_2="Central Macedonia" ISO="GRC" NL_title="Αλεξάνδρειας" id="Alexandria" title="Alexandria" ENGTYPE_3="Municipality" ID_1="6"/>
    <path d="M -9077.111601523353 -235441.57377051056 L -9077.111601523353 -235441.57377051056 L -9344.979001865939 -235048.1310779018 L -9857.96374894003 -235148.42250374475 L -10085.074797750614 -234839.82233784132 L -10335.804756478567 -235052.094749199 L -11056.755753076925 -234872.12578569964 L -11368.585285113724 -235038.69767811743 L -11520.62515174665 -235445.75242705375 L -10954.760012278548 -236405.47399825737 L -10176.534407486964 -236872.0045868004 L -8794.833170731465 -236774.06624464307 L -8875.686741426282 -235853.59305320174 L -9077.111601523353 -235441.57377051056 "  ID_2="8" _id="165" NAME_1="Macedonia and Thrace" ID_0="89" CCN_3="0" CCA_3="0" NAME_0="Greece" NAME_2="Central Macedonia" ISO="GRC" NL_title="Αλμωπίας" id="Almopia" title="Almopia" ENGTYPE_3="Municipality" ID_1="6"/>
    <path d="M -5584.469042522283 -233336.17532483058 L -5584.469042522283 -233336.17532483058 L -5767.488130535236 -233284.36853962098 L -5872.759559474733 -233251.80800902564 L -5944.884619696483 -233498.89916697153 L -5656.963616345601 -233394.54391362527 L -5589.861943730284 -233362.10723060934 L -5584.469042522283 -233336.17532483058 "  ID_2="8" _id="166" NAME_1="Macedonia and Thrace" ID_0="89" CCN_3="0" CCA_3="0" NAME_0="Greece" NAME_2="Central Macedonia" ISO="GRC" NL_title="Αμπελοκήπων - Μενεμένης" id="Ampelokipoi-Menemeni" title="Ampelokipoi-Menemeni" ENGTYPE_3="Municipality" ID_1="6"/>
    <path d="M -1622.0948015022664 -234241.0753731412 L -1622.0948015022664 -234241.0753731412 L -898.8468284636897 -234551.88601463079 L -942.3795254324075 -234928.44435304412 L -551.6538461011245 -235126.14243244287 L -617.3973065611127 -235492.61946712615 L 183.9278917352638 -236083.39180004972 L 528.2945943909933 -235824.8994924095 L 608.169453384877 -235783.29173432197 L 588.705074767476 -235444.6151939624 L -681.403054409796 -234229.89127302333 L -1244.2721376524357 -234068.14793182327 L -1622.0948015022664 -234241.0753731412 "  ID_2="8" _id="167" NAME_1="Macedonia and Thrace" ID_0="89" CCN_3="0" CCA_3="0" NAME_0="Greece" NAME_2="Central Macedonia" ISO="GRC" NL_title="Αμφίπολης" id="Amphipolis" title="Amphipolis" ENGTYPE_3="Municipality" ID_1="6"/>
    <path d="M -1611.1991436921824 -231225.44701690596 L -1611.1991436921824 -231225.44701690596 L -2043.2803858013215 -231494.16321115376 L -2128.4782380237175 -231956.78007481154 L -2472.0160317901696 -232123.08783567234 L -2582.710322499282 -232754.84142021273 L -2397.8037190631517 -233012.60999511607 L -1854.7485543315756 -233180.7461293228 L -1263.2671341280154 -233211.3277132109 L -1068.2937817713623 -232922.22599352844 L -938.8641527938057 -232152.96919331304 L -566.4843244221119 -231573.96138844636 L 51.691956758742606 -231533.83768072288 L 23.98842351890029 -231019.67033761047 L -780.322844150011 -231409.73844276025 L -1533.7111428252615 -231144.11055692326 L -1611.1991436921824 -231225.44701690596 "  ID_2="8" _id="168" NAME_1="Macedonia and Thrace" ID_0="89" CCN_3="0" CCA_3="0" NAME_0="Greece" NAME_2="Central Macedonia" ISO="GRC" NL_title="Αριστοτέλη" id="Aristotelis" title="Aristotelis" ENGTYPE_3="Municipality" ID_1="6"/>
    <path d="M -6259.061062444504 -233696.4041665698 L -6259.061062444504 -233696.4041665698 L -6361.74589617553 -233658.33479146828 L -7090.586507502667 -233535.74382808924 L -7284.171687140528 -233103.98529502953 L -7907.65098784229 -233740.457922196 L -7536.549476794141 -233840.3058847771 L -7753.473934435196 -234380.50382165294 L -7131.602517241537 -234635.0138553867 L -6890.200280231623 -234768.48811669493 L -6840.28598350051 -234339.58107408782 L -6274.720449654769 -234513.87766550478 L -6213.441112971735 -233862.28641576253 L -6259.061062444504 -233696.4041665698 "  ID_2="8" _id="169" NAME_1="Macedonia and Thrace" ID_0="89" CCN_3="0" CCA_3="0" NAME_0="Greece" NAME_2="Central Macedonia" ISO="GRC" NL_title="Χαλκηδόνος" id="Chalkidona" title="Chalkidona" ENGTYPE_3="Municipality" ID_1="6"/>
    <path d="M -6910.793173360663 -232502.9717625172 L -6910.793173360663 -232502.9717625172 L -7284.171687140528 -233103.98529502953 L -7090.586507502667 -233535.74382808924 L -6361.74589617553 -233658.33479146828 L -6259.061062444504 -233696.4041665698 L -6213.441112971735 -233862.28641576253 L -5820.618194282323 -233648.9825896137 L -5944.884619696483 -233498.89916697153 L -5872.759559474733 -233251.80800902564 L -5993.021256399983 -232931.82647969908 L -6910.793173360663 -232502.9717625172 "  ID_2="8" _id="170" NAME_1="Macedonia and Thrace" ID_0="89" CCN_3="0" CCA_3="0" NAME_0="Greece" NAME_2="Central Macedonia" ISO="GRC" NL_title="Δέλτα" id="Delta" title="Delta" ENGTYPE_3="Municipality" ID_1="6"/>
    <path d="M -6720.243997364872 -228428.54841298843 L -6720.243997364872 -228428.54841298843 L -7225.0295372328965 -228661.849652545 L -7686.132577320282 -228491.9299978843 L -7923.939546859193 -228856.88656646086 L -8668.509453374601 -229324.9739731533 L -8632.00750168402 -229926.89500590434 L -8516.84908719792 -230456.30846703655 L -7815.212666405041 -230530.7471639995 L -7419.833113069757 -230256.86109829033 L -7601.663765445693 -229843.1205720735 L -7357.305419625759 -228949.79366283788 L -6720.243997364872 -228428.54841298843 "  ID_2="8" _id="171" NAME_1="Macedonia and Thrace" ID_0="89" CCN_3="0" CCA_3="0" NAME_0="Greece" NAME_2="Central Macedonia" ISO="GRC" NL_title="Δίου - Ολύμπου" title="Dio-Olympos" ENGTYPE_3="Municipality" ID_1="6"/>
    <path d="M -11412.557403662582 -233638.68221544687 L -11412.557403662582 -233638.68221544687 L -11990.77628163815 -234707.990814938 L -11368.585285113724 -235038.69767811743 L -11056.755753076925 -234872.12578569964 L -10335.804756478567 -235052.094749199 L -10085.074797750614 -234839.82233784132 L -9800.639206475786 -234363.51159970136 L -10002.593369838925 -233861.2321696639 L -10971.188387252096 -233535.40144096437 L -11412.557403662582 -233638.68221544687 "  ID_2="8" _id="172" NAME_1="Macedonia and Thrace" ID_0="89" CCN_3="0" CCA_3="0" NAME_0="Greece" NAME_2="Central Macedonia" ISO="GRC" NL_title="Έδεσσας" id="Edessa" title="Edessa" ENGTYPE_3="Municipality" ID_1="6"/>
    <path d="M -1392.3372363577992 -237049.36580259472 L -1392.3372363577992 -237049.36580259472 L -909.0134459247834 -236676.59975267856 L -1386.7445980689397 -235863.59916488949 L -1376.3083355471995 -235282.89239396586 L -2222.5444166772913 -235439.77537310767 L -2360.8323852307158 -235998.75607484416 L -1796.8447743299475 -236442.73860565445 L -1392.3372363577992 -237049.36580259472 "  ID_2="8" _id="173" NAME_1="Macedonia and Thrace" ID_0="89" CCN_3="0" CCA_3="0" NAME_0="Greece" NAME_2="Central Macedonia" ISO="GRC" NL_title="Εμμανουήλ Παππά" id="Emmanouil Pappas" title="Emmanouil Pappas" ENGTYPE_3="Municipality" ID_1="6"/>
    <path d="M -4523.705348732809 -236596.4939146202 L -4523.705348732809 -236596.4939146202 L -4485.445710722768 -237333.32995244692 L -4020.9970745153755 -237215.22013691443 L -3513.2354521297925 -237401.53320795725 L -3251.8894675056476 -236781.65226587848 L -2752.536776261999 -237183.49396586086 L -2965.905913848077 -236555.05440940926 L -3674.802777562197 -236300.16359774672 L -3108.7279141573777 -235862.7256067304 L -3683.4414063478202 -235407.08808703418 L -3986.5823753288287 -235782.81533153684 L -4129.893731488721 -236426.35876618224 L -4523.705348732809 -236596.4939146202 "  ID_2="8" _id="174" NAME_1="Macedonia and Thrace" ID_0="89" CCN_3="0" CCA_3="0" NAME_0="Greece" NAME_2="Central Macedonia" ISO="GRC" NL_title="Ηρακλείας" id="Irakleia" title="Irakleia" ENGTYPE_3="Municipality" ID_1="6"/>
    <path d="M -5410.108557003723 -232715.43007104716 L -5410.108557003723 -232715.43007104716 L -5514.521116491361 -232954.15824686512 L -5397.754818497108 -232891.29537563506 L -5410.108557003723 -232715.43007104716 "  ID_2="8" _id="175" NAME_1="Macedonia and Thrace" ID_0="89" CCN_3="0" CCA_3="0" NAME_0="Greece" NAME_2="Central Macedonia" ISO="GRC" NL_title="Καλαμαριάς" id="Kalamaria" title="Kalamaria" ENGTYPE_3="Municipality" ID_1="6"/>
    <path d="M -3571.3789166286538 -229694.13550290896 L -3571.3789166286538 -229694.13550290896 L -3536.494835300269 -230199.95909337487 L -3537.902981726665 -230202.41703235588 L -3504.476981094212 -230311.7038601329 L -2604.1720719339746 -229069.45542675108 L -1754.780144912138 -228754.24872625573 L -2132.952348654765 -228331.16124107115 L -3235.431131969535 -228866.27291561302 L -3571.3789166286538 -229694.13550290896 "  ID_2="8" _id="176" NAME_1="Macedonia and Thrace" ID_0="89" CCN_3="0" CCA_3="0" NAME_0="Greece" NAME_2="Central Macedonia" ISO="GRC" NL_title="Κασσάνδρας" id="Kassandra" title="Kassandra" ENGTYPE_3="Municipality" ID_1="6"/>
    <path d="M -9877.587917221947 -230155.16935392053 L -9877.587917221947 -230155.16935392053 L -9516.483247115382 -230922.76108949733 L -8833.622112008155 -231478.29961919817 L -7725.900230298172 -231562.2910625411 L -7128.956000907988 -231159.5434722305 L -7419.833113069757 -230256.86109829033 L -7815.212666405041 -230530.7471639995 L -8516.84908719792 -230456.30846703655 L -8632.00750168402 -229926.89500590434 L -9473.84936701488 -229863.0567880372 L -9877.587917221947 -230155.16935392053 "  ID_2="8" _id="177" NAME_1="Macedonia and Thrace" ID_0="89" CCN_3="0" CCA_3="0" NAME_0="Greece" NAME_2="Central Macedonia" ISO="GRC" NL_title="Κατερίνης" id="Katerini" title="Katerini" ENGTYPE_3="Municipality" ID_1="6"/>
    <path d="M -6794.166691323356 -236819.13330713636 L -6794.166691323356 -236819.13330713636 L -6547.751053560752 -237027.39091791658 L -6448.711421572062 -238057.23621811008 L -5887.1306425067605 -238144.38362394026 L -5892.513556860685 -237179.27282602442 L -5272.619536777029 -237097.72489763203 L -4523.705348732809 -236596.4939146202 L -4129.893731488721 -236426.35876618224 L -3986.5823753288287 -235782.81533153684 L -4419.69226340812 -235427.3983591194 L -5084.137639577735 -235359.9653798636 L -5425.148759259646 -234515.4084965042 L -6274.720449654769 -234513.87766550478 L -6840.28598350051 -234339.58107408782 L -6890.200280231623 -234768.48811669493 L -6737.451346958462 -234874.84645800042 L -6728.243467489814 -235943.52356403062 L -7102.840377468994 -236301.4619424427 L -6794.166691323356 -236819.13330713636 "  ID_2="8" _id="178" NAME_1="Macedonia and Thrace" ID_0="89" CCN_3="0" CCA_3="0" NAME_0="Greece" NAME_2="Central Macedonia" ISO="GRC" NL_title="Κιλκίς" id="Kilkis" title="Kilkis" ENGTYPE_3="Municipality" ID_1="6"/>
    <path d="M -5656.963616345601 -233394.54391362527 L -5656.963616345601 -233394.54391362527 L -5944.884619696483 -233498.89916697153 L -5820.618194282323 -233648.9825896137 L -5626.913172395421 -233591.6880377584 L -5656.963616345601 -233394.54391362527 "  ID_2="8" _id="179" NAME_1="Macedonia and Thrace" ID_0="89" CCN_3="0" CCA_3="0" NAME_0="Greece" NAME_2="Central Macedonia" ISO="GRC" NL_title="Κορδελιού - Ευόσμου" title="Kordelio-Evosmos" ENGTYPE_3="Municipality" ID_1="6"/>
    <path d="M -3103.874303070403 -232884.95695924095 L -3103.874303070403 -232884.95695924095 L -3941.2720183321812 -232312.30778624915 L -4008.8530599443116 -232722.08165031995 L -4379.425267726694 -232802.14474327178 L -4397.960868913048 -233218.48651832005 L -5371.938800679576 -233727.7577823143 L -5401.739573278163 -233755.7143629831 L -5099.297684082715 -234238.38483361359 L -5425.148759259646 -234515.4084965042 L -5084.137639577735 -235359.9653798636 L -4419.69226340812 -235427.3983591194 L -3986.5823753288287 -235782.81533153684 L -3683.4414063478202 -235407.08808703418 L -3317.8326650476597 -234753.46207076465 L -2920.935109890432 -234552.7306803675 L -2853.29414715349 -234311.80001062 L -3362.6936136100403 -233866.02900893422 L -3974.777913796751 -233965.1397443338 L -4276.650552308892 -233539.4574278878 L -3631.559699361414 -232993.511083973 L -3103.874303070403 -232884.95695924095 "  ID_2="8" _id="180" NAME_1="Macedonia and Thrace" ID_0="89" CCN_3="0" CCA_3="0" NAME_0="Greece" NAME_2="Central Macedonia" ISO="GRC" NL_title="Λαγκαδά" id="Langadas" title="Langadas" ENGTYPE_3="Municipality" ID_1="6"/>
    <path d="M -10855.250998147138 -232300.3824090437 L -10855.250998147138 -232300.3824090437 L -11027.194664976452 -232580.99933432508 L -10971.188387252096 -233535.40144096437 L -10002.593369838925 -233861.2321696639 L -9405.019968642087 -233673.720235738 L -8848.472564037012 -233249.0179655278 L -8925.920617487593 -233215.38084655907 L -9468.216781309946 -233178.8512959006 L -9775.891782045914 -232815.50309140864 L -10642.52101922299 -232642.16388125005 L -10855.250998147138 -232300.3824090437 "  ID_2="8" _id="181" NAME_1="Macedonia and Thrace" ID_0="89" CCN_3="0" CCA_3="0" NAME_0="Greece" NAME_2="Central Macedonia" ISO="GRC" NL_title="Νάουσας" id="Naousa" title="Naousa" ENGTYPE_3="Municipality" ID_1="6"/>
    <path d="M -3328.268927569716 -230606.71571773425 L -3328.268927569716 -230606.71571773425 L -3504.476981094212 -230311.7038601329 L -3537.902981726665 -230202.41703235588 L -3692.1000088416645 -230486.68429399733 L -5143.629329379046 -231113.9012609738 L -5197.348617517295 -231265.04605935552 L -5106.667982400088 -231421.14275306603 L -4651.856660387721 -231400.4316849658 L -4321.141987270039 -231751.6227026109 L -4170.1107929005775 -231389.68326782025 L -3527.097205603358 -231397.52172301753 L -3328.268927569716 -230606.71571773425 "  ID_2="8" _id="182" NAME_1="Macedonia and Thrace" ID_0="89" CCN_3="0" CCA_3="0" NAME_0="Greece" NAME_2="Central Macedonia" ISO="GRC" NL_title="Καλλικράτειας - Μουδανιών" id="Nea Propontida" title="Nea Propontida" ENGTYPE_3="Municipality" ID_1="6"/>
    <path d="M -942.3795254324075 -234928.44435304412 L -942.3795254324075 -234928.44435304412 L -1376.3083355471995 -235282.89239396586 L -1386.7445980689397 -235863.59916488949 L -909.0134459247834 -236676.59975267856 L -410.9590457122669 -236353.3722583489 L -114.39941357511141 -236520.72318541762 L 183.9278917352638 -236083.39180004972 L -617.3973065611127 -235492.61946712615 L -551.6538461011245 -235126.14243244287 L -942.3795254324075 -234928.44435304412 "  ID_2="8" _id="183" NAME_1="Macedonia and Thrace" ID_0="89" CCN_3="0" CCA_3="0" NAME_0="Greece" NAME_2="Central Macedonia" ISO="GRC" NL_title="Νέας Ζίχνης" id="Nea Zichni" title="Nea Zichni" ENGTYPE_3="Municipality" ID_1="6"/>
    <path d="M -5346.482309610367 -233247.70191313987 L -5346.482309610367 -233247.70191313987 L -5584.469042522283 -233336.17532483058 L -5589.861943730284 -233362.10723060934 L -5336.095981358762 -233470.27350687323 L -5346.482309610367 -233247.70191313987 "  ID_2="8" _id="184" NAME_1="Macedonia and Thrace" ID_0="89" CCN_3="0" CCA_3="0" NAME_0="Greece" NAME_2="Central Macedonia" ISO="GRC" NL_title="Νεάπολης - Συκεών" title="Neapoli-Sykies" ENGTYPE_3="Municipality" ID_1="6"/>
    <path d="M -5626.913172395421 -233591.6880377584 L -5626.913172395421 -233591.6880377584 L -5820.618194282323 -233648.9825896137 L -6213.441112971735 -233862.28641576253 L -6274.720449654769 -234513.87766550478 L -5425.148759259646 -234515.4084965042 L -5099.297684082715 -234238.38483361359 L -5401.739573278163 -233755.7143629831 L -5626.913172395421 -233591.6880377584 "  ID_2="8" _id="185" NAME_1="Macedonia and Thrace" ID_0="89" CCN_3="0" CCA_3="0" NAME_0="Greece" NAME_2="Central Macedonia" ISO="GRC" NL_title="Ωραιοκάστρου" id="Oraiokastro" title="Oraiokastro" ENGTYPE_3="Municipality" ID_1="6"/>
    <path d="M -6890.200280231623 -234768.48811669493 L -6890.200280231623 -234768.48811669493 L -7131.602517241537 -234635.0138553867 L -8588.714489213717 -235127.51673525758 L -9077.111601523353 -235441.57377051056 L -8875.686741426282 -235853.59305320174 L -8794.833170731465 -236774.06624464307 L -8009.087464811454 -236591.90701508208 L -7368.410801371694 -236590.1571118063 L -6794.166691323356 -236819.13330713636 L -7102.840377468994 -236301.4619424427 L -6728.243467489814 -235943.52356403062 L -6737.451346958462 -234874.84645800042 L -6890.200280231623 -234768.48811669493 "  ID_2="8" _id="186" NAME_1="Macedonia and Thrace" ID_0="89" CCN_3="0" CCA_3="0" NAME_0="Greece" NAME_2="Central Macedonia" ISO="GRC" NL_title="Παιονίας" id="Paionia" title="Paionia" ENGTYPE_3="Municipality" ID_1="6"/>
    <path d="M -5656.963616345601 -233394.54391362527 L -5656.963616345601 -233394.54391362527 L -5626.913172395421 -233591.6880377584 L -5401.739573278163 -233755.7143629831 L -5371.938800679576 -233727.7577823143 L -5336.095981358762 -233470.27350687323 L -5589.861943730284 -233362.10723060934 L -5656.963616345601 -233394.54391362527 "  ID_2="8" _id="187" NAME_1="Macedonia and Thrace" ID_0="89" CCN_3="0" CCA_3="0" NAME_0="Greece" NAME_2="Central Macedonia" ISO="GRC" NL_title="Παύλου Μελά" id="Pavlos Melas" title="Pavlos Melas" ENGTYPE_3="Municipality" ID_1="6"/>
    <path d="M -9405.019968642087 -233673.720235738 L -9405.019968642087 -233673.720235738 L -9163.86740298435 -234439.9815517528 L -9344.979001865939 -235048.1310779018 L -9077.111601523353 -235441.57377051056 L -8588.714489213717 -235127.51673525758 L -7131.602517241537 -234635.0138553867 L -7753.473934435196 -234380.50382165294 L -7536.549476794141 -233840.3058847771 L -7907.65098784229 -233740.457922196 L -8602.486361000789 -233513.96324669066 L -8848.472564037012 -233249.0179655278 L -9405.019968642087 -233673.720235738 "  ID_2="8" _id="188" NAME_1="Macedonia and Thrace" ID_0="89" CCN_3="0" CCA_3="0" NAME_0="Greece" NAME_2="Central Macedonia" ISO="GRC" NL_title="Αρχαίας Πέλλας" id="Pella" title="Pella" ENGTYPE_3="Municipality" ID_1="6"/>
    <path d="M -3328.268927569716 -230606.71571773425 L -3328.268927569716 -230606.71571773425 L -3527.097205603358 -231397.52172301753 L -4170.1107929005775 -231389.68326782025 L -4321.141987270039 -231751.6227026109 L -4411.353240245092 -232154.36090292572 L -3941.2720183321812 -232312.30778624915 L -3103.874303070403 -232884.95695924095 L -2582.710322499282 -232754.84142021273 L -2472.0160317901696 -232123.08783567234 L -2128.4782380237175 -231956.78007481154 L -2043.2803858013215 -231494.16321115376 L -1611.1991436921824 -231225.44701690596 L -2070.4046815028796 -230427.81821768606 L -3133.5951808365735 -230785.89162785007 L -3328.268927569716 -230606.71571773425 "  ID_2="8" _id="189" NAME_1="Macedonia and Thrace" ID_0="89" CCN_3="0" CCA_3="0" NAME_0="Greece" NAME_2="Central Macedonia" ISO="GRC" NL_title="Πολυγύρου" id="Polygyros" title="Polygyros" ENGTYPE_3="Municipality" ID_1="6"/>
    <path d="M -8833.622112008155 -231478.29961919817 L -8833.622112008155 -231478.29961919817 L -8394.659927433135 -231951.58310088734 L -8217.213504001453 -232465.18477208857 L -7774.356446331887 -232627.5488390298 L -6983.557392243744 -232214.12959533226 L -7377.678601965171 -232095.57138723732 L -7128.956000907988 -231159.5434722305 L -7725.900230298172 -231562.2910625411 L -8833.622112008155 -231478.29961919817 "  ID_2="8" _id="190" NAME_1="Macedonia and Thrace" ID_0="89" CCN_3="0" CCA_3="0" NAME_0="Greece" NAME_2="Central Macedonia" ISO="GRC" NL_title="Πύδνας - Κολινδρού" title="Pydna-Kolindros" ENGTYPE_3="Municipality" ID_1="6"/>
    <path d="M -5410.108557003723 -232715.43007104716 L -5410.108557003723 -232715.43007104716 L -5397.754818497108 -232891.29537563506 L -5346.482309610367 -233247.70191313987 L -5336.095981358762 -233470.27350687323 L -5371.938800679576 -233727.7577823143 L -4397.960868913048 -233218.48651832005 L -4379.425267726694 -232802.14474327178 L -4922.959801455051 -232886.14047435942 L -5353.073633308014 -232569.9606147933 L -5410.108557003723 -232715.43007104716 "  ID_2="8" _id="191" NAME_1="Macedonia and Thrace" ID_0="89" CCN_3="0" CCA_3="0" NAME_0="Greece" NAME_2="Central Macedonia" ISO="GRC" NL_title="Πυλαίας - Χορτιάτη" title="Pylaia-Chortiatis" ENGTYPE_3="Municipality" ID_1="6"/>
    <path d="M -3108.7279141573777 -235862.7256067304 L -3108.7279141573777 -235862.7256067304 L -3674.802777562197 -236300.16359774672 L -2965.905913848077 -236555.05440940926 L -2752.536776261999 -237183.49396586086 L -2006.6585918604828 -237581.7845432963 L -1821.132803471759 -237927.79625263432 L -1468.6667621514493 -237742.7295022708 L -1433.562970032537 -237228.8405018883 L -1392.3372363577992 -237049.36580259472 L -1796.8447743299475 -236442.73860565445 L -2360.8323852307158 -235998.75607484416 L -2222.5444166772913 -235439.77537310767 L -2781.8781535719427 -235496.2960350278 L -3108.7279141573777 -235862.7256067304 "  ID_2="8" _id="192" NAME_1="Macedonia and Thrace" ID_0="89" CCN_3="0" CCA_3="0" NAME_0="Greece" NAME_2="Central Macedonia" ISO="GRC" NL_title="Σερρών" id="Serres" title="Serres" ENGTYPE_3="Municipality" ID_1="6"/>
    <path d="M -2752.536776261999 -237183.49396586086 L -2752.536776261999 -237183.49396586086 L -3251.8894675056476 -236781.65226587848 L -3513.2354521297925 -237401.53320795725 L -4020.9970745153755 -237215.22013691443 L -4485.445710722768 -237333.32995244692 L -4523.705348732809 -236596.4939146202 L -5272.619536777029 -237097.72489763203 L -5892.513556860685 -237179.27282602442 L -5887.1306425067605 -238144.38362394026 L -4922.670182686534 -237991.08877253399 L -4268.211660604693 -238003.74833454436 L -3820.251320496576 -238537.36651338974 L -3393.772703531273 -238393.30869701065 L -2986.059385396961 -238585.2450477783 L -2062.6748564395334 -238379.60016253917 L -1821.132803471759 -237927.79625263432 L -2006.6585918604828 -237581.7845432963 L -2752.536776261999 -237183.49396586086 "  ID_2="8" _id="193" NAME_1="Macedonia and Thrace" ID_0="89" CCN_3="0" CCA_3="0" NAME_0="Greece" NAME_2="Central Macedonia" ISO="GRC" NL_title="Σιντικής" id="Sintiki" title="Sintiki" ENGTYPE_3="Municipality" ID_1="6"/>
    <path d="M -2070.4046815028796 -230427.81821768606 L -2070.4046815028796 -230427.81821768606 L -1611.1991436921824 -231225.44701690596 L -1533.7111428252615 -231144.11055692326 L -1602.0511853477637 -230862.18999721832 L -1126.467206832771 -230160.99988129272 L -122.88823954974548 -229736.63436015605 L 112.73160894336165 -228932.7128061353 L -256.7120843262161 -228448.73684631454 L -978.1324630664278 -229042.84967838522 L -1245.7302183492668 -229753.74470670574 L -1827.5243900885473 -230412.38345882823 L -2070.4046815028796 -230427.81821768606 "  ID_2="8" _id="194" NAME_1="Macedonia and Thrace" ID_0="89" CCN_3="0" CCA_3="0" NAME_0="Greece" NAME_2="Central Macedonia" ISO="GRC" NL_title="Σιθωνίας" id="Sithonia" title="Sithonia" ENGTYPE_3="Municipality" ID_1="6"/>
    <path d="M -9405.019968642087 -233673.720235738 L -9405.019968642087 -233673.720235738 L -10002.593369838925 -233861.2321696639 L -9800.639206475786 -234363.51159970136 L -10085.074797750614 -234839.82233784132 L -9857.96374894003 -235148.42250374475 L -9344.979001865939 -235048.1310779018 L -9163.86740298435 -234439.9815517528 L -9405.019968642087 -233673.720235738 "  ID_2="8" _id="195" NAME_1="Macedonia and Thrace" ID_0="89" CCN_3="0" CCA_3="0" NAME_0="Greece" NAME_2="Central Macedonia" ISO="GRC" NL_title="Σκύδρας" id="Skydra" title="Skydra" ENGTYPE_3="Municipality" ID_1="6"/>
    <path d="M -5106.667982400088 -231421.14275306603 L -5106.667982400088 -231421.14275306603 L -5197.348617517295 -231265.04605935552 L -5703.622198643498 -231480.39725307102 L -6134.1055440988775 -232351.84235117256 L -5367.7942562337375 -232546.99041135158 L -5582.461684850931 -232377.27235140433 L -5429.2733299976135 -231604.09579280703 L -5106.667982400088 -231421.14275306603 "  ID_2="8" _id="196" NAME_1="Macedonia and Thrace" ID_0="89" CCN_3="0" CCA_3="0" NAME_0="Greece" NAME_2="Central Macedonia" ISO="GRC" NL_title="Θερμαϊκού" id="Thermaikos" title="Thermaikos" ENGTYPE_3="Municipality" ID_1="6"/>
    <path d="M -4321.141987270039 -231751.6227026109 L -4321.141987270039 -231751.6227026109 L -4651.856660387721 -231400.4316849658 L -5106.667982400088 -231421.14275306603 L -5429.2733299976135 -231604.09579280703 L -5582.461684850931 -232377.27235140433 L -5367.7942562337375 -232546.99041135158 L -5353.073633308014 -232569.9606147933 L -4922.959801455051 -232886.14047435942 L -4379.425267726694 -232802.14474327178 L -4008.8530599443116 -232722.08165031995 L -3941.2720183321812 -232312.30778624915 L -4411.353240245092 -232154.36090292572 L -4321.141987270039 -231751.6227026109 "  ID_2="8" _id="197" NAME_1="Macedonia and Thrace" ID_0="89" CCN_3="0" CCA_3="0" NAME_0="Greece" NAME_2="Central Macedonia" ISO="GRC" NL_title="Θέρμης" id="Thermi" title="Thermi" ENGTYPE_3="Municipality" ID_1="6"/>
    <path d="M -5397.754818497108 -232891.29537563506 L -5397.754818497108 -232891.29537563506 L -5514.521116491361 -232954.15824686512 L -5767.488130535236 -233284.36853962098 L -5584.469042522283 -233336.17532483058 L -5346.482309610367 -233247.70191313987 L -5397.754818497108 -232891.29537563506 "  ID_2="8" _id="198" NAME_1="Macedonia and Thrace" ID_0="89" CCN_3="0" CCA_3="0" NAME_0="Greece" NAME_2="Central Macedonia" ISO="GRC" NL_title="Θεσσαλονίκης" id="Thessaloniki" title="Thessaloniki" ENGTYPE_3="Municipality" ID_1="6"/>
    <path d="M -9814.161406910649 -231120.4774448408 L -9814.161406910649 -231120.4774448408 L -9926.393673149025 -231803.17902299453 L -10857.438119192675 -232206.98635714644 L -10855.250998147138 -232300.3824090437 L -10642.52101922299 -232642.16388125005 L -9775.891782045914 -232815.50309140864 L -9468.216781309946 -233178.8512959006 L -8925.920617487593 -233215.38084655907 L -8394.659927433135 -231951.58310088734 L -8833.622112008155 -231478.29961919817 L -9516.483247115382 -230922.76108949733 L -9814.161406910649 -231120.4774448408 "  ID_2="8" _id="199" NAME_1="Macedonia and Thrace" ID_0="89" CCN_3="0" CCA_3="0" NAME_0="Greece" NAME_2="Central Macedonia" ISO="GRC" NL_title="Βέροιας" id="Veria" title="Veria" ENGTYPE_3="Municipality" ID_1="6"/>
    <path d="M -2920.935109890432 -234552.7306803675 L -2920.935109890432 -234552.7306803675 L -3317.8326650476597 -234753.46207076465 L -3683.4414063478202 -235407.08808703418 L -3108.7279141573777 -235862.7256067304 L -2781.8781535719427 -235496.2960350278 L -2222.5444166772913 -235439.77537310767 L -1376.3083355471995 -235282.89239396586 L -942.3795254324075 -234928.44435304412 L -898.8468284636897 -234551.88601463079 L -1622.0948015022664 -234241.0753731412 L -2196.5686091940274 -234264.39404262602 L -2571.6548750238153 -234642.45887446933 L -2920.935109890432 -234552.7306803675 "  ID_2="8" _id="200" NAME_1="Macedonia and Thrace" ID_0="89" CCN_3="0" CCA_3="0" NAME_0="Greece" NAME_2="Central Macedonia" ISO="GRC" NL_title="Βισαλτίας" id="Visaltia" title="Visaltia" ENGTYPE_3="Municipality" ID_1="6"/>
    <path d="M -1068.2937817713623 -232922.22599352844 L -1068.2937817713623 -232922.22599352844 L -1263.2671341280154 -233211.3277132109 L -1854.7485543315756 -233180.7461293228 L -2397.8037190631517 -233012.60999511607 L -2582.710322499282 -232754.84142021273 L -3103.874303070403 -232884.95695924095 L -3631.559699361414 -232993.511083973 L -4276.650552308892 -233539.4574278878 L -3974.777913796751 -233965.1397443338 L -3362.6936136100403 -233866.02900893422 L -2853.29414715349 -234311.80001062 L -2920.935109890432 -234552.7306803675 L -2571.6548750238153 -234642.45887446933 L -2196.5686091940274 -234264.39404262602 L -1622.0948015022664 -234241.0753731412 L -1244.2721376524357 -234068.14793182327 L -1593.3526354372784 -233455.0001938774 L -1346.0681413690556 -233370.6374355508 L -1068.2937817713623 -232922.22599352844 "  ID_2="8" _id="201" NAME_1="Macedonia and Thrace" ID_0="89" CCN_3="0" CCA_3="0" NAME_0="Greece" NAME_2="Central Macedonia" ISO="GRC" NL_title="Βόλβης" id="Volvi" title="Volvi" ENGTYPE_3="Municipality" ID_1="6"/>
  </g>
</svg>