<?xml version="1.0" encoding="utf-8"?>
<!-- (c) ammap.com | SVG map of Afghanistan - Low -->
<svg xmlns="http://www.w3.org/2000/svg" xmlns:amcharts="http://amcharts.com/ammap" xmlns:xlink="http://www.w3.org/1999/xlink" version="1.1">
    <defs>
        <style type="text/css">
            .land
            {
                fill: #CCCCCC;
                fill-opacity: 1;
                stroke:white;
                stroke-opacity: 1;
                stroke-width:0.5;
            }
        </style>

    <amcharts:ammap projection="mercator" leftLongitude="23.016357" topLatitude="35.619175" rightLongitude="26.49353" bottomLatitude="34.800800"></amcharts:ammap>

        <!-- All areas are listed in the line below. You can use this list in your script. -->      <!--{id:"AF-PIA"},{id:"AF-WAR"},{id:"AF-SAM"},{id:"AF-PAR"},{id:"AF-LOG"},{id:"AF-LAG"},{id:"AF-PAN"},{id:"AF-KAP"},{id:"AF-KAB"},{id:"AF-BGL"},{id:"AF-TAK"},{id:"AF-NAN"},{id:"AF-KDZ"},{id:"AF-KNR"},{id:"AF-NUR"},{id:"AF-BDS"},{id:"AF-PKA"},,{id:"AF-KHO"},{id:"AF-GHA"},{id:"AF-ZAB"},{id:"AF-KAN"},{id:"AF-DAY"},{id:"AF-URU"},{id:"AF-NIM"},{id:"AF-HEL"},{id:"AF-FRA"},{id:"AF-SAR"},{id:"AF-GHO"},{id:"AF-JOW"},{id:"AF-FYB"},{id:"AF-BAL"},{id:"AF-BAM"},{id:"AF-HER"},{id:"AF-BDG"}-->


    </defs>
    <g>
    <path d="M 1497.858336650687 -196966.3144762542 L 1497.858336650687 -196966.3144762542 L 1586.2919295978272 -197359.85129168822 L 2490.7913174749388 -197449.99672200813 L 2873.507539828385 -197635.42361589658 L 3026.4062759119524 -197083.7405830254 L 3607.9008420280556 -196834.6723146718 L 3781.4623792198686 -196548.2431931475 L 3774.3217785477013 -196441.67838026423 L 2931.4113198288305 -196511.0345859536 L 2013.6593765766374 -197092.68609221725 L 1497.858336650687 -196966.3144762542 "  ID_2="5" _id="111" NAME_1="Crete" ID_0="89" CCN_3="0" CCA_3="0" NAME_0="Greece" NAME_2="Crete" ISO="GRC" NL_title="Αγίου Βασιλείου" id="Agios Vasileios" title="Agios Vasileios" ENGTYPE_3="Municipality" ID_1="4"/>
    <path d="M 3781.4623792198686 -196548.2431931475 L 3781.4623792198686 -196548.2431931475 L 3607.9008420280556 -196834.6723146718 L 3026.4062759119524 -197083.7405830254 L 2873.507539828385 -197635.42361589658 L 3693.807760891571 -197563.42217569365 L 4153.5126414066535 -197254.24498755133 L 4138.362583755467 -196652.4853746296 L 3781.4623792198686 -196548.2431931475 "  ID_2="5" _id="112" NAME_1="Crete" ID_0="89" CCN_3="0" CCA_3="0" NAME_0="Greece" NAME_2="Crete" ISO="GRC" NL_title="Αμάριου" id="Amari" title="Amari" ENGTYPE_3="Municipality" ID_1="4"/>
    <path d="M 4718.209318947358 -197170.53806641416 L 4718.209318947358 -197170.53806641416 L 4726.428499861329 -197087.43119797073 L 4253.660814199378 -197237.88880905756 L 4570.783378903309 -197861.5725547093 L 4832.678640501992 -197730.31537489675 L 4718.209318947358 -197170.53806641416 "  ID_2="5" _id="113" NAME_1="Crete" ID_0="89" CCN_3="0" CCA_3="0" NAME_0="Greece" NAME_2="Crete" ISO="GRC" NL_title="Ανωγείων" id="Anogeia" title="Anogeia" ENGTYPE_3="Municipality" ID_1="4"/>
    <path d="M 1061.4927341378643 -198746.95141902706 L 1061.4927341378643 -198746.95141902706 L 1476.9658378990025 -198124.16207312638 L 1899.18006816851 -198108.1213251154 L 1406.089134437316 -197429.57445340164 L 910.0920261674694 -197835.01495567014 L 219.36125003848562 -198060.76115711112 L 621.8214829226076 -198752.66450376078 L 1061.4927341378643 -198746.95141902706 "  ID_2="5" _id="114" NAME_1="Crete" ID_0="89" CCN_3="0" CCA_3="0" NAME_0="Greece" NAME_2="Crete" ISO="GRC" NL_title="Αποκορώνου" id="Apokoronas" title="Apokoronas" ENGTYPE_3="Municipality" ID_1="4"/>
    <path d="M 6715.83979471308 -195747.11096333183 L 6715.83979471308 -195747.11096333183 L 5769.485501353711 -195432.99003856114 L 5666.94048357963 -196822.4333361701 L 5969.721925814048 -197465.08770425178 L 6268.298902476616 -197562.4436315786 L 6433.022073801031 -197320.11498413162 L 6177.778057025124 -196903.98309216902 L 6396.380306152621 -196110.40444385825 L 6715.83979471308 -195747.11096333183 "  ID_2="5" _id="115" NAME_1="Crete" ID_0="89" CCN_3="0" CCA_3="0" NAME_0="Greece" NAME_2="Crete" ISO="GRC" NL_title="Αρχανών - Αστερουσίων" title="Archanes-Asterousia" ENGTYPE_3="Municipality" ID_1="4"/>
    <path d="M 1061.4927341378643 -198746.95141902706 L 1061.4927341378643 -198746.95141902706 L 621.8214829226076 -198752.66450376078 L 219.36125003848562 -198060.76115711112 L -138.91714036124435 -197987.57445050875 L -130.84776225831263 -199134.50540670782 L 247.97358700030526 -199209.5724036237 L 367.246585370562 -199601.08420490267 L 924.3133063876086 -199610.02417043786 L 870.484162854962 -199021.9376305647 L 1061.4927341378643 -198746.95141902706 "  ID_2="5" _id="116" NAME_1="Crete" ID_0="89" CCN_3="0" CCA_3="0" NAME_0="Greece" NAME_2="Crete" ISO="GRC" NL_title="Χανίων" id="Chania" title="Chania" ENGTYPE_3="Municipality" ID_1="4"/>
    <path d="M 7901.908546741826 -197803.2700050521 L 7901.908546741826 -197803.2700050521 L 7909.4086741614665 -197299.9667796396 L 7391.150868129931 -197147.43791390344 L 6883.898575302527 -197546.6403993262 L 6433.022073801031 -197320.11498413162 L 6268.298902476616 -197562.4436315786 L 6039.06065374532 -198056.45144961076 L 7233.678152873829 -198018.96340246956 L 7550.730809598821 -197719.52356097655 L 7901.908546741826 -197803.2700050521 "  ID_2="5" _id="117" NAME_1="Crete" ID_0="89" CCN_3="0" CCA_3="0" NAME_0="Greece" NAME_2="Crete" ISO="GRC" NL_title="Χερσονήσου" id="Chersonisos" title="Chersonisos" ENGTYPE_3="Municipality" ID_1="4"/>
    <path d="M 4688.348625224542 -195406.3852992524 L 4688.348625224542 -195406.3852992524 L 3913.1690109294236 -195464.90776309525 L 3948.093039675349 -196198.23562247402 L 3774.3217785477013 -196441.67838026423 L 3781.4623792198686 -196548.2431931475 L 4138.362583755467 -196652.4853746296 L 4153.5126414066535 -197254.24498755133 L 4253.660814199378 -197237.88880905756 L 4726.428499861329 -197087.43119797073 L 4960.2706883273895 -196395.10430721924 L 4740.420082438929 -195992.63624595126 L 4688.348625224542 -195406.3852992524 "  ID_2="5" _id="118" NAME_1="Crete" ID_0="89" CCN_3="0" CCA_3="0" NAME_0="Greece" NAME_2="Crete" ISO="GRC" NL_title="Φαιστού" id="Faistos" title="Faistos" ENGTYPE_3="Municipality" ID_1="4"/>
    <path d="M 343.9472547837441 -195037.51772186006 L 343.9472547837441 -195037.51772186006 L 643.6028116886982 -194952.46122064456 L 610.1368636398875 -194596.26946440162 L 271.2729175871231 -194814.19470547407 L 343.9472547837441 -195037.51772186006 "  ID_2="5" _id="119" NAME_1="Crete" ID_0="89" CCN_3="0" CCA_3="0" NAME_0="Greece" NAME_2="Crete" ISO="GRC" NL_title="Γαύδου" id="Gavdos" title="Gavdos" ENGTYPE_3="Municipality" ID_1="4"/>
    <path d="M 4688.348625224542 -195406.3852992524 L 4688.348625224542 -195406.3852992524 L 4740.420082438929 -195992.63624595126 L 4960.2706883273895 -196395.10430721924 L 4726.428499861329 -197087.43119797073 L 4718.209318947358 -197170.53806641416 L 4940.836270272536 -197033.1500224763 L 5666.94048357963 -196822.4333361701 L 5769.485501353711 -195432.99003856114 L 4688.348625224542 -195406.3852992524 "  ID_2="5" _id="120" NAME_1="Crete" ID_0="89" CCN_3="0" CCA_3="0" NAME_0="Greece" NAME_2="Crete" ISO="GRC" NL_title="Γόρτυνας" id="Gortyna" title="Gortyna" ENGTYPE_3="Municipality" ID_1="4"/>
    <path d="M 5666.94048357963 -196822.4333361701 L 5666.94048357963 -196822.4333361701 L 4940.836270272536 -197033.1500224763 L 5491.201812196955 -197494.90407713797 L 5944.245461035186 -198047.51381809823 L 6039.06065374532 -198056.45144961076 L 6268.298902476616 -197562.4436315786 L 5969.721925814048 -197465.08770425178 L 5666.94048357963 -196822.4333361701 "  ID_2="5" _id="121" NAME_1="Crete" ID_0="89" CCN_3="0" CCA_3="0" NAME_0="Greece" NAME_2="Crete" ISO="GRC" NL_title="Ηρακλείου" id="Heraklion" title="Heraklion" ENGTYPE_3="Municipality" ID_1="4"/>
    <path d="M 8108.8361634412795 -195779.0722248935 L 8108.8361634412795 -195779.0722248935 L 7697.487630419292 -196398.1798253817 L 7961.809697561045 -196592.68214678508 L 8844.497796110401 -196358.61442317904 L 9282.401374152705 -196626.57549841187 L 9839.1784764012 -196872.02618443972 L 10734.489958518418 -196392.22407648357 L 10889.416025982408 -195974.4172317355 L 10049.471662928234 -196056.0784918281 L 9504.049613776666 -195848.2917493243 L 8868.456259067303 -195942.4440308253 L 8108.8361634412795 -195779.0722248935 "  ID_2="5" _id="122" NAME_1="Crete" ID_0="89" CCN_3="0" CCA_3="0" NAME_0="Greece" NAME_2="Crete" ISO="GRC" NL_title="Ιεράπετρας" id="Ierapetra" title="Ierapetra" ENGTYPE_3="Municipality" ID_1="4"/>
    <path d="M -701.1370780878934 -197361.53862364494 L -701.1370780878934 -197361.53862364494 L -2175.136820321616 -197341.92678442877 L -2401.269157432501 -197584.11881544103 L -2250.1081339590223 -197869.50338235393 L -1664.678747332332 -197992.88742349594 L -1435.670196245359 -198399.2585609206 L -688.6634973319373 -198043.840863503 L -533.3079951418517 -197727.64798959112 L -701.1370780878934 -197361.53862364494 "  ID_2="5" _id="123" NAME_1="Crete" ID_0="89" CCN_3="0" CCA_3="0" NAME_0="Greece" NAME_2="Crete" ISO="GRC" NL_title="Καντάνου - Σελίνου" title="Kantanos-Selino" ENGTYPE_3="Municipality" ID_1="4"/>
    <path d="M -1479.0530904021548 -199104.12833729747 L -1479.0530904021548 -199104.12833729747 L -1435.670196245359 -198399.2585609206 L -1664.678747332332 -197992.88742349594 L -2250.1081339590223 -197869.50338235393 L -2401.269157432501 -197584.11881544103 L -2467.4720131804993 -198170.54834172415 L -2263.8500451838127 -198588.04016005775 L -2199.844297335113 -199420.5006180675 L -1860.9703644276888 -199068.37990661708 L -1479.0530904021548 -199104.12833729747 "  ID_2="5" _id="124" NAME_1="Crete" ID_0="89" CCN_3="0" CCA_3="0" NAME_0="Greece" NAME_2="Crete" ISO="GRC" NL_title="Κισσάμου" id="Kissamos" title="Kissamos" ENGTYPE_3="Municipality" ID_1="4"/>
    <path d="M 4570.783378903309 -197861.5725547093 L 4570.783378903309 -197861.5725547093 L 4823.650524406614 -198440.08229337222 L 4843.803995955498 -198459.53963445514 L 4848.367988273905 -198464.58788018732 L 5460.701959812508 -198413.15199097616 L 5482.493275432393 -198059.97757126563 L 5944.245461035186 -198047.51381809823 L 5491.201812196955 -197494.90407713797 L 4940.836270272536 -197033.1500224763 L 4718.209318947358 -197170.53806641416 L 4832.678640501992 -197730.31537489675 L 4570.783378903309 -197861.5725547093 "  ID_2="5" _id="125" NAME_1="Crete" ID_0="89" CCN_3="0" CCA_3="0" NAME_0="Greece" NAME_2="Crete" ISO="GRC" NL_title="Μαλεβιζίου" id="Malevizi" title="Malevizi" ENGTYPE_3="Municipality" ID_1="4"/>
    <path d="M 7427.562938134036 -196670.1419468551 L 7427.562938134036 -196670.1419468551 L 7055.093228075531 -196418.6105132611 L 6849.583744656535 -195740.01685196324 L 6715.83979471308 -195747.11096333183 L 6396.380306152621 -196110.40444385825 L 6177.778057025124 -196903.98309216902 L 6433.022073801031 -197320.11498413162 L 6883.898575302527 -197546.6403993262 L 7391.150868129931 -197147.43791390344 L 7427.562938134036 -196670.1419468551 "  ID_2="5" _id="126" NAME_1="Crete" ID_0="89" CCN_3="0" CCA_3="0" NAME_0="Greece" NAME_2="Crete" ISO="GRC" NL_title="Μινώα Πεδιάδας" id="Minoa Pediada" title="Minoa Pediada" ENGTYPE_3="Municipality" ID_1="4"/>
    <path d="M 3693.807760891571 -197563.42217569365 L 3693.807760891571 -197563.42217569365 L 3421.4862236258246 -198037.30306868337 L 3373.749061085557 -198498.77511139002 L 3668.8605993799583 -198584.48593057296 L 4823.650524406614 -198440.08229337222 L 4570.783378903309 -197861.5725547093 L 4253.660814199378 -197237.88880905756 L 4153.5126414066535 -197254.24498755133 L 3693.807760891571 -197563.42217569365 "  ID_2="5" _id="127" NAME_1="Crete" ID_0="89" CCN_3="0" CCA_3="0" NAME_0="Greece" NAME_2="Crete" ISO="GRC" NL_title="Μυλοποτάμου" id="Mylopotamos" title="Mylopotamos" ENGTYPE_3="Municipality" ID_1="4"/>
    <path d="M 7961.809697561045 -196592.68214678508 L 7961.809697561045 -196592.68214678508 L 7697.487630419292 -196398.1798253817 L 7427.562938134036 -196670.1419468551 L 7391.150868129931 -197147.43791390344 L 7909.4086741614665 -197299.9667796396 L 7961.809697561045 -196592.68214678508 "  ID_2="5" _id="128" NAME_1="Crete" ID_0="89" CCN_3="0" CCA_3="0" NAME_0="Greece" NAME_2="Crete" ISO="GRC" NL_title="Οροπεδίου Λασιθίου" id="Oropedio Lasithiou" title="Oropedio Lasithiou" ENGTYPE_3="Municipality" ID_1="4"/>
    <path d="M -1435.670196245359 -198399.2585609206 L -1435.670196245359 -198399.2585609206 L -1479.0530904021548 -199104.12833729747 L -1529.346887588895 -200084.18737578852 L -1181.734457354644 -200143.2641442308 L -1157.007006633276 -199361.4821070069 L -130.84776225831263 -199134.50540670782 L -138.91714036124435 -197987.57445050875 L -533.3079951418517 -197727.64798959112 L -688.6634973319373 -198043.840863503 L -1435.670196245359 -198399.2585609206 "  ID_2="5" _id="129" NAME_1="Crete" ID_0="89" CCN_3="0" CCA_3="0" NAME_0="Greece" NAME_2="Crete" ISO="GRC" NL_title="Πλατανιά" id="Platanias" title="Platanias" ENGTYPE_3="Municipality" ID_1="4"/>
    <path d="M 1899.18006816851 -198108.1213251154 L 1899.18006816851 -198108.1213251154 L 2890.7148894210754 -198256.15586634204 L 3373.749061085557 -198498.77511139002 L 3421.4862236258246 -198037.30306868337 L 3693.807760891571 -197563.42217569365 L 2873.507539828385 -197635.42361589658 L 2490.7913174749388 -197449.99672200813 L 1586.2919295978272 -197359.85129168822 L 1406.089134437316 -197429.57445340164 L 1899.18006816851 -198108.1213251154 "  ID_2="5" _id="130" NAME_1="Crete" ID_0="89" CCN_3="0" CCA_3="0" NAME_0="Greece" NAME_2="Crete" ISO="GRC" NL_title="Ρεθύμνου" id="Rethymno" title="Rethymno" ENGTYPE_3="Municipality" ID_1="4"/>
    <path d="M -701.1370780878934 -197361.53862364494 L -701.1370780878934 -197361.53862364494 L -533.3079951418517 -197727.64798959112 L -138.91714036124435 -197987.57445050875 L 219.36125003848562 -198060.76115711112 L 910.0920261674694 -197835.01495567014 L 1406.089134437316 -197429.57445340164 L 1586.2919295978272 -197359.85129168822 L 1497.858336650687 -196966.3144762542 L 1052.2748678154226 -197133.627201396 L 213.07951881724406 -197087.33343299903 L -99.63884323394568 -197331.21639148917 L -701.1370780878934 -197361.53862364494 "  ID_2="5" _id="131" NAME_1="Crete" ID_0="89" CCN_3="0" CCA_3="0" NAME_0="Greece" NAME_2="Crete" ISO="GRC" NL_title="Σφακίων" id="Sfakia" title="Sfakia" ENGTYPE_3="Municipality" ID_1="4"/>
    <path d="M 10889.416025982408 -195974.4172317355 L 10889.416025982408 -195974.4172317355 L 10734.489958518418 -196392.22407648357 L 9839.1784764012 -196872.02618443972 L 10605.050342686183 -197322.31568481892 L 11309.00371362652 -197117.5925684159 L 11851.499614529748 -197557.40415856885 L 11896.580273882673 -196420.36802914873 L 11671.176977121078 -196063.20128552854 L 11074.841945830227 -195807.4757472871 L 10889.416025982408 -195974.4172317355 "  ID_2="5" _id="132" NAME_1="Crete" ID_0="89" CCN_3="0" CCA_3="0" NAME_0="Greece" NAME_2="Crete" ISO="GRC" NL_title="Σητείας" id="Sitia" title="Sitia" ENGTYPE_3="Municipality" ID_1="4"/>
    <path d="M 8108.8361634412795 -195779.0722248935 L 8108.8361634412795 -195779.0722248935 L 6849.583744656535 -195740.01685196324 L 7055.093228075531 -196418.6105132611 L 7427.562938134036 -196670.1419468551 L 7697.487630419292 -196398.1798253817 L 8108.8361634412795 -195779.0722248935 "  ID_2="5" _id="133" NAME_1="Crete" ID_0="89" CCN_3="0" CCA_3="0" NAME_0="Greece" NAME_2="Crete" ISO="GRC" NL_title="Βιάννου" id="Viannos" title="Viannos" ENGTYPE_3="Municipality" ID_1="4"/>
    <path d="M 9282.401374152705 -196626.57549841187 L 9282.401374152705 -196626.57549841187 L 8844.497796110401 -196358.61442317904 L 7961.809697561045 -196592.68214678508 L 7909.4086741614665 -197299.9667796396 L 7901.908546741826 -197803.2700050521 L 8698.28026541094 -198081.3796851499 L 9044.434614948394 -197796.14785024198 L 8952.815215546629 -196975.1846601602 L 9282.401374152705 -196626.57549841187 "  ID_2="5" _id="110" NAME_1="Crete" ID_0="89" CCN_3="0" CCA_3="0" NAME_0="Greece" NAME_2="Crete" ISO="GRC" NL_title="Αγίου Νικολάου" id="Agios Nikolaos" title="Agios Nikolaos" ENGTYPE_3="Municipality" ID_1="4"/>
</g>
</svg>