<?xml version="1.0" encoding="utf-8"?>
<!-- (c) ammap.com | SVG map of Afghanistan - Low -->
<svg xmlns="http://www.w3.org/2000/svg" xmlns:amcharts="http://amcharts.com/ammap" xmlns:xlink="http://www.w3.org/1999/xlink" version="1.1">
	<defs>
		<style type="text/css">
			.land
			{
				fill: #CCCCCC;
				fill-opacity: 1;
				stroke:white;
				stroke-opacity: 1;
				stroke-width:0.5;
			}
		</style>

	<amcharts:ammap projection="mercator" leftLongitude="24.345703" topLatitude="41.861379" rightLongitude="28.755341" bottomLatitude="40.261451"></amcharts:ammap>

		<!-- All areas are listed in the line below. You can use this list in your script. -->		<!--{id:"AF-PIA"},{id:"AF-WAR"},{id:"AF-SAM"},{id:"AF-PAR"},{id:"AF-LOG"},{id:"AF-LAG"},{id:"AF-PAN"},{id:"AF-KAP"},{id:"AF-KAB"},{id:"AF-BGL"},{id:"AF-TAK"},{id:"AF-NAN"},{id:"AF-KDZ"},{id:"AF-KNR"},{id:"AF-NUR"},{id:"AF-BDS"},{id:"AF-PKA"},,{id:"AF-KHO"},{id:"AF-GHA"},{id:"AF-ZAB"},{id:"AF-KAN"},{id:"AF-DAY"},{id:"AF-URU"},{id:"AF-NIM"},{id:"AF-HEL"},{id:"AF-FRA"},{id:"AF-SAR"},{id:"AF-GHO"},{id:"AF-JOW"},{id:"AF-FYB"},{id:"AF-BAL"},{id:"AF-BAM"},{id:"AF-HER"},{id:"AF-BDG"}-->


	</defs>
  <g>
              <path d="M 4873.085452141229 -235255.2656143381 L 4873.085452141229 -235255.2656143381 L 4575.217542118598 -236153.28900196988 L 4674.626687707622 -236540.81790494482 L 5483.511934549035 -236794.3312824426 L 6038.161836877121 -235732.37237853676 L 5977.012329297854 -235686.88321708323 L 5591.599656341573 -235786.8383039977 L 4873.085452141229 -235255.2656143381 "  ID_2="9" _id="202" NAME_1="Macedonia and Thrace" ID_0="89" CCN_3="0" CCA_3="0" NAME_0="Greece" NAME_2="East Macedonia and Thrace" ISO="GRC" NL_title="Αβδήρων" id="Abdera" title="Abdera" ENGTYPE_3="Municipality" ID_1="6"/>
    <path d="M 8538.081138988291 -234810.74325737034 L 8538.081138988291 -234810.74325737034 L 8471.049374351896 -235477.04066901968 L 9529.236459785829 -235723.745232351 L 9567.705821732587 -235957.47668898434 L 9845.929589764246 -236479.92673439448 L 10273.946182259348 -236496.78564426248 L 10794.640780688631 -235791.81413468925 L 12178.43925680226 -235686.30106981788 L 12309.336953331307 -235410.6846320527 L 11613.772539823836 -234896.40109271702 L 11167.390122661858 -234109.96946515804 L 10667.598009837753 -233982.6181355069 L 10210.919146110964 -234666.53721024457 L 8925.181590286007 -234706.90822093235 L 8538.081138988291 -234810.74325737034 "  ID_2="9" _id="203" NAME_1="Macedonia and Thrace" ID_0="89" CCN_3="0" CCA_3="0" NAME_0="Greece" NAME_2="East Macedonia and Thrace" ISO="GRC" NL_title="Αλεξανδρούπολης" id="Alexandroupoli" title="Alexandroupoli" ENGTYPE_3="Municipality" ID_1="6"/>
    <path d="M 8041.924241053028 -236265.66607675428 L 8041.924241053028 -236265.66607675428 L 7938.170813935208 -237224.37998662455 L 8298.496509422632 -237898.73251534387 L 8921.855967874453 -237841.35503972854 L 9490.297715698382 -238101.79209759753 L 10014.058278332916 -237903.3325988061 L 9907.638361173027 -237094.06195442536 L 10273.946182259348 -236496.78564426248 L 9845.929589764246 -236479.92673439448 L 9567.705821732587 -235957.47668898434 L 9248.945412958587 -236253.42564740533 L 8853.625780746315 -236114.61776177373 L 8458.216266848483 -236410.08552723666 L 8041.924241053028 -236265.66607675428 "  ID_2="9" _id="204" NAME_1="Macedonia and Thrace" ID_0="89" CCN_3="0" CCA_3="0" NAME_0="Greece" NAME_2="East Macedonia and Thrace" ISO="GRC" NL_title="Αρριανών" id="Arriana" title="Arriana" ENGTYPE_3="Municipality" ID_1="6"/>
    <path d="M 11102.555465923864 -238217.33854139358 L 11102.555465923864 -238217.33854139358 L 11446.492733853214 -238881.62925357293 L 11292.924878545751 -239131.17271830956 L 12202.267890656043 -239327.6629808733 L 13736.847889786657 -238673.47941180647 L 13753.545909821152 -238169.15292547125 L 13344.534300655425 -238167.26391933745 L 12939.60731481159 -237856.8818715796 L 12429.538729131462 -237868.95275457052 L 12001.322399555485 -238328.92210754828 L 11102.555465923864 -238217.33854139358 "  ID_2="9" _id="205" NAME_1="Macedonia and Thrace" ID_0="89" CCN_3="0" CCA_3="0" NAME_0="Greece" NAME_2="East Macedonia and Thrace" ISO="GRC" NL_title="Διδυμοτείχου" id="Didymoteicho" title="Didymoteicho" ENGTYPE_3="Municipality" ID_1="6"/>
    <path d="M 608.169453384877 -235783.29173432197 L 608.169453384877 -235783.29173432197 L 528.2945943909933 -235824.8994924095 L 603.146065778426 -236138.32337342022 L 1186.7178975444704 -236531.2476181161 L 1658.03748936455 -236792.71322932074 L 2194.061908819206 -236497.1567593482 L 1392.0875650065057 -235953.79641162837 L 1313.5409576056857 -235516.50446079645 L 608.169453384877 -235783.29173432197 "  ID_2="9" _id="206" NAME_1="Macedonia and Thrace" ID_0="89" CCN_3="0" CCA_3="0" NAME_0="Greece" NAME_2="East Macedonia and Thrace" ISO="GRC" NL_title="Δοξάτου" id="Doxato" title="Doxato" ENGTYPE_3="Municipality" ID_1="6"/>
    <path d="M 402.7398647986125 -237873.18029819956 L 402.7398647986125 -237873.18029819956 L 1094.2795761084035 -238815.52139825255 L 893.2841507373945 -239347.90888399293 L 1285.9572666152176 -239697.72718802316 L 1788.3559483562294 -239397.60721346267 L 1702.4290557848099 -238921.92220442122 L 1992.14769287151 -238603.19414334526 L 1672.5683620619936 -237991.72706133453 L 1186.7178975444704 -236531.2476181161 L 603.146065778426 -236138.32337342022 L 265.3207525508239 -236273.87953581818 L 402.7398647986125 -237873.18029819956 "  ID_2="9" _id="207" NAME_1="Macedonia and Thrace" ID_0="89" CCN_3="0" CCA_3="0" NAME_0="Greece" NAME_2="East Macedonia and Thrace" ISO="GRC" NL_title="Δράμας" id="Drama" title="Drama" ENGTYPE_3="Municipality" ID_1="6"/>
    <path d="M 6038.161836877121 -235732.37237853676 L 6038.161836877121 -235732.37237853676 L 5483.511934549035 -236794.3312824426 L 5721.908128478842 -237111.5806448927 L 6383.17768504884 -237566.58594815945 L 6909.6247114326825 -237430.2995610652 L 7373.084649085382 -237054.14309169777 L 7283.612423312829 -236687.1808209169 L 6774.941997204353 -236587.6383234198 L 6563.859849205267 -236045.78575643114 L 6038.161836877121 -235732.37237853676 "  ID_2="9" _id="208" NAME_1="Macedonia and Thrace" ID_0="89" CCN_3="0" CCA_3="0" NAME_0="Greece" NAME_2="East Macedonia and Thrace" ISO="GRC" NL_title="Ιάσμου" id="Iasmos" title="Iasmos" ENGTYPE_3="Municipality" ID_1="6"/>
    <path d="M 402.7398647986125 -237873.18029819956 L 402.7398647986125 -237873.18029819956 L -157.3129255909689 -237584.30883467034 L -936.0478599407307 -237577.90513333492 L -1433.562970032537 -237228.8405018883 L -1468.6667621514493 -237742.7295022708 L -1821.132803471759 -237927.79625263432 L -2062.6748564395334 -238379.60016253917 L -1748.758071897799 -238602.6348878071 L -360.97484100311436 -239016.29954702602 L 351.2176845599457 -239011.04844132462 L 517.9681872636011 -239581.21557418993 L 893.2841507373945 -239347.90888399293 L 1094.2795761084035 -238815.52139825255 L 402.7398647986125 -237873.18029819956 "  ID_2="9" _id="209" NAME_1="Macedonia and Thrace" ID_0="89" CCN_3="0" CCA_3="0" NAME_0="Greece" NAME_2="East Macedonia and Thrace" ISO="GRC" NL_title="Κάτω Νευροκοπίου" id="Kato Nevrokopi" title="Kato Nevrokopi" ENGTYPE_3="Municipality" ID_1="6"/>
    <path d="M 2858.2676004895056 -235449.71954135268 L 2858.2676004895056 -235449.71954135268 L 2080.5712989648728 -235307.18947529985 L 1779.9070697982534 -235045.43580100403 L 1760.4826385971771 -235389.0264536819 L 1313.5409576056857 -235516.50446079645 L 1392.0875650065057 -235953.79641162837 L 2194.061908819206 -236497.1567593482 L 2460.860715774099 -236702.96006290813 L 2858.2676004895056 -235449.71954135268 "  ID_2="9" _id="210" NAME_1="Macedonia and Thrace" ID_0="89" CCN_3="0" CCA_3="0" NAME_0="Greece" NAME_2="East Macedonia and Thrace" ISO="GRC" NL_title="Καβάλας" id="Kavala" title="Kavala" ENGTYPE_3="Municipality" ID_1="6"/>
    <path d="M 5975.57422230891 -235685.66600092052 L 5975.57422230891 -235685.66600092052 L 5976.722710529287 -235686.61860459798 L 5977.012329297854 -235686.88321708323 L 6038.161836877121 -235732.37237853676 L 6563.859849205267 -236045.78575643114 L 6774.941997204353 -236587.6383234198 L 7283.612423312829 -236687.1808209169 L 7373.084649085382 -237054.14309169777 L 6909.6247114326825 -237430.2995610652 L 8298.496509422632 -237898.73251534387 L 7938.170813935208 -237224.37998662455 L 8041.924241053028 -236265.66607675428 L 7779.8791766436225 -236169.0762849655 L 6880.0336627705465 -235378.44896122834 L 5900.652842942555 -235429.30249333353 L 5975.57422230891 -235685.66600092052 "  ID_2="9" _id="211" NAME_1="Macedonia and Thrace" ID_0="89" CCN_3="0" CCA_3="0" NAME_0="Greece" NAME_2="East Macedonia and Thrace" ISO="GRC" NL_title="Κομοτηνής" id="Komotini" title="Komotini" ENGTYPE_3="Municipality" ID_1="6"/>
    <path d="M 6880.0336627705465 -235378.44896122834 L 6880.0336627705465 -235378.44896122834 L 7779.8791766436225 -236169.0762849655 L 8041.924241053028 -236265.66607675428 L 8458.216266848483 -236410.08552723666 L 8853.625780746315 -236114.61776177373 L 9248.945412958587 -236253.42564740533 L 9567.705821732587 -235957.47668898434 L 9529.236459785829 -235723.745232351 L 8471.049374351896 -235477.04066901968 L 8538.081138988291 -234810.74325737034 L 8180.501828375003 -234766.50750250582 L 7222.0234941524905 -235130.10677869085 L 6880.0336627705465 -235378.44896122834 "  ID_2="9" _id="212" NAME_1="Macedonia and Thrace" ID_0="89" CCN_3="0" CCA_3="0" NAME_0="Greece" NAME_2="East Macedonia and Thrace" ISO="GRC" NL_title="Μαρώνειας - Σαπών" title="Maroneia-Sapes" ENGTYPE_3="Municipality" ID_1="6"/>
    <path d="M 3853.3477549441195 -238095.54071062742 L 3853.3477549441195 -238095.54071062742 L 4096.337901754016 -238248.3386173766 L 4247.9683073690485 -238515.50597090795 L 5412.175835800221 -238290.22534388342 L 6283.888381707975 -237770.71996685286 L 6383.17768504884 -237566.58594815945 L 5721.908128478842 -237111.5806448927 L 5513.871970976236 -237224.03482952583 L 4516.045431648386 -237001.14452797762 L 4028.417307103216 -237509.03782748125 L 3853.3477549441195 -238095.54071062742 "  ID_2="9" _id="213" NAME_1="Macedonia and Thrace" ID_0="89" CCN_3="0" CCA_3="0" NAME_0="Greece" NAME_2="East Macedonia and Thrace" ISO="GRC" NL_title="Μύκης" id="Myki" title="Myki" ENGTYPE_3="Municipality" ID_1="6"/>
    <path d="M 2858.2676004895056 -235449.71954135268 L 2858.2676004895056 -235449.71954135268 L 2460.860715774099 -236702.96006290813 L 2580.133714144356 -237121.7736475833 L 3608.480079565124 -236913.0218557749 L 3636.233547075118 -236550.9451306703 L 4045.8843149027757 -236340.25500558718 L 3828.2707643293725 -235875.1144057443 L 4246.92967454392 -234753.06596022152 L 3287.762247389908 -234810.74325737034 L 2858.2676004895056 -235449.71954135268 "  ID_2="9" _id="214" NAME_1="Macedonia and Thrace" ID_0="89" CCN_3="0" CCA_3="0" NAME_0="Greece" NAME_2="East Macedonia and Thrace" ISO="GRC" NL_title="Νέστου" id="Nestos" title="Nestos" ENGTYPE_3="Municipality" ID_1="6"/>
    <path d="M 13753.545909821152 -238169.15292547125 L 13753.545909821152 -238169.15292547125 L 13736.847889786657 -238673.47941180647 L 12202.267890656043 -239327.6629808733 L 11292.924878545751 -239131.17271830956 L 11262.425026161638 -239946.43911651644 L 10824.851014304193 -240278.67799457768 L 10781.99742341348 -240615.25429789338 L 11369.08462781901 -240975.6133838711 L 11969.70401951321 -240724.80873562503 L 12796.166129548881 -240605.89190520623 L 13593.336796544725 -240049.01857653228 L 13602.434820618992 -239508.89471069735 L 13832.29225430403 -238478.86995714455 L 13753.545909821152 -238169.15292547125 "  ID_2="9" _id="215" NAME_1="Macedonia and Thrace" ID_0="89" CCN_3="0" CCA_3="0" NAME_0="Greece" NAME_2="East Macedonia and Thrace" ISO="GRC" NL_title="Ορεστιάδας" id="Orestiada" title="Orestiada" ENGTYPE_3="Municipality" ID_1="6"/>
    <path d="M -681.403054409796 -234229.89127302333 L -681.403054409796 -234229.89127302333 L 588.705074767476 -235444.6151939624 L 608.169453384877 -235783.29173432197 L 1313.5409576056857 -235516.50446079645 L 1760.4826385971771 -235389.0264536819 L 1779.9070697982534 -235045.43580100403 L 1609.3316019786753 -234497.4083584232 L 713.4009349079984 -233930.7912377352 L 237.79698268453498 -233809.86695634163 L -681.403054409796 -234229.89127302333 "  ID_2="9" _id="216" NAME_1="Macedonia and Thrace" ID_0="89" CCN_3="0" CCA_3="0" NAME_0="Greece" NAME_2="East Macedonia and Thrace" ISO="GRC" NL_title="Παγγαίου" id="Pangaio" title="Pangaio" ENGTYPE_3="Municipality" ID_1="6"/>
    <path d="M 2580.133714144356 -237121.7736475833 L 2580.133714144356 -237121.7736475833 L 2460.860715774099 -236702.96006290813 L 2194.061908819206 -236497.1567593482 L 1658.03748936455 -236792.71322932074 L 1186.7178975444704 -236531.2476181161 L 1672.5683620619936 -237991.72706133453 L 1992.14769287151 -238603.19414334526 L 1702.4290557848099 -238921.92220442122 L 1788.3559483562294 -239397.60721346267 L 2285.651347658374 -239374.53135762888 L 2743.838226352413 -239706.4567582505 L 3165.0038369427148 -238750.32893747877 L 3814.5488268124527 -238632.67587590587 L 4096.337901754016 -238248.3386173766 L 3853.3477549441195 -238095.54071062742 L 3163.286098039897 -237812.5892630699 L 3025.2078534214243 -237412.5826723762 L 2580.133714144356 -237121.7736475833 "  ID_2="9" _id="217" NAME_1="Macedonia and Thrace" ID_0="89" CCN_3="0" CCA_3="0" NAME_0="Greece" NAME_2="East Macedonia and Thrace" ISO="GRC" NL_title="Παρανεστίου" id="Paranesti" title="Paranesti" ENGTYPE_3="Municipality" ID_1="6"/>
    <path d="M 603.146065778426 -236138.32337342022 L 603.146065778426 -236138.32337342022 L 528.2945943909933 -235824.8994924095 L 183.9278917352638 -236083.39180004972 L -114.39941357511141 -236520.72318541762 L -410.9590457122669 -236353.3722583489 L -909.0134459247834 -236676.59975267856 L -1392.3372363577992 -237049.36580259472 L -1433.562970032537 -237228.8405018883 L -936.0478599407307 -237577.90513333492 L -157.3129255909689 -237584.30883467034 L 402.7398647986125 -237873.18029819956 L 265.3207525508239 -236273.87953581818 L 603.146065778426 -236138.32337342022 "  ID_2="9" _id="218" NAME_1="Macedonia and Thrace" ID_0="89" CCN_3="0" CCA_3="0" NAME_0="Greece" NAME_2="East Macedonia and Thrace" ISO="GRC" NL_title="Προσοτσάνης" id="Prosotsani" title="Prosotsani" ENGTYPE_3="Municipality" ID_1="6"/>
    <path d="M 8288.120168024803 -231560.56020779564 L 8288.120168024803 -231560.56020779564 L 7636.527873067405 -232009.54054083515 L 8177.595653835468 -232376.69438130406 L 8677.917069926221 -232261.9553693613 L 8888.819454552022 -231770.67032277727 L 8288.120168024803 -231560.56020779564 "  ID_2="9" _id="219" NAME_1="Macedonia and Thrace" ID_0="89" CCN_3="0" CCA_3="0" NAME_0="Greece" NAME_2="East Macedonia and Thrace" ISO="GRC" NL_title="Σαμοθράκης" id="Samothrace" title="Samothrace" ENGTYPE_3="Municipality" ID_1="6"/>
    <path d="M 12178.43925680226 -235686.30106981788 L 12178.43925680226 -235686.30106981788 L 10794.640780688631 -235791.81413468925 L 10273.946182259348 -236496.78564426248 L 9907.638361173027 -237094.06195442536 L 10014.058278332916 -237903.3325988061 L 11102.555465923864 -238217.33854139358 L 12001.322399555485 -238328.92210754828 L 12429.538729131462 -237868.95275457052 L 12939.60731481159 -237856.8818715796 L 12165.606149299745 -237390.7496143214 L 12095.019064606593 -236575.76043508886 L 12178.43925680226 -235686.30106981788 "  ID_2="9" _id="220" NAME_1="Macedonia and Thrace" ID_0="89" CCN_3="0" CCA_3="0" NAME_0="Greece" NAME_2="East Macedonia and Thrace" ISO="GRC" NL_title="Σουφλίου" id="Soufli" title="Soufli" ENGTYPE_3="Municipality" ID_1="6"/>
    <path d="M 4033.890103143617 -233278.6301383729 L 4033.890103143617 -233278.6301383729 L 3408.4733527491085 -232809.24460454672 L 2762.7133805777858 -233131.0619629579 L 2793.243193524464 -233773.44830578179 L 3120.492428273097 -234205.3874395848 L 3745.929152375477 -234270.67234824132 L 4099.363918542926 -233581.59966683676 L 4033.890103143617 -233278.6301383729 "  ID_2="9" _id="221" NAME_1="Macedonia and Thrace" ID_0="89" CCN_3="0" CCA_3="0" NAME_0="Greece" NAME_2="East Macedonia and Thrace" ISO="GRC" NL_title="Θάσου" id="Thasos" title="Thasos" ENGTYPE_3="Municipality" ID_1="6"/>
    <path d="M 4873.085452141229 -235255.2656143381 L 4873.085452141229 -235255.2656143381 L 4246.92967454392 -234753.06596022152 L 3828.2707643293725 -235875.1144057443 L 4045.8843149027757 -236340.25500558718 L 3636.233547075118 -236550.9451306703 L 3608.480079565124 -236913.0218557749 L 4159.614609254591 -236746.13698151158 L 4575.217542118598 -236153.28900196988 L 4873.085452141229 -235255.2656143381 "  ID_2="9" _id="222" NAME_1="Macedonia and Thrace" ID_0="89" CCN_3="0" CCA_3="0" NAME_0="Greece" NAME_2="East Macedonia and Thrace" ISO="GRC" NL_title="Τοπείρου" id="Topeiros" title="Topeiros" ENGTYPE_3="Municipality" ID_1="6"/>
    <path d="M 5721.908128478842 -237111.5806448927 L 5721.908128478842 -237111.5806448927 L 5483.511934549035 -236794.3312824426 L 4674.626687707622 -236540.81790494482 L 4575.217542118598 -236153.28900196988 L 4159.614609254591 -236746.13698151158 L 3608.480079565124 -236913.0218557749 L 2580.133714144356 -237121.7736475833 L 3025.2078534214243 -237412.5826723762 L 3163.286098039897 -237812.5892630699 L 3853.3477549441195 -238095.54071062742 L 4028.417307103216 -237509.03782748125 L 4516.045431648386 -237001.14452797762 L 5513.871970976236 -237224.03482952583 L 5721.908128478842 -237111.5806448927 "  ID_2="9" _id="223" NAME_1="Macedonia and Thrace" ID_0="89" CCN_3="0" CCA_3="0" NAME_0="Greece" NAME_2="East Macedonia and Thrace" ISO="GRC" NL_title="Ξάνθης" id="Xanthi" title="Xanthi" ENGTYPE_3="Municipality" ID_1="6"/>
  </g>
</svg>