<?xml version="1.0" encoding="utf-8"?>
<!-- (c) ammap.com | SVG map of Afghanistan - Low -->
<svg xmlns="http://www.w3.org/2000/svg" xmlns:amcharts="http://amcharts.com/ammap" xmlns:xlink="http://www.w3.org/1999/xlink" version="1.1">
	<defs>
		<style type="text/css">
			.land
			{
				fill: #CCCCCC;
				fill-opacity: 1;
				stroke:white;
				stroke-opacity: 1;
				stroke-width:0.5;
			}
		</style>

	<amcharts:ammap projection="mercator" leftLongitude="19.951172" topLatitude="40.767412" rightLongitude="21.687012" bottomLatitude="38.752745"></amcharts:ammap>

		<!-- All areas are listed in the line below. You can use this list in your script. -->		<!--{id:"AF-PIA"},{id:"AF-WAR"},{id:"AF-SAM"},{id:"AF-PAR"},{id:"AF-LOG"},{id:"AF-LAG"},{id:"AF-PAN"},{id:"AF-KAP"},{id:"AF-KAB"},{id:"AF-BGL"},{id:"AF-TAK"},{id:"AF-NAN"},{id:"AF-KDZ"},{id:"AF-KNR"},{id:"AF-NUR"},{id:"AF-BDS"},{id:"AF-PKA"},,{id:"AF-KHO"},{id:"AF-GHA"},{id:"AF-ZAB"},{id:"AF-KAN"},{id:"AF-DAY"},{id:"AF-URU"},{id:"AF-NIM"},{id:"AF-HEL"},{id:"AF-FRA"},{id:"AF-SAR"},{id:"AF-GHO"},{id:"AF-JOW"},{id:"AF-FYB"},{id:"AF-BAL"},{id:"AF-BAM"},{id:"AF-HER"},{id:"AF-BDG"}-->


	</defs>
  <g>
    <path d="M -15602.072654056064 -223669.69633944565 L -15602.072654056064 -223669.69633944565 L -15565.65059719785 -223320.30736923957 L -15867.523235709408 -222796.13911181112 L -15939.967875262273 -222311.73361706175 L -16872.240704358148 -222382.42522545627 L -16719.831324123974 -222965.0470378293 L -16234.80976849691 -223346.6946054831 L -16248.991101300675 -223812.62969284257 L -15943.303484527587 -224059.75690339552 L -15756.59924735594 -224726.44095566828 L -15604.918907470472 -224849.42584509926 L -15435.801520348008 -224582.19806979058 L -15602.072654056064 -223669.69633944565 "  ID_2="6" _id="134" NAME_1="Epirus and Western Macedonia" ID_0="89" CCN_3="0" CCA_3="0" NAME_0="Greece" NAME_2="Epirus" ISO="GRC" NL_title="Αρταίων" id="Arta" title="Arta" ENGTYPE_3="Municipality" ID_1="5"/>
    <path d="M -13588.503159166205 -224287.7762825707 L -13588.503159166205 -224287.7762825707 L -14096.404597508716 -224363.8243684994 L -14441.999683216922 -224075.08726716728 L -14836.0909323758 -224174.74672780282 L -15046.963356439936 -223854.00639146683 L -15602.072654056064 -223669.69633944565 L -15435.801520348008 -224582.19806979058 L -15604.918907470472 -224849.42584509926 L -15469.12765243899 -225394.8688587903 L -14764.904636437675 -225463.25212319926 L -14119.973573156496 -224489.4014705358 L -13718.46209141071 -224479.1980556058 L -13588.503159166205 -224287.7762825707 "  ID_2="6" _id="135" NAME_1="Epirus and Western Macedonia" ID_0="89" CCN_3="0" CCA_3="0" NAME_0="Greece" NAME_2="Epirus" ISO="GRC" NL_title="Κεντρικών Τζουμέρκων" id="Central Tzoumerka" title="Central Tzoumerka" ENGTYPE_3="Municipality" ID_1="5"/>
    <path d="M -15826.477265408856 -224815.27739858994 L -15826.477265408856 -224815.27739858994 L -16683.389293558186 -224414.05637573707 L -17209.996109607746 -224370.61635389386 L -17389.63964093874 -224015.88486631645 L -17479.56127514526 -224697.52166594868 L -17953.88691004548 -225718.15903031113 L -17776.95980302607 -226028.50557272104 L -16936.765768619705 -226141.66881262715 L -16492.400695983157 -225823.16535125996 L -16122.487620570559 -225902.72568259132 L -15826.477265408856 -224815.27739858994 "  ID_2="6" _id="136" NAME_1="Epirus and Western Macedonia" ID_0="89" CCN_3="0" CCA_3="0" NAME_0="Greece" NAME_2="Epirus" ISO="GRC" NL_title="Δωδώνης" id="Dodoni" title="Dodoni" ENGTYPE_3="Municipality" ID_1="5"/>
    <path d="M -18931.98941254996 -227411.52837004082 L -18931.98941254996 -227411.52837004082 L -18380.425448135014 -227186.95503996685 L -18284.03233247989 -226484.20138022164 L -18798.065699232884 -225603.54391014355 L -19004.663749747448 -225900.60113571983 L -19846.725325867937 -225937.85982296302 L -20184.041309537377 -225659.19065375061 L -20186.31831226939 -225657.2225786846 L -19828.259632659607 -226578.63683828313 L -18931.98941254996 -227411.52837004082 "  ID_2="6" _id="137" NAME_1="Epirus and Western Macedonia" ID_0="89" CCN_3="0" CCA_3="0" NAME_0="Greece" NAME_2="Epirus" ISO="GRC" NL_title="Φιλιατών" id="Filiates" title="Filiates" ENGTYPE_3="Municipality" ID_1="5"/>
    <path d="M -15049.779649292095 -222907.60491667606 L -15049.779649292095 -222907.60491667606 L -15336.10275598955 -223102.48829819827 L -15046.963356439936 -223854.00639146683 L -14836.0909323758 -224174.74672780282 L -14441.999683216922 -224075.08726716728 L -14096.404597508716 -224363.8243684994 L -13588.503159166205 -224287.7762825707 L -13479.896120961426 -223989.95066088633 L -13865.828110329963 -223531.96193026606 L -13760.666536785431 -223248.0591989586 L -14296.820785343223 -222860.51836744993 L -15049.779649292095 -222907.60491667606 "  ID_2="6" _id="138" NAME_1="Epirus and Western Macedonia" ID_0="89" CCN_3="0" CCA_3="0" NAME_0="Greece" NAME_2="Epirus" ISO="GRC" NL_title="Γεωργίου Καραϊσκάκη" id="Georgios Karaiskakis" title="Georgios Karaiskakis" ENGTYPE_3="Municipality" ID_1="5"/>
    <path d="M -20184.041309537377 -225659.19065375061 L -20184.041309537377 -225659.19065375061 L -19846.725325867937 -225937.85982296302 L -19004.663749747448 -225900.60113571983 L -18798.065699232884 -225603.54391014355 L -19054.947560078912 -225173.3513351411 L -18075.9961749767 -224169.3515192448 L -18441.584942568974 -223933.28742542616 L -18523.037724508446 -223906.81594067902 L -18990.652193461978 -224470.23473089118 L -19370.971570833768 -224208.59080184298 L -19730.218686079686 -224805.68732485242 L -19807.32718649158 -225374.4748610512 L -20184.041309537377 -225659.19065375061 "  ID_2="6" _id="139" NAME_1="Epirus and Western Macedonia" ID_0="89" CCN_3="0" CCA_3="0" NAME_0="Greece" NAME_2="Epirus" ISO="GRC" NL_title="Ηγουμενίτσας" id="Igoumenitsa" title="Igoumenitsa" ENGTYPE_3="Municipality" ID_1="5"/>
    <path d="M -15315.719586796029 -226567.7135251732 L -15315.719586796029 -226567.7135251732 L -15915.949491181407 -225887.51724731564 L -16122.487620570559 -225902.72568259132 L -16492.400695983157 -225823.16535125996 L -16936.765768619705 -226141.66881262715 L -17044.573858496886 -226497.0424503394 L -16567.571746701422 -226780.82883759387 L -16903.449623382516 -227371.03381655877 L -16208.06497324948 -226903.28671027857 L -15771.83918669452 -226841.5994658674 L -15315.719586796029 -226567.7135251732 "  ID_2="6" _id="140" NAME_1="Epirus and Western Macedonia" ID_0="89" CCN_3="0" CCA_3="0" NAME_0="Greece" NAME_2="Epirus" ISO="GRC" NL_title="Ιωαννιτών" id="Ioannina" title="Ioannina" ENGTYPE_3="Municipality" ID_1="5"/>
    <path d="M -15694.411106951511 -229911.24168102432 L -15694.411106951511 -229911.24168102432 L -15890.542934381469 -229773.38972751357 L -15596.050581040794 -228813.00788792406 L -16100.117067414505 -229040.78910040678 L -17208.238423288287 -228931.56541221865 L -17476.88479825003 -228637.69076604294 L -17570.231923408657 -229013.976333222 L -18055.11366307879 -229274.1095834728 L -17441.331597697168 -229523.52609764255 L -17454.384415990226 -229956.66129536706 L -17191.939877416706 -230366.16073157563 L -17252.450226334677 -230761.30810656757 L -16886.98130099143 -231272.64652738775 L -16366.786045266546 -231141.28080816445 L -15764.488862085602 -230281.9148331561 L -15694.411106951511 -229911.24168102432 "  ID_2="6" _id="141" NAME_1="Epirus and Western Macedonia" ID_0="89" CCN_3="0" CCA_3="0" NAME_0="Greece" NAME_2="Epirus" ISO="GRC" NL_title="Κόνιτσας" id="Konitsa" title="Konitsa" ENGTYPE_3="Municipality" ID_1="5"/>
    <path d="M -15067.426420465225 -226699.61458746338 L -15067.426420465225 -226699.61458746338 L -15315.719586796029 -226567.7135251732 L -15771.83918669452 -226841.5994658674 L -15543.20014920818 -227121.82758022108 L -15351.17291880772 -227848.27573864802 L -15085.692376591796 -227966.97912945662 L -14504.926850824751 -228099.04015266456 L -14164.245297327716 -227883.89400287313 L -14530.952592577234 -227508.56838588274 L -14524.570992815423 -227099.7481240601 L -15067.426420465225 -226699.61458746338 "  ID_2="6" _id="142" NAME_1="Epirus and Western Macedonia" ID_0="89" CCN_3="0" CCA_3="0" NAME_0="Greece" NAME_2="Epirus" ISO="GRC" NL_title="Μετσόβου" id="Metsovo" title="Metsovo" ENGTYPE_3="Municipality" ID_1="5"/>
    <path d="M -15939.967875262273 -222311.73361706175 L -15939.967875262273 -222311.73361706175 L -15867.523235709408 -222796.13911181112 L -15565.65059719785 -223320.30736923957 L -15602.072654056064 -223669.69633944565 L -15046.963356439936 -223854.00639146683 L -15336.10275598955 -223102.48829819827 L -15049.779649292095 -222907.60491667606 L -15148.789320719103 -222404.4911791119 L -15619.939136018524 -222179.66176584916 L -15939.967875262273 -222311.73361706175 "  ID_2="6" _id="143" NAME_1="Epirus and Western Macedonia" ID_0="89" CCN_3="0" CCA_3="0" NAME_0="Greece" NAME_2="Epirus" ISO="GRC" NL_title="Νικολάου Σκουφά" id="Nikolaos Skoufas" title="Nikolaos Skoufas" ENGTYPE_3="Municipality" ID_1="5"/>
    <path d="M -15826.477265408856 -224815.27739858994 L -15826.477265408856 -224815.27739858994 L -16122.487620570559 -225902.72568259132 L -15915.949491181407 -225887.51724731564 L -15315.719586796029 -226567.7135251732 L -15067.426420465225 -226699.61458746338 L -14676.381161803742 -225750.92242793538 L -14764.904636437675 -225463.25212319926 L -15469.12765243899 -225394.8688587903 L -15604.918907470472 -224849.42584509926 L -15756.59924735594 -224726.44095566828 L -15826.477265408856 -224815.27739858994 "  ID_2="6" _id="144" NAME_1="Epirus and Western Macedonia" ID_0="89" CCN_3="0" CCA_3="0" NAME_0="Greece" NAME_2="Epirus" ISO="GRC" NL_title="Βορείων Τζουμέρκων" id="North Tzoumerka" title="North Tzoumerka" ENGTYPE_3="Municipality" ID_1="5"/>
    <path d="M -18523.037724508446 -223906.81594067902 L -18523.037724508446 -223906.81594067902 L -19370.971570833768 -224208.59080184298 L -18990.652193461978 -224470.23473089118 L -18523.037724508446 -223906.81594067902 M -18072.17120986076 -223266.58398366594 L -18072.17120986076 -223266.58398366594 L -18464.864299447036 -223576.30484833918 L -18441.584942568974 -223933.28742542616 L -18075.9961749767 -224169.3515192448 L -17599.024023743783 -224320.44060182365 L -17503.45981697705 -223564.41950855 L -18072.17120986076 -223266.58398366594 "  ID_2="6" _id="145" NAME_1="Epirus and Western Macedonia" ID_0="89" CCN_3="0" CCA_3="0" NAME_0="Greece" NAME_2="Epirus" ISO="GRC" NL_title="Πάργας" id="Parga" title="Parga" ENGTYPE_3="Municipality" ID_1="5"/>
    <path d="M -17317.065172283008 -227702.96880868077 L -17317.065172283008 -227702.96880868077 L -17759.06336050075 -227300.6315230189 L -18380.425448135014 -227186.95503996685 L -18931.98941254996 -227411.52837004082 L -18844.165017702453 -227784.40901192074 L -19346.224146403896 -228766.23979127768 L -18924.76891704506 -228799.13859910506 L -18527.52182199417 -229367.98729105009 L -18055.11366307879 -229274.1095834728 L -17570.231923408657 -229013.976333222 L -17476.88479825003 -228637.69076604294 L -17675.613207742503 -228503.862223668 L -17317.065172283008 -227702.96880868077 "  ID_2="6" _id="146" NAME_1="Epirus and Western Macedonia" ID_0="89" CCN_3="0" CCA_3="0" NAME_0="Greece" NAME_2="Epirus" ISO="GRC" NL_title="Πωγωνίου" id="Pogoni" title="Pogoni" ENGTYPE_3="Municipality" ID_1="5"/>
    <path d="M -16872.240704358148 -222382.42522545627 L -16872.240704358148 -222382.42522545627 L -17200.9380329498 -222286.3807981173 L -18072.17120986076 -223266.58398366594 L -17503.45981697705 -223564.41950855 L -17599.024023743783 -224320.44060182365 L -17389.63964093874 -224015.88486631645 L -17209.996109607746 -224370.61635389386 L -17187.925162073105 -223691.59004786378 L -16719.831324123974 -222965.0470378293 L -16872.240704358148 -222382.42522545627 "  ID_2="6" _id="147" NAME_1="Epirus and Western Macedonia" ID_0="89" CCN_3="0" CCA_3="0" NAME_0="Greece" NAME_2="Epirus" ISO="GRC" NL_title="Πρέβεζας" id="Preveza" title="Preveza" ENGTYPE_3="Municipality" ID_1="5"/>
    <path d="M -17599.024023743783 -224320.44060182365 L -17599.024023743783 -224320.44060182365 L -18075.9961749767 -224169.3515192448 L -19054.947560078912 -225173.3513351411 L -18798.065699232884 -225603.54391014355 L -18284.03233247989 -226484.20138022164 L -18279.10881341399 -226049.4203201918 L -17953.88691004548 -225718.15903031113 L -17479.56127514526 -224697.52166594868 L -17389.63964093874 -224015.88486631645 L -17599.024023743783 -224320.44060182365 "  ID_2="6" _id="148" NAME_1="Epirus and Western Macedonia" ID_0="89" CCN_3="0" CCA_3="0" NAME_0="Greece" NAME_2="Epirus" ISO="GRC" NL_title="Σουλίου" id="Souli" title="Souli" ENGTYPE_3="Municipality" ID_1="5"/>
    <path d="M -16903.449623382516 -227371.03381655877 L -16903.449623382516 -227371.03381655877 L -17317.065172283008 -227702.96880868077 L -17675.613207742503 -228503.862223668 L -17476.88479825003 -228637.69076604294 L -17208.238423288287 -228931.56541221865 L -16100.117067414505 -229040.78910040678 L -15596.050581040794 -228813.00788792406 L -15085.692376591796 -227966.97912945662 L -15351.17291880772 -227848.27573864802 L -15543.20014920818 -227121.82758022108 L -15771.83918669452 -226841.5994658674 L -16208.06497324948 -226903.28671027857 L -16903.449623382516 -227371.03381655877 "  ID_2="6" _id="149" NAME_1="Epirus and Western Macedonia" ID_0="89" CCN_3="0" CCA_3="0" NAME_0="Greece" NAME_2="Epirus" ISO="GRC" NL_title="Ζαγορίου" id="Zagori" title="Zagori" ENGTYPE_3="Municipality" ID_1="5"/>
    <path d="M -16719.831324123974 -222965.0470378293 L -16719.831324123974 -222965.0470378293 L -17187.925162073105 -223691.59004786378 L -17209.996109607746 -224370.61635389386 L -16683.389293558186 -224414.05637573707 L -15826.477265408856 -224815.27739858994 L -15756.59924735594 -224726.44095566828 L -15943.303484527587 -224059.75690339552 L -16248.991101300675 -223812.62969284257 L -16234.80976849691 -223346.6946054831 L -16719.831324123974 -222965.0470378293 "  ID_2="6" _id="150" NAME_1="Epirus and Western Macedonia" ID_0="89" CCN_3="0" CCA_3="0" NAME_0="Greece" NAME_2="Epirus" ISO="GRC" NL_title="Ζηρού" id="Ziros" title="Ziros" ENGTYPE_3="Municipality" ID_1="5"/>
    <path d="M -16936.765768619705 -226141.66881262715 L -16936.765768619705 -226141.66881262715 L -17776.95980302607 -226028.50557272104 L -17953.88691004548 -225718.15903031113 L -18279.10881341399 -226049.4203201918 L -18284.03233247989 -226484.20138022164 L -18380.425448135014 -227186.95503996685 L -17759.06336050075 -227300.6315230189 L -17317.065172283008 -227702.96880868077 L -16903.449623382516 -227371.03381655877 L -16567.571746701422 -226780.82883759387 L -17044.573858496886 -226497.0424503394 L -16936.765768619705 -226141.66881262715 "  ID_2="6" _id="151" NAME_1="Epirus and Western Macedonia" ID_0="89" CCN_3="0" CCA_3="0" NAME_0="Greece" NAME_2="Epirus" ISO="GRC" NL_title="Ζίτσας" id="Zitsa" title="Zitsa" ENGTYPE_3="Municipality" ID_1="5"/>
  </g>
</svg>