<?xml version="1.0" encoding="utf-8"?>
<!-- (c) ammap.com | SVG map of Afghanistan - Low -->
<svg xmlns="http://www.w3.org/2000/svg" xmlns:amcharts="http://amcharts.com/ammap" xmlns:xlink="http://www.w3.org/1999/xlink" version="1.1">
	<defs>
		<style type="text/css">
			.land
			{
				fill: #CCCCCC;
				fill-opacity: 1;
				stroke:white;
				stroke-opacity: 1;
				stroke-width:0.5;
			}
		</style>

	<amcharts:ammap projection="mercator" leftLongitude="19.379883" topLatitude="39.967385" rightLongitude="20.906982" bottomLatitude="37.487254"></amcharts:ammap>

		<!-- All areas are listed in the line below. You can use this list in your script. -->		<!--{id:"AF-PIA"},{id:"AF-WAR"},{id:"AF-SAM"},{id:"AF-PAR"},{id:"AF-LOG"},{id:"AF-LAG"},{id:"AF-PAN"},{id:"AF-KAP"},{id:"AF-KAB"},{id:"AF-BGL"},{id:"AF-TAK"},{id:"AF-NAN"},{id:"AF-KDZ"},{id:"AF-KNR"},{id:"AF-NUR"},{id:"AF-BDS"},{id:"AF-PKA"},,{id:"AF-KHO"},{id:"AF-GHA"},{id:"AF-ZAB"},{id:"AF-KAN"},{id:"AF-DAY"},{id:"AF-URU"},{id:"AF-NIM"},{id:"AF-HEL"},{id:"AF-FRA"},{id:"AF-SAR"},{id:"AF-GHO"},{id:"AF-JOW"},{id:"AF-FYB"},{id:"AF-BAL"},{id:"AF-BAM"},{id:"AF-HER"},{id:"AF-BDG"}-->


	</defs>
  <g>
    <path d="M -17416.204672811986 -217146.51038603098 L -17416.204672811986 -217146.51038603098 L -16674.431085440832 -216112.14137872442 L -16779.16322425957 -215823.86117025572 L -17269.318022888663 -215851.59056224738 L -17765.27518374305 -216176.85027302764 L -18041.611436352683 -215997.54475937987 L -18639.38457463128 -216469.0233907781 L -19170.245790522822 -216581.901848633 L -18719.379275875137 -217760.04237332856 L -18146.333588317626 -217676.58196970963 L -17915.087981913795 -218465.33228800193 L -17651.824521305974 -217539.33786254385 L -17416.204672811986 -217146.51038603098 M -15144.365144357624 -218175.06244340827 L -15144.365144357624 -218175.06244340827 L -15142.897076807 -218172.02883030332 L -15144.365144357624 -218169.02072856596 L -15146.552265403147 -218166.39502796347 L -15149.827953544249 -218166.49699665248 L -15147.32125316761 -218181.20620565323 L -15144.365144357624 -218175.06244340827 "  ID_2="10" _id="224" NAME_1="Peloponnese, Western Greece and the Ionian Islands" ID_0="89" CCN_3="0" CCA_3="0" NAME_0="Greece" NAME_2="Ionian Islands" ISO="GRC" NL_title="Κεφαλονιάς" id="Cephalonia" title="Cephalonia" ENGTYPE_3="Municipality" ID_1="7"/>
    <path d="M -21298.104843593414 -226300.67725546393 L -21298.104843593414 -226300.67725546393 L -21399.990728996825 -225792.98723624958 L -21273.37739287143 -225282.11765125152 L -21565.7325594379 -225120.11568524686 L -21831.882220877702 -225968.51365128733 L -22302.802338533686 -226312.16486426402 L -22847.095873172413 -227164.4049002714 L -22655.098603334518 -227480.41353454796 L -22026.785665255135 -227442.56443269705 L -21747.533251252156 -227660.29053751696 L -21179.171398261242 -227364.95213821274 L -21763.5421783552 -226867.48323614124 L -21661.716214076016 -226427.2120143832 L -21298.104843593414 -226300.67725546393 "  ID_2="10" _id="225" NAME_1="Peloponnese, Western Greece and the Ionian Islands" ID_0="89" CCN_3="0" CCA_3="0" NAME_0="Greece" NAME_2="Ionian Islands" ISO="GRC" NL_title="Κέρκυρας" id="Corfu" title="Corfu" ENGTYPE_3="Municipality" ID_1="7"/>
    <path d="M -17531.093442237987 -218567.50251321084 L -17531.093442237987 -218567.50251321084 L -17042.40671115982 -217923.31190198415 L -17438.035935848195 -217767.42894368325 L -17531.093442237987 -218567.50251321084 "  ID_2="10" _id="226" NAME_1="Peloponnese, Western Greece and the Ionian Islands" ID_0="89" CCN_3="0" CCA_3="0" NAME_0="Greece" NAME_2="Ionian Islands" ISO="GRC" NL_title="Ιθάκης" id="Ithaca" title="Ithaca" ENGTYPE_3="Municipality" ID_1="7"/>
    <path d="M -17109.328620402746 -221089.57037469666 L -17109.328620402746 -221089.57037469666 L -17153.780107947536 -221029.9174875762 L -17183.001643008138 -221029.89184305142 L -17190.871284029014 -221024.2757251413 L -17191.56037696166 -221022.3780563698 L -17133.976176291115 -220774.10480655418 L -17124.278940971893 -220766.62066551307 L -17148.59693067537 -219605.33018773136 L -17925.254599375756 -219391.24220309453 L -18032.902899588138 -219951.72841505456 L -17566.00748412892 -220953.32342091255 L -17109.328620402746 -221089.57037469666 "  ID_2="10" _id="227" NAME_1="Peloponnese, Western Greece and the Ionian Islands" ID_0="89" CCN_3="0" CCA_3="0" NAME_0="Greece" NAME_2="Ionian Islands" ISO="GRC" NL_title="Λευκάδας" id="Lefkada" title="Lefkada" ENGTYPE_3="Municipality" ID_1="7"/>
    <path d="M -16944.974962679564 -219486.1449082727 L -16944.974962679564 -219486.1449082727 L -17097.683948536367 -219663.0160469408 L -16962.402023063085 -219826.90622542487 L -16799.496459182905 -219910.73997309877 L -16821.347695926735 -219690.94094529128 L -16979.889004570497 -219646.2925717179 L -16944.974962679564 -219486.1449082727 "  ID_2="10" _id="228" NAME_1="Peloponnese, Western Greece and the Ionian Islands" ID_0="89" CCN_3="0" CCA_3="0" NAME_0="Greece" NAME_2="Ionian Islands" ISO="GRC" NL_title="Μεγανησίου" id="Meganisi" title="Meganisi" ENGTYPE_3="Municipality" ID_1="7"/>
    <path d="M -20168.002421871784 -223418.59695904976 L -20168.002421871784 -223418.59695904976 L -20278.53692291611 -223591.2844099944 L -20176.96062998912 -223681.94534505662 L -19946.93341978489 -223473.0335111419 L -20168.002421871784 -223418.59695904976 "  ID_2="10" _id="229" NAME_1="Peloponnese, Western Greece and the Ionian Islands" ID_0="89" CCN_3="0" CCA_3="0" NAME_0="Greece" NAME_2="Ionian Islands" ISO="GRC" NL_title="Παξών" id="Paxi" title="Paxi" ENGTYPE_3="Municipality" ID_1="7"/>
    <path d="M -16194.492838544167 -213891.66451140892 L -16194.492838544167 -213891.66451140892 L -16130.467116986996 -213650.70761888017 L -16729.718309671178 -213099.2615676556 L -17558.73705435362 -214046.28494275917 L -17682.36432110645 -214504.82279883494 L -17382.748711617867 -214895.546436554 L -17061.311825948604 -214466.1142086057 L -16204.649469151467 -214103.36379701187 L -16194.492838544167 -213891.66451140892 "  ID_2="10" _id="230" NAME_1="Peloponnese, Western Greece and the Ionian Islands" ID_0="89" CCN_3="0" CCA_3="0" NAME_0="Greece" NAME_2="Ionian Islands" ISO="GRC" NL_title="Ζακύνθου" id="Zakynthos" title="Zakynthos" ENGTYPE_3="Municipality" ID_1="7"/>
  </g>
</svg>