<?xml version="1.0" encoding="utf-8"?>
<!-- (c) ammap.com | SVG map of Afghanistan - Low -->
<svg xmlns="http://www.w3.org/2000/svg" xmlns:amcharts="http://amcharts.com/ammap" xmlns:xlink="http://www.w3.org/1999/xlink" version="1.1">
	<defs>
		<style type="text/css">
			.land
			{
				fill: #CCCCCC;
				fill-opacity: 1;
				stroke:white;
				stroke-opacity: 1;
				stroke-width:0.5;
			}
		</style>

	<amcharts:ammap projection="mercator" leftLongitude="24.334717" topLatitude="40.219519" rightLongitude="28.755341" bottomLatitude="37.297544"></amcharts:ammap>

		<!-- All areas are listed in the line below. You can use this list in your script. -->		<!--{id:"AF-PIA"},{id:"AF-WAR"},{id:"AF-SAM"},{id:"AF-PAR"},{id:"AF-LOG"},{id:"AF-LAG"},{id:"AF-PAN"},{id:"AF-KAP"},{id:"AF-KAB"},{id:"AF-BGL"},{id:"AF-TAK"},{id:"AF-NAN"},{id:"AF-KDZ"},{id:"AF-KNR"},{id:"AF-NUR"},{id:"AF-BDS"},{id:"AF-PKA"},,{id:"AF-KHO"},{id:"AF-GHA"},{id:"AF-ZAB"},{id:"AF-KAN"},{id:"AF-DAY"},{id:"AF-URU"},{id:"AF-NIM"},{id:"AF-HEL"},{id:"AF-FRA"},{id:"AF-SAR"},{id:"AF-GHO"},{id:"AF-JOW"},{id:"AF-FYB"},{id:"AF-BAL"},{id:"AF-BAM"},{id:"AF-HER"},{id:"AF-BDG"}-->


	</defs>
  <g>
    <path d="M 5507.250686716325 -225691.19892292615 L 5507.250686716325 -225691.19892292615 L 5079.633568384156 -225491.31231911946 L 5220.697882374265 -225879.82253613757 L 5507.250686716325 -225691.19892292615 "  ID_2="1" _id="1" NAME_1="Aegean" ID_0="89" CCN_3="0" CCA_3="0" NAME_0="Greece" NAME_2="North Aegean" ISO="GRC" NL_title="Αγίου Ευστρατίου" id="Agios Efstratios" title="Agios Efstratios" ENGTYPE_3="Municipality" ID_1="1"/>
    <path d="M 9896.74270336296 -217241.40516354362 L 9896.74270336296 -217241.40516354362 L 10295.258128882417 -217402.20903253325 L 10431.968174490868 -217878.7505854084 L 10084.355744256618 -218522.93271455937 L 9751.304147282375 -218675.28303747543 L 9694.568829210177 -219246.10004132395 L 10509.06668804807 -219434.05217352876 L 11313.347995155314 -219067.54326796773 L 11176.637949546846 -218197.98085923167 L 11285.754317310137 -217422.62188957742 L 10986.118734114552 -216778.02168032384 L 10589.051402437832 -216431.98729261465 L 9901.096971745532 -216840.93812446846 L 9896.74270336296 -217241.40516354362 "  ID_2="1" _id="2" NAME_1="Aegean" ID_0="89" CCN_3="0" CCA_3="0" NAME_0="Greece" NAME_2="North Aegean" ISO="GRC" NL_title="Χίου" id="Chios" title="Chios" ENGTYPE_3="Municipality" ID_1="1"/>
    <path d="M 13298.694640393027 -212873.36930243933 L 13298.694640393027 -212873.36930243933 L 13132.872915119253 -212469.5643734603 L 12981.612023105488 -212601.68451386146 L 13298.694640393027 -212873.36930243933 "  ID_2="1" _id="3" NAME_1="Aegean" ID_0="89" CCN_3="0" CCA_3="0" NAME_0="Greece" NAME_2="North Aegean" ISO="GRC" NL_title="Φούρνων Κορσεών" id="Fournoi Korseon" title="Fournoi Korseon" ENGTYPE_3="Municipality" ID_1="1"/>
    <path d="M 10372.336668732629 -212339.31850653698 L 10372.336668732629 -212339.31850653698 L 10795.589531827265 -212917.4499892773 L 11618.805914284081 -212974.37237805192 L 11634.784880824545 -212548.48444031517 L 10372.336668732629 -212339.31850653698 "  ID_2="1" _id="4" NAME_1="Aegean" ID_0="89" CCN_3="0" CCA_3="0" NAME_0="Greece" NAME_2="North Aegean" ISO="GRC" NL_title="Ικαριάς" id="Icaria" title="Icaria" ENGTYPE_3="Municipality" ID_1="1"/>
    <path d="M 7073.658789824749 -227382.00182906262 L 7073.658789824749 -227382.00182906262 L 6233.025333838227 -227825.0954021872 L 5508.6987805590625 -227910.32976256454 L 5498.522176243292 -228761.83434247 L 7185.661358419704 -228894.69384610554 L 7265.656059662645 -228488.56922946303 L 7035.858547102753 -228060.04782138832 L 7073.658789824749 -227382.00182906262 "  ID_2="1" _id="5" NAME_1="Aegean" ID_0="89" CCN_3="0" CCA_3="0" NAME_0="Greece" NAME_2="North Aegean" ISO="GRC" NL_title="Λήμνου" id="Lemnos" title="Lemnos" ENGTYPE_3="Municipality" ID_1="1"/>
    <path d="M 11173.741761861987 -222672.24450735617 L 11173.741761861987 -222672.24450735617 L 11967.866438361369 -223165.31195911663 L 11806.418955177738 -223473.05928750377 L 10813.046552772132 -222674.07155108714 L 10225.450018809306 -222799.66545878604 L 9813.841827580449 -223095.89474247885 L 9677.12179511822 -223677.66460397924 L 9850.20396331412 -223966.93362971317 L 10475.610726853934 -223970.67511137133 L 11407.90352965828 -224320.3373118862 L 11348.272023900041 -224609.9475822898 L 12122.04349176878 -224608.11306704785 L 12616.53258507136 -224243.23766097083 L 12447.824658966505 -223961.30856115685 L 13284.133807133036 -223234.71355705845 L 13656.4537143799 -222145.9876295022 L 12655.800895344883 -221826.0220921239 L 11236.269455305086 -222254.55026443425 L 11173.741761861987 -222672.24450735617 "  ID_2="1" _id="6" NAME_1="Aegean" ID_0="89" CCN_3="0" CCA_3="0" NAME_0="Greece" NAME_2="North Aegean" ISO="GRC" NL_title="Λέσβου" id="Lesbos" title="Lesbos" ENGTYPE_3="Municipality" ID_1="1"/>
    <path d="M 11434.089061076196 -219028.4688605271 L 11434.089061076196 -219028.4688605271 L 11898.068315141152 -218862.98686832644 L 11780.243410613899 -218745.89949188926 L 11532.998863962035 -218835.10998722469 L 11434.089061076196 -219028.4688605271 "  ID_2="1" _id="7" NAME_1="Aegean" ID_0="89" CCN_3="0" CCA_3="0" NAME_0="Greece" NAME_2="North Aegean" ISO="GRC" NL_title="Οινουσσών" id="Oinousses" title="Oinousses" ENGTYPE_3="Municipality" ID_1="1"/>
    <path d="M 8410.309327789622 -218948.5166722587 L 8410.309327789622 -218948.5166722587 L 8164.502888126967 -218996.85411202512 L 8043.781795913674 -219409.84809808212 L 8487.387867638934 -219331.69795458886 L 8410.309327789622 -218948.5166722587 "  ID_2="1" _id="8" NAME_1="Aegean" ID_0="89" CCN_3="0" CCA_3="0" NAME_0="Greece" NAME_2="North Aegean" ISO="GRC" NL_title="Ψαρών" id="Psara" title="Psara" ENGTYPE_3="Municipality" ID_1="1"/>
    <path d="M 16076.667934016947 -213531.1825986694 L 16076.667934016947 -213531.1825986694 L 15093.472135927128 -213161.78115246998 L 14580.027993565292 -213080.9461992223 L 14262.975336840283 -213470.50948383895 L 13585.187523608776 -213259.13378843546 L 13659.379862627324 -213865.9665659387 L 14350.230481005383 -214156.7327332997 L 15592.335471320452 -214027.8836131653 L 16076.667934016947 -213531.1825986694 "  ID_2="1" _id="9" NAME_1="Aegean" ID_0="89" CCN_3="0" CCA_3="0" NAME_0="Greece" NAME_2="North Aegean" ISO="GRC" NL_title="Σάμου" id="Samos" title="Samos" ENGTYPE_3="Municipality" ID_1="1"/>
  </g>
</svg>