<?xml version="1.0" encoding="utf-8"?>
<!-- (c) ammap.com | SVG map of Afghanistan - Low -->
<svg xmlns="http://www.w3.org/2000/svg" xmlns:amcharts="http://amcharts.com/ammap" xmlns:xlink="http://www.w3.org/1999/xlink" version="1.1">
	<defs>
		<style type="text/css">
			.land
			{
				fill: #CCCCCC;
				fill-opacity: 1;
				stroke:white;
				stroke-opacity: 1;
				stroke-width:0.5;
			}
		</style>

	<amcharts:ammap projection="mercator" leftLongitude="21.060791" topLatitude="39.349963" rightLongitude="23.950195" bottomLatitude="36.341678"></amcharts:ammap>

		<!-- All areas are listed in the line below. You can use this list in your script. -->		<!--{id:"AF-PIA"},{id:"AF-WAR"},{id:"AF-SAM"},{id:"AF-PAR"},{id:"AF-LOG"},{id:"AF-LAG"},{id:"AF-PAN"},{id:"AF-KAP"},{id:"AF-KAB"},{id:"AF-BGL"},{id:"AF-TAK"},{id:"AF-NAN"},{id:"AF-KDZ"},{id:"AF-KNR"},{id:"AF-NUR"},{id:"AF-BDS"},{id:"AF-PKA"},,{id:"AF-KHO"},{id:"AF-GHA"},{id:"AF-ZAB"},{id:"AF-KAN"},{id:"AF-DAY"},{id:"AF-URU"},{id:"AF-NIM"},{id:"AF-HEL"},{id:"AF-FRA"},{id:"AF-SAR"},{id:"AF-GHO"},{id:"AF-JOW"},{id:"AF-FYB"},{id:"AF-BAL"},{id:"AF-BAM"},{id:"AF-HER"},{id:"AF-BDG"}-->


	</defs>
  <g>
    <path d="M -6386.0339253173415 -212673.29066420154 L -6386.0339253173415 -212673.29066420154 L -6619.326836807998 -212126.5905074491 L -7343.803192899651 -211750.01493262296 L -7784.0037473806915 -212194.80355625614 L -7664.970433508833 -212486.92469437636 L -8428.894863246394 -214077.68001674127 L -7860.682813067088 -214427.71224425186 L -7562.405442027148 -214385.54439201864 L -7252.413491141324 -213899.27055327586 L -6579.569170684768 -213905.2341770235 L -6371.003709915196 -213617.09220756282 L -5682.549936518527 -213756.21588505618 L -5523.3195349424 -213552.54495768467 L -5902.800016570819 -213220.72538819085 L -6439.044146815387 -213138.19030136376 L -6386.0339253173415 -212673.29066420154 "  ID_2="11" _id="231" NAME_1="Peloponnese, Western Greece and the Ionian Islands" ID_0="89" CCN_3="0" CCA_3="0" NAME_0="Greece" NAME_2="Peloponnese" ISO="GRC" NL_title="Άργους - Μυκηνών" title="Argos-Mykines" ENGTYPE_3="Municipality" ID_1="7"/>
    <path d="M -4586.572595215794 -213598.30292937637 L -4586.572595215794 -213598.30292937637 L -5002.485120555905 -213402.87651854186 L -5523.3195349424 -213552.54495768467 L -5682.549936518527 -213756.21588505618 L -6371.003709915196 -213617.09220756282 L -6579.569170684768 -213905.2341770235 L -6376.955874951545 -214402.2643829911 L -6148.6164430875515 -215100.28419674083 L -5464.3671352627325 -215054.13218897613 L -5158.170188930283 -214712.48474252483 L -5156.722095087546 -214357.44294182662 L -4625.8409054893145 -214379.5749119663 L -4295.7054699087175 -214088.65107294236 L -4586.572595215794 -213598.30292937637 M -5157.091608688796 -214713.0415956224 L -5157.091608688796 -214713.0415956224 L -5150.899759155247 -214715.52213076848 L -5151.259285901821 -214714.8893399934 L -5157.091608688796 -214713.0415956224 "  ID_2="11" _id="232" NAME_1="Peloponnese, Western Greece and the Ionian Islands" ID_0="89" CCN_3="0" CCA_3="0" NAME_0="Greece" NAME_2="Peloponnese" ISO="GRC" NL_title="Κορινθίων" id="Corinth" title="Corinth" ENGTYPE_3="Municipality" ID_1="7"/>
    <path d="M -8733.184320448096 -207066.5938811048 L -8733.184320448096 -207066.5938811048 L -8375.894628602176 -207620.12459899185 L -8594.656667396255 -208017.10226165643 L -8032.53659821021 -207993.50543285775 L -7706.036377518155 -207840.93948662176 L -7441.644402397513 -207369.72938343385 L -7973.9936595472345 -206277.7147790505 L -8152.868203114066 -205265.8163352092 L -8547.00938654248 -205381.55785017094 L -8472.847008086499 -206163.58340806636 L -8733.184320448096 -207066.5938811048 "  ID_2="11" _id="233" NAME_1="Peloponnese, Western Greece and the Ionian Islands" ID_0="89" CCN_3="0" CCA_3="0" NAME_0="Greece" NAME_2="Peloponnese" ISO="GRC" NL_title="Ανατολικής Μάνης" id="East Mani" title="East Mani" ENGTYPE_3="Municipality" ID_1="7"/>
    <path d="M -5341.438948296329 -205598.6572028717 L -5341.438948296329 -205598.6572028717 L -5276.00508031248 -205338.1889285643 L -5619.233281601593 -205405.08195724827 L -5341.438948296329 -205598.6572028717 "  ID_2="11" _id="234" NAME_1="Peloponnese, Western Greece and the Ionian Islands" ID_0="89" CCN_3="0" CCA_3="0" NAME_0="Greece" NAME_2="Peloponnese" ISO="GRC" NL_title="Ελαφονήσου" id="Elafonisos" title="Elafonisos" ENGTYPE_3="Municipality" ID_1="7"/>
    <path d="M -4182.8540187166145 -212724.6639767299 L -4182.8540187166145 -212724.6639767299 L -4366.012922686214 -212293.6020640622 L -4502.8228368349355 -212253.68236092955 L -5247.872112347157 -212223.66286082828 L -5735.030854749906 -212681.2811557494 L -4935.742974687163 -213099.3877089243 L -5002.485120555905 -213402.87651854186 L -4586.572595215794 -213598.30292937637 L -4397.501473625337 -212853.1711781844 L -4182.8540187166145 -212724.6639767299 "  ID_2="11" _id="235" NAME_1="Peloponnese, Western Greece and the Ionian Islands" ID_0="89" CCN_3="0" CCA_3="0" NAME_0="Greece" NAME_2="Peloponnese" ISO="GRC" NL_title="Επιδαύρου" id="Epidaurus" title="Epidaurus" ENGTYPE_3="Municipality" ID_1="7"/>
    <path d="M -4963.2967051154 -211848.01972111355 L -4963.2967051154 -211848.01972111355 L -4502.8228368349355 -212253.68236092955 L -4366.012922686214 -212293.6020640622 L -3445.2749100623346 -211819.83663203107 L -2955.5395593052426 -211845.7297850176 L -2864.3895420453146 -211819.8114692786 L -2977.2709537999986 -211594.15319424865 L -3023.21048260385 -211490.79238679548 L -3465.2286445294444 -211518.27771101106 L -4238.980138690013 -211027.77011563143 L -4855.648404903018 -211095.45458669838 L -4547.314271796065 -211564.04806874468 L -4963.2967051154 -211848.01972111355 "  ID_2="11" _id="236" NAME_1="Peloponnese, Western Greece and the Ionian Islands" ID_0="89" CCN_3="0" CCA_3="0" NAME_0="Greece" NAME_2="Peloponnese" ISO="GRC" NL_title="Ερμιονίδας" id="Ermionida" title="Ermionida" ENGTYPE_3="Municipality" ID_1="7"/>
    <path d="M -5639.916056417426 -208884.84119649822 L -5639.916056417426 -208884.84119649822 L -5570.387578259089 -208428.21545833815 L -6347.804247868966 -207420.58156053638 L -7207.4926214550305 -207524.12247329342 L -7441.644402397513 -207369.72938343385 L -7706.036377518155 -207840.93948662176 L -8032.53659821021 -207993.50543285775 L -7638.065848596004 -208701.3955768515 L -7160.035090829203 -208773.04012640205 L -7291.232392980895 -209459.4993609548 L -7058.229100258789 -209711.9229664236 L -6284.098105642894 -208891.64511365705 L -5639.916056417426 -208884.84119649822 "  ID_2="11" _id="237" NAME_1="Peloponnese, Western Greece and the Ionian Islands" ID_0="89" CCN_3="0" CCA_3="0" NAME_0="Greece" NAME_2="Peloponnese" ISO="GRC" NL_title="Ευρώτα" id="Evrotas" title="Evrotas" ENGTYPE_3="Municipality" ID_1="7"/>
    <path d="M -9562.65247356357 -214022.0701500721 L -9562.65247356357 -214022.0701500721 L -9364.593183294095 -213769.63022258558 L -9650.037446831806 -212345.66624901345 L -9732.698638116199 -211831.36130777068 L -10748.881015258034 -212360.35201453662 L -11115.428520842735 -212758.01665000402 L -11542.466401636653 -212638.25502560908 L -11461.972357689292 -213306.53016221244 L -11558.834855486255 -213974.20016994473 L -11055.637225419112 -214488.1498994985 L -10989.94369922926 -214267.00315163832 L -10207.243983806946 -213927.24462040566 L -9932.975009992879 -214204.34243325176 L -9562.65247356357 -214022.0701500721 "  ID_2="11" _id="238" NAME_1="Peloponnese, Western Greece and the Ionian Islands" ID_0="89" CCN_3="0" CCA_3="0" NAME_0="Greece" NAME_2="Peloponnese" ISO="GRC" NL_title="Γορτυνίας" id="Gortynia" title="Gortynia" ENGTYPE_3="Municipality" ID_1="7"/>
    <path d="M -10466.382873676517 -209847.11762427603 L -10466.382873676517 -209847.11762427603 L -10072.471387891823 -210284.0768837741 L -9512.138965587503 -209680.12812087027 L -9161.091057547632 -209890.60324531974 L -8898.73640066089 -209375.11120011777 L -9067.334471371396 -209128.61447598488 L -9720.754360627192 -208606.46052543356 L -9848.735895762595 -208955.81162238633 L -10360.731944281693 -208935.79778945257 L -10533.194927524164 -209439.41518288312 L -10466.382873676517 -209847.11762427603 "  ID_2="11" _id="239" NAME_1="Peloponnese, Western Greece and the Ionian Islands" ID_0="89" CCN_3="0" CCA_3="0" NAME_0="Greece" NAME_2="Peloponnese" ISO="GRC" NL_title="Καλαμάτας" id="Kalamata" title="Kalamata" ENGTYPE_3="Municipality" ID_1="7"/>
    <path d="M -5150.899759155247 -214715.52213076848 L -5150.899759155247 -214715.52213076848 L -5157.091608688796 -214713.0415956224 L -5158.170188930283 -214712.48474252483 L -5464.3671352627325 -215054.13218897613 L -5963.939537296309 -215633.62889876784 L -5421.443636393081 -215927.32801616262 L -4637.865077811038 -215794.30687916192 L -4643.038268228212 -215276.167938115 L -4305.382731519187 -215068.92467317375 L -5150.899759155247 -214715.52213076848 "  ID_2="11" _id="240" NAME_1="Peloponnese, Western Greece and the Ionian Islands" ID_0="89" CCN_3="0" CCA_3="0" NAME_0="Greece" NAME_2="Peloponnese" ISO="GRC" NL_title="Λουτρακίου - Αγίων Θεοδώρων" title="Loutraki-Agioi Theodoroi" ENGTYPE_3="Municipality" ID_1="7"/>
    <path d="M -10072.471387891823 -210284.0768837741 L -10072.471387891823 -210284.0768837741 L -10383.761629808763 -210927.81804567252 L -10709.762507796417 -211230.0470829932 L -10513.510838117118 -211515.3354760133 L -10659.908132190132 -211957.5967833216 L -10748.881015258034 -212360.35201453662 L -9732.698638116199 -211831.36130777068 L -9650.037446831806 -212345.66624901345 L -9340.395035839927 -211901.42102617637 L -9474.238854324001 -211480.96040536222 L -8988.917693073428 -210641.1110903215 L -9323.197673101047 -210554.0119753249 L -9161.091057547632 -209890.60324531974 L -9512.138965587503 -209680.12812087027 L -10072.471387891823 -210284.0768837741 "  ID_2="11" _id="241" NAME_1="Peloponnese, Western Greece and the Ionian Islands" ID_0="89" CCN_3="0" CCA_3="0" NAME_0="Greece" NAME_2="Peloponnese" ISO="GRC" NL_title="Μεγαλόπολης" id="Megalopolis" title="Megalopolis" ENGTYPE_3="Municipality" ID_1="7"/>
    <path d="M -10660.327580061818 -207437.74128240717 L -10660.327580061818 -207437.74128240717 L -10663.243741455164 -207438.01564319993 L -10838.73274148563 -207736.9586739527 L -11444.50534988945 -207723.0579322155 L -11210.12387130263 -208315.76709857956 L -11499.572863329266 -209323.4336496608 L -11770.366411920475 -209735.37578749374 L -11365.379504951528 -210160.42454006447 L -10466.382873676517 -209847.11762427603 L -10533.194927524164 -209439.41518288312 L -10360.731944281693 -208935.79778945257 L -10370.718798369498 -208924.7905240064 L -10789.747222185297 -208726.3262120784 L -10879.968462014462 -207943.91826675783 L -10653.077123994088 -207435.12239149373 L -10655.913390555017 -207437.06785200746 L -10656.113127636774 -207437.06785200746 L -10660.327580061818 -207437.74128240717 "  ID_2="11" _id="242" NAME_1="Peloponnese, Western Greece and the Ionian Islands" ID_0="89" CCN_3="0" CCA_3="0" NAME_0="Greece" NAME_2="Peloponnese" ISO="GRC" NL_title="Μεσσήνης" id="Messini" title="Messini" ENGTYPE_3="Municipality" ID_1="7"/>
    <path d="M -5203.001176930982 -205696.4047815836 L -5203.001176930982 -205696.4047815836 L -5325.799534794551 -205663.82014943557 L -5886.870984300774 -206321.21442965837 L -6347.804247868966 -207420.58156053638 L -5570.387578259089 -208428.21545833815 L -5639.916056417426 -208884.84119649822 L -5422.871756527331 -209258.1433341117 L -5280.339374986598 -208635.28666720664 L -4710.199861968639 -207340.70181322203 L -5101.474818274443 -207010.3448724217 L -5066.550789529717 -206348.36629032728 L -4573.479829506094 -205920.87593993096 L -4397.501473625337 -205444.87919515953 L -5203.001176930982 -205696.4047815836 "  ID_2="11" _id="243" NAME_1="Peloponnese, Western Greece and the Ionian Islands" ID_0="89" CCN_3="0" CCA_3="0" NAME_0="Greece" NAME_2="Peloponnese" ISO="GRC" NL_title="Μονεμβασιάς" id="Monemvasia" title="Monemvasia" ENGTYPE_3="Municipality" ID_1="7"/>
    <path d="M -6386.0339253173415 -212673.29066420154 L -6386.0339253173415 -212673.29066420154 L -6439.044146815387 -213138.19030136376 L -5902.800016570819 -213220.72538819085 L -5523.3195349424 -213552.54495768467 L -5002.485120555905 -213402.87651854186 L -4935.742974687163 -213099.3877089243 L -5735.030854749906 -212681.2811557494 L -5247.872112347157 -212223.66286082828 L -4502.8228368349355 -212253.68236092955 L -4963.2967051154 -211848.01972111355 L -5360.344063084232 -212196.2641087139 L -6083.202548812488 -212212.78376212527 L -6386.0339253173415 -212673.29066420154 "  ID_2="11" _id="244" NAME_1="Peloponnese, Western Greece and the Ionian Islands" ID_0="89" CCN_3="0" CCA_3="0" NAME_0="Greece" NAME_2="Peloponnese" ISO="GRC" NL_title="Ναυπλιέων" id="Nafplio" title="Nafplio" ENGTYPE_3="Municipality" ID_1="7"/>
    <path d="M -6376.955874951545 -214402.2643829911 L -6376.955874951545 -214402.2643829911 L -6579.569170684768 -213905.2341770235 L -7252.413491141324 -213899.27055327586 L -7562.405442027148 -214385.54439201864 L -7081.857997030833 -214688.13569610033 L -6791.450267011467 -214398.82421710095 L -6376.955874951545 -214402.2643829911 "  ID_2="11" _id="245" NAME_1="Peloponnese, Western Greece and the Ionian Islands" ID_0="89" CCN_3="0" CCA_3="0" NAME_0="Greece" NAME_2="Peloponnese" ISO="GRC" NL_title="Νεμέας" id="Nemea" title="Nemea" ENGTYPE_3="Municipality" ID_1="7"/>
    <path d="M -6174.861895630595 -210876.95800651447 L -6174.861895630595 -210876.95800651447 L -6687.726800455329 -210306.80417738884 L -7229.4836741557565 -210179.10836349791 L -7314.511749859842 -210729.78217612093 L -7760.684443086268 -210884.39203665266 L -8149.662422951887 -210945.47586453386 L -7985.488528601992 -211548.93332203594 L -7343.803192899651 -211750.01493262296 L -6619.326836807998 -212126.5905074491 L -6532.620969618336 -211386.44758139696 L -6174.861895630595 -210876.95800651447 "  ID_2="11" _id="246" NAME_1="Peloponnese, Western Greece and the Ionian Islands" ID_0="89" CCN_3="0" CCA_3="0" NAME_0="Greece" NAME_2="Peloponnese" ISO="GRC" NL_title="Βόρειας Κυνουρίας" id="North Kynouria" title="North Kynouria" ENGTYPE_3="Municipality" ID_1="7"/>
    <path d="M -11365.379504951528 -210160.42454006447 L -11365.379504951528 -210160.42454006447 L -11218.662631548581 -210606.57081919612 L -11408.362924945408 -211048.2453239381 L -11269.106231545762 -211352.23231305595 L -11169.287624937946 -211385.6933618434 L -10659.908132190132 -211957.5967833216 L -10513.510838117118 -211515.3354760133 L -10709.762507796417 -211230.0470829932 L -10383.761629808763 -210927.81804567252 L -10072.471387891823 -210284.0768837741 L -10466.382873676517 -209847.11762427603 L -11365.379504951528 -210160.42454006447 "  ID_2="11" _id="247" NAME_1="Peloponnese, Western Greece and the Ionian Islands" ID_0="89" CCN_3="0" CCA_3="0" NAME_0="Greece" NAME_2="Peloponnese" ISO="GRC" NL_title="Οιχαλίας" id="Oichalia" title="Oichalia" ENGTYPE_3="Municipality" ID_1="7"/>
    <path d="M -12314.020787897889 -208737.87924604135 L -12314.020787897889 -208737.87924604135 L -11770.366411920475 -209735.37578749374 L -11499.572863329266 -209323.4336496608 L -11210.12387130263 -208315.76709857956 L -11444.50534988945 -207723.0579322155 L -10838.73274148563 -207736.9586739527 L -10663.243741455164 -207438.01564319993 L -11128.671089362873 -206964.94154456526 L -11444.27565224513 -207531.381865955 L -11890.77791165733 -207476.90157017382 L -12151.135197725316 -208033.0089006932 L -11989.67772768791 -208424.1418867071 L -12314.020787897889 -208737.87924604135 "  ID_2="11" _id="248" NAME_1="Peloponnese, Western Greece and the Ionian Islands" ID_0="89" CCN_3="0" CCA_3="0" NAME_0="Greece" NAME_2="Peloponnese" ISO="GRC" NL_title="Πύλου - Νέστορος" title="Pylos-Nestor" ENGTYPE_3="Municipality" ID_1="7"/>
    <path d="M -9208.978022898624 -215079.41139772453 L -9208.978022898624 -215079.41139772453 L -8625.396204277602 -215464.58747139815 L -8415.232846854604 -214948.11562577088 L -8031.338175719366 -214890.1784179242 L -7405.7117013890065 -215420.78369525372 L -6778.077869387328 -215679.81046067507 L -6430.81497904674 -215393.43368169313 L -6906.339036437803 -215044.177910137 L -7081.857997030833 -214688.13569610033 L -7562.405442027148 -214385.54439201864 L -7860.682813067088 -214427.71224425186 L -8428.894863246394 -214077.68001674127 L -9096.565993286076 -214313.03026145927 L -9300.457606342543 -214649.21011616476 L -9208.978022898624 -215079.41139772453 "  ID_2="11" _id="249" NAME_1="Peloponnese, Western Greece and the Ionian Islands" ID_0="89" CCN_3="0" CCA_3="0" NAME_0="Greece" NAME_2="Peloponnese" ISO="GRC" NL_title="Σικυωνίων" id="Sikyona" title="Sikyona" ENGTYPE_3="Municipality" ID_1="7"/>
    <path d="M -5422.871756527331 -209258.1433341117 L -5422.871756527331 -209258.1433341117 L -5639.916056417426 -208884.84119649822 L -6284.098105642894 -208891.64511365705 L -7058.229100258789 -209711.9229664236 L -7229.4836741557565 -210179.10836349791 L -6687.726800455329 -210306.80417738884 L -6174.861895630595 -210876.95800651447 L -5703.612211789705 -210053.67691165392 L -5774.858428851742 -209581.02343580456 L -5422.871756527331 -209258.1433341117 "  ID_2="11" _id="250" NAME_1="Peloponnese, Western Greece and the Ionian Islands" ID_0="89" CCN_3="0" CCA_3="0" NAME_0="Greece" NAME_2="Peloponnese" ISO="GRC" NL_title="Νότιας Κυνουρίας" id="South Kynouria" title="South Kynouria" ENGTYPE_3="Municipality" ID_1="7"/>
    <path d="M -7058.229100258789 -209711.9229664236 L -7058.229100258789 -209711.9229664236 L -7291.232392980895 -209459.4993609548 L -7160.035090829203 -208773.04012640205 L -7638.065848596004 -208701.3955768515 L -8032.53659821021 -207993.50543285775 L -8594.656667396255 -208017.10226165643 L -8644.051647714496 -208721.47501787893 L -9067.334471371396 -209128.61447598488 L -8898.73640066089 -209375.11120011777 L -9161.091057547632 -209890.60324531974 L -9323.197673101047 -210554.0119753249 L -8988.917693073428 -210641.1110903215 L -8584.949445222006 -210172.13633097927 L -8269.624514253926 -210200.05012949885 L -8149.662422951887 -210945.47586453386 L -7760.684443086268 -210884.39203665266 L -7314.511749859842 -210729.78217612093 L -7229.4836741557565 -210179.10836349791 L -7058.229100258789 -209711.9229664236 "  ID_2="11" _id="251" NAME_1="Peloponnese, Western Greece and the Ionian Islands" ID_0="89" CCN_3="0" CCA_3="0" NAME_0="Greece" NAME_2="Peloponnese" ISO="GRC" NL_title="Σπάρτης" id="Sparti" title="Sparti" ENGTYPE_3="Municipality" ID_1="7"/>
    <path d="M -12133.8080058833 -211260.15699247236 L -12133.8080058833 -211260.15699247236 L -11269.106231545762 -211352.23231305595 L -11408.362924945408 -211048.2453239381 L -11218.662631548581 -210606.57081919612 L -11365.379504951528 -210160.42454006447 L -11770.366411920475 -209735.37578749374 L -12314.020787897889 -208737.87924604135 L -12687.818749550057 -209201.77223753947 L -12746.022135173147 -209874.81263714374 L -12202.048179865498 -210481.1064787142 L -12133.8080058833 -211260.15699247236 "  ID_2="11" _id="252" NAME_1="Peloponnese, Western Greece and the Ionian Islands" ID_0="89" CCN_3="0" CCA_3="0" NAME_0="Greece" NAME_2="Peloponnese" ISO="GRC" NL_title="Τριφυλλίας" id="Trifylia" title="Trifylia" ENGTYPE_3="Municipality" ID_1="7"/>
    <path d="M -7343.803192899651 -211750.01493262296 L -7343.803192899651 -211750.01493262296 L -7985.488528601992 -211548.93332203594 L -8149.662422951887 -210945.47586453386 L -8269.624514253926 -210200.05012949885 L -8584.949445222006 -210172.13633097927 L -8988.917693073428 -210641.1110903215 L -9474.238854324001 -211480.96040536222 L -9340.395035839927 -211901.42102617637 L -9650.037446831806 -212345.66624901345 L -9364.593183294095 -213769.63022258558 L -9562.65247356357 -214022.0701500721 L -9096.565993286076 -214313.03026145927 L -8428.894863246394 -214077.68001674127 L -7664.970433508833 -212486.92469437636 L -7784.0037473806915 -212194.80355625614 L -7343.803192899651 -211750.01493262296 "  ID_2="11" _id="253" NAME_1="Peloponnese, Western Greece and the Ionian Islands" ID_0="89" CCN_3="0" CCA_3="0" NAME_0="Greece" NAME_2="Peloponnese" ISO="GRC" NL_title="Τρίπολης" id="Tripoli" title="Tripoli" ENGTYPE_3="Municipality" ID_1="7"/>
    <path d="M -6148.6164430875515 -215100.28419674083 L -6148.6164430875515 -215100.28419674083 L -6376.955874951545 -214402.2643829911 L -6791.450267011467 -214398.82421710095 L -7081.857997030833 -214688.13569610033 L -6906.339036437803 -215044.177910137 L -6430.81497904674 -215393.43368169313 L -6148.6164430875515 -215100.28419674083 "  ID_2="11" _id="254" NAME_1="Peloponnese, Western Greece and the Ionian Islands" ID_0="89" CCN_3="0" CCA_3="0" NAME_0="Greece" NAME_2="Peloponnese" ISO="GRC" NL_title="Βέλου - Βοχας" title="Velo-Vocha" ENGTYPE_3="Municipality" ID_1="7"/>
    <path d="M -9720.754360627192 -208606.46052543356 L -9720.754360627192 -208606.46052543356 L -9067.334471371396 -209128.61447598488 L -8644.051647714496 -208721.47501787893 L -8594.656667396255 -208017.10226165643 L -8375.894628602176 -207620.12459899185 L -8733.184320448096 -207066.5938811048 L -9223.349105930667 -208013.03204132125 L -9816.75798897408 -208234.91988370928 L -9720.754360627192 -208606.46052543356 "  ID_2="11" _id="255" NAME_1="Peloponnese, Western Greece and the Ionian Islands" ID_0="89" CCN_3="0" CCA_3="0" NAME_0="Greece" NAME_2="Peloponnese" ISO="GRC" NL_title="Δυτικής Μάνης" id="West Mani" title="West Mani" ENGTYPE_3="Municipality" ID_1="7"/>
    <path d="M -8545.571279554137 -216382.07685508093 L -8545.571279554137 -216382.07685508093 L -7898.333252978396 -216302.56094672918 L -6778.077869387328 -215679.81046067507 L -7405.7117013890065 -215420.78369525372 L -8031.338175719366 -214890.1784179242 L -8415.232846854604 -214948.11562577088 L -8625.396204277602 -215464.58747139815 L -8545.571279554137 -216382.07685508093 "  ID_2="11" _id="256" NAME_1="Peloponnese, Western Greece and the Ionian Islands" ID_0="89" CCN_3="0" CCA_3="0" NAME_0="Greece" NAME_2="Peloponnese" ISO="GRC" NL_title="Ξυλοκάστρου - Ευρωστίνης" title="Xylokastro-Evrostina" ENGTYPE_3="Municipality" ID_1="7"/>

  </g>
</svg>