<?xml version="1.0" encoding="utf-8"?>
<!-- (c) ammap.com | SVG map of Afghanistan - Low -->
<svg xmlns="http://www.w3.org/2000/svg" xmlns:amcharts="http://amcharts.com/ammap" xmlns:xlink="http://www.w3.org/1999/xlink" version="1.1">
	<defs>
		<style type="text/css">
			.land
			{
				fill: #CCCCCC;
				fill-opacity: 1;
				stroke:white;
				stroke-opacity: 1;
				stroke-width:0.5;
			}
		</style>

	<amcharts:ammap projection="mercator" leftLongitude="23.950195" topLatitude="38.245461" rightLongitude="28.755341" bottomLatitude="34.413141"></amcharts:ammap>

		<!-- All areas are listed in the line below. You can use this list in your script. -->		<!--{id:"AF-PIA"},{id:"AF-WAR"},{id:"AF-SAM"},{id:"AF-PAR"},{id:"AF-LOG"},{id:"AF-LAG"},{id:"AF-PAN"},{id:"AF-KAP"},{id:"AF-KAB"},{id:"AF-BGL"},{id:"AF-TAK"},{id:"AF-NAN"},{id:"AF-KDZ"},{id:"AF-KNR"},{id:"AF-NUR"},{id:"AF-BDS"},{id:"AF-PKA"},,{id:"AF-KHO"},{id:"AF-GHA"},{id:"AF-ZAB"},{id:"AF-KAN"},{id:"AF-DAY"},{id:"AF-URU"},{id:"AF-NIM"},{id:"AF-HEL"},{id:"AF-FRA"},{id:"AF-SAR"},{id:"AF-GHO"},{id:"AF-JOW"},{id:"AF-FYB"},{id:"AF-BAL"},{id:"AF-BAM"},{id:"AF-HER"},{id:"AF-BDG"}-->


	</defs>
  <g>
		    <path d="M 15443.181805519507 -211725.2337505283 L 15443.181805519507 -211725.2337505283 L 15384.329274380409 -211934.16427145057 L 15586.513135386971 -211899.30700973366 L 15443.181805519507 -211725.2337505283 "  ID_2="2" _id="10" NAME_1="Aegean" ID_0="89" CCN_3="0" CCA_3="0" NAME_0="Greece" NAME_2="South Aegean" ISO="GRC" NL_title="Αγαθονησίου" id="Agathonisi" title="Agathonisi" ENGTYPE_3="Municipality" ID_1="1"/>
    <path d="M 9585.47243515479 -207551.36444911265 L 9585.47243515479 -207551.36444911265 L 9701.869219547776 -207831.2044080872 L 10344.693056617 -208003.91786444542 L 9768.751181373747 -207398.80851538433 L 9585.47243515479 -207551.36444911265 "  ID_2="2" _id="11" NAME_1="Aegean" ID_0="89" CCN_3="0" CCA_3="0" NAME_0="Greece" NAME_2="South Aegean" ISO="GRC" NL_title="Αμοργού" id="Amorgos" title="Amorgos" ENGTYPE_3="Municipality" ID_1="1"/>
    <path d="M 9386.234696103224 -204521.3086320939 L 9386.234696103224 -204521.3086320939 L 9037.154198318382 -204660.3940240729 L 9216.068689301554 -204873.58535027655 L 9386.234696103224 -204521.3086320939 "  ID_2="2" _id="12" NAME_1="Aegean" ID_0="89" CCN_3="0" CCA_3="0" NAME_0="Greece" NAME_2="South Aegean" ISO="GRC" NL_title="Ανάφης" id="Anafi" title="Anafi" ENGTYPE_3="Municipality" ID_1="1"/>
    <path d="M 5181.439558955753 -213698.52073643968 L 5181.439558955753 -213698.52073643968 L 4954.558207789456 -213330.81058893813 L 3642.625133691607 -214751.7697549637 L 3918.9813600088273 -215353.03248520204 L 5134.91080576069 -214167.78141178522 L 5181.439558955753 -213698.52073643968 "  ID_2="2" _id="13" NAME_1="Aegean" ID_0="89" CCN_3="0" CCA_3="0" NAME_0="Greece" NAME_2="South Aegean" ISO="GRC" NL_title="Άνδρου" id="Andros" title="Andros" ENGTYPE_3="Municipality" ID_1="1"/>
    <path d="M 5684.677136440136 -209039.57823786457 L 5684.677136440136 -209039.57823786457 L 5626.483737669957 -208689.8683925943 L 5339.980867599515 -208857.4013410254 L 5684.677136440136 -209039.57823786457 "  ID_2="2" _id="14" NAME_1="Aegean" ID_0="89" CCN_3="0" CCA_3="0" NAME_0="Greece" NAME_2="South Aegean" ISO="GRC" NL_title="Αντιπάρου" id="Antiparos" title="Antiparos" ENGTYPE_3="Municipality" ID_1="1"/>
    <path d="M 11946.06513588769 -205786.91213008418 L 11946.06513588769 -205786.91213008418 L 12338.758225473966 -205993.31776368822 L 12382.390790982956 -205591.42567878988 L 11946.06513588769 -205786.91213008418 "  ID_2="2" _id="15" NAME_1="Aegean" ID_0="89" CCN_3="0" CCA_3="0" NAME_0="Greece" NAME_2="South Aegean" ISO="GRC" NL_title="Αστυπαλαίας" id="Astypalaia" title="Astypalaia" ENGTYPE_3="Municipality" ID_1="1"/>
    <path d="M 18639.38457463218 -203694.97483985708 L 18639.38457463218 -203694.97483985708 L 18866.31586006891 -203889.7295626207 L 18930.291647355647 -203669.74762204612 L 18639.38457463218 -203694.97483985708 "  ID_2="2" _id="16" NAME_1="Aegean" ID_0="89" CCN_3="0" CCA_3="0" NAME_0="Greece" NAME_2="South Aegean" ISO="GRC" NL_title="Χάλκης" id="Chalki" title="Chalki" ENGTYPE_3="Municipality" ID_1="1"/>
    <path d="M 5025.814411705604 -206196.1755120537 L 5025.814411705604 -206196.1755120537 L 4769.851341435349 -206170.82315106678 L 4684.024317404534 -206370.143590001 L 4942.933509630681 -206353.8416369202 L 5025.814411705604 -206196.1755120537 "  ID_2="2" _id="17" NAME_1="Aegean" ID_0="89" CCN_3="0" CCA_3="0" NAME_0="Greece" NAME_2="South Aegean" ISO="GRC" NL_title="Φολεγάνδρου" id="Folegandros" title="Folegandros" ENGTYPE_3="Municipality" ID_1="1"/>
    <path d="M 6961.666208084488 -207228.1485973431 L 6961.666208084488 -207228.1485973431 L 7271.478395595826 -207030.28177019177 L 7104.228550187802 -206453.50336407966 L 6554.4422457996025 -206995.79143734433 L 6961.666208084488 -207228.1485973431 "  ID_2="2" _id="18" NAME_1="Aegean" ID_0="89" CCN_3="0" CCA_3="0" NAME_0="Greece" NAME_2="South Aegean" ISO="GRC" NL_title="Ιητών" id="Ios" title="Ios" ENGTYPE_3="Municipality" ID_1="1"/>
    <path d="M 15628.687620200344 -208302.17505699955 L 15628.687620200344 -208302.17505699955 L 15339.248615027502 -208615.21069593553 L 15449.833050341966 -209225.4763568507 L 15912.314276293766 -208875.63604467013 L 15628.687620200344 -208302.17505699955 "  ID_2="2" _id="19" NAME_1="Aegean" ID_0="89" CCN_3="0" CCA_3="0" NAME_0="Greece" NAME_2="South Aegean" ISO="GRC" NL_title="Καλυμνίων" id="Kalymnos" title="Kalymnos" ENGTYPE_3="Municipality" ID_1="1"/>
    <path d="M 16291.924587025336 -199073.77758932917 L 16291.924587025336 -199073.77758932917 L 16049.034308756027 -199740.6046347569 L 16578.447430803633 -200574.9049863426 L 16633.714681325506 -199699.4569191853 L 16949.309257354584 -199093.4550738858 L 16530.43063634949 -198689.8240419546 L 16291.924587025336 -199073.77758932917 "  ID_2="2" _id="20" NAME_1="Aegean" ID_0="89" CCN_3="0" CCA_3="0" NAME_0="Greece" NAME_2="South Aegean" ISO="GRC" NL_title="Καρπάθου" id="Karpathos" title="Karpathos" ENGTYPE_3="Municipality" ID_1="1"/>
    <path d="M 14946.565512295918 -198256.15586634204 L 14946.565512295918 -198256.15586634204 L 15199.622408026304 -198557.69517922468 L 15720.317006455869 -198632.67845838642 L 15081.827464060732 -198024.32566769465 L 14946.565512295918 -198256.15586634204 "  ID_2="2" _id="21" NAME_1="Aegean" ID_0="89" CCN_3="0" CCA_3="0" NAME_0="Greece" NAME_2="South Aegean" ISO="GRC" NL_title="Κάσου" id="Kasos" title="Kasos" ENGTYPE_3="Municipality" ID_1="1"/>
    <path d="M 2079.1032314142644 -212904.61372904948 L 2079.1032314142644 -212904.61372904948 L 1539.5234919046652 -212232.95561458077 L 1418.792412837594 -212862.37496457266 L 1744.583566889396 -213301.4066913592 L 2079.1032314142644 -212904.61372904948 "  ID_2="2" _id="22" NAME_1="Aegean" ID_0="89" CCN_3="0" CCA_3="0" NAME_0="Greece" NAME_2="South Aegean" ISO="GRC" NL_title="Κέας" id="Kea" title="Kea" ENGTYPE_3="Municipality" ID_1="1"/>
    <path d="M 3119.0243607225057 -207618.6025921601 L 3119.0243607225057 -207618.6025921601 L 2841.2500011247953 -207300.7293119888 L 2721.977002753639 -207633.12422294947 L 3119.0243607225057 -207618.6025921601 "  ID_2="2" _id="23" NAME_1="Aegean" ID_0="89" CCN_3="0" CCA_3="0" NAME_0="Greece" NAME_2="South Aegean" ISO="GRC" NL_title="Κιμώλου" id="Kimolos" title="Kimolos" ENGTYPE_3="Municipality" ID_1="1"/>
    <path d="M 16649.703634720663 -207562.2915921588 L 16649.703634720663 -207562.2915921588 L 16294.8107878564 -207209.97389752217 L 15659.207446292061 -207288.0125908613 L 16034.483462349797 -207747.61533890705 L 16603.18486837971 -208080.2823243179 L 17174.752501531904 -208240.34093467577 L 17564.5593902871 -207887.5706441137 L 16649.703634720663 -207562.2915921588 "  ID_2="2" _id="24" NAME_1="Aegean" ID_0="89" CCN_3="0" CCA_3="0" NAME_0="Greece" NAME_2="South Aegean" ISO="GRC" NL_title="Κω" id="Kos" title="Kos" ENGTYPE_3="Municipality" ID_1="1"/>
    <path d="M 1956.964005920797 -210983.85804854316 L 1956.964005920797 -210983.85804854316 L 2028.2102229828681 -211516.44195549423 L 2548.914808266195 -211426.72457833175 L 2237.6645137659134 -210972.8806408243 L 1956.964005920797 -210983.85804854316 "  ID_2="2" _id="25" NAME_1="Aegean" ID_0="89" CCN_3="0" CCA_3="0" NAME_0="Greece" NAME_2="South Aegean" ISO="GRC" NL_title="Κύθνου" id="Kythnos" title="Kythnos" ENGTYPE_3="Municipality" ID_1="1"/>
    <path d="M 14260.069162300448 -210952.76021239866 L 14260.069162300448 -210952.76021239866 L 14456.400726812446 -210799.13342858353 L 14373.50983788373 -210705.90569824434 L 14222.248945869947 -210828.43863381632 L 14260.069162300448 -210952.76021239866 "  ID_2="2" _id="26" NAME_1="Aegean" ID_0="89" CCN_3="0" CCA_3="0" NAME_0="Greece" NAME_2="South Aegean" ISO="GRC" NL_title="Λειψών" id="Leipsoi" title="Leipsoi" ENGTYPE_3="Municipality" ID_1="1"/>
    <path d="M 14972.741056860039 -209591.97007558146 L 14972.741056860039 -209591.97007558146 L 14820.052044711107 -209789.00071309606 L 14475.30584160035 -209929.55555920632 L 14713.861825195556 -210126.7202005904 L 14931.994692181217 -210017.14676271772 L 14972.741056860039 -209591.97007558146 "  ID_2="2" _id="27" NAME_1="Aegean" ID_0="89" CCN_3="0" CCA_3="0" NAME_0="Greece" NAME_2="South Aegean" ISO="GRC" NL_title="Λέρου" id="Leros" title="Leros" ENGTYPE_3="Municipality" ID_1="1"/>
    <path d="M 2739.463984261087 -206662.02556599656 L 2739.463984261087 -206662.02556599656 L 1764.9467623741311 -206516.98454449305 L 1775.143340397789 -207119.20998407213 L 2259.4758030942685 -206769.02171492652 L 2739.463984261087 -206662.02556599656 "  ID_2="2" _id="28" NAME_1="Aegean" ID_0="89" CCN_3="0" CCA_3="0" NAME_0="Greece" NAME_2="South Aegean" ISO="GRC" NL_title="Μήλου" id="Milos" title="Milos" ENGTYPE_3="Municipality" ID_1="1"/>
    <path d="M 7453.119297744698 -211644.6343296035 L 7453.119297744698 -211644.6343296035 L 6871.50488937957 -211521.97439009164 L 7050.419380362743 -212088.11939071224 L 7453.119297744698 -211644.6343296035 "  ID_2="2" _id="29" NAME_1="Aegean" ID_0="89" CCN_3="0" CCA_3="0" NAME_0="Greece" NAME_2="South Aegean" ISO="GRC" NL_title="Μυκόνου" id="Mykonos" title="Mykonos" ENGTYPE_3="Municipality" ID_1="1"/>
    <path d="M 7179.8490093403 -209125.23591330426 L 7179.8490093403 -209125.23591330426 L 7195.867923297123 -209511.7420568658 L 8027.782855664423 -210132.18696913254 L 8315.76378014045 -209754.34431685365 L 8266.318865552059 -208946.63017671742 L 8080.1439316464275 -208489.6229556923 L 7553.636984138673 -208258.5281161268 L 7179.8490093403 -209125.23591330426 "  ID_2="2" _id="30" NAME_1="Aegean" ID_0="89" CCN_3="0" CCA_3="0" NAME_0="Greece" NAME_2="South Aegean" ISO="GRC" NL_title="Νάξου και Μικρών Κυκλάδων" id="Naxos and Lesser Cyclades" title="Naxos and Lesser Cyclades" ENGTYPE_3="Municipality" ID_1="1"/>
    <path d="M 16393.720590741937 -205993.31776368822 L 16393.720590741937 -205993.31776368822 L 16373.367382111031 -206228.79460930463 L 16693.34618708343 -206310.33916428668 L 16722.437893042097 -205899.1180724802 L 16393.720590741937 -205993.31776368822 "  ID_2="2" _id="31" NAME_1="Aegean" ID_0="89" CCN_3="0" CCA_3="0" NAME_0="Greece" NAME_2="South Aegean" ISO="GRC" NL_title="Νισύρου" id="Nisyros" title="Nisyros" ENGTYPE_3="Municipality" ID_1="1"/>
    <path d="M 6634.406986480895 -209643.04923145665 L 6634.406986480895 -209643.04923145665 L 6528.246727527892 -208853.77449049207 L 6174.821948215137 -208631.6114289792 L 5760.317569300521 -208901.12572666403 L 6102.107663601291 -209630.27268743748 L 6634.406986480895 -209643.04923145665 "  ID_2="2" _id="32" NAME_1="Aegean" ID_0="89" CCN_3="0" CCA_3="0" NAME_0="Greece" NAME_2="South Aegean" ISO="GRC" NL_title="Πάρου" id="Paros" title="Paros" ENGTYPE_3="Municipality" ID_1="1"/>
    <path d="M 13289.936169357747 -211009.50644260165 L 13289.936169357747 -211009.50644260165 L 13262.312530950605 -211285.76945282126 L 13448.497451709994 -211104.6004892186 L 13289.936169357747 -211009.50644260165 "  ID_2="2" _id="33" NAME_1="Aegean" ID_0="89" CCN_3="0" CCA_3="0" NAME_0="Greece" NAME_2="South Aegean" ISO="GRC" NL_title="Πάτμου" id="Patmos" title="Patmos" ENGTYPE_3="Municipality" ID_1="1"/>
    <path d="M 21677.23578532847 -203628.25788742313 L 21677.23578532847 -203628.25788742313 L 21344.65357049723 -203221.04123276862 L 21338.85120827165 -202752.985357962 L 20700.311731606063 -202576.69827933327 L 20226.185833787902 -201845.07261461442 L 19845.10745550574 -201550.57550127 L 19548.408007411374 -201744.51220619294 L 19688.04420126723 -202868.1793492227 L 19352.066456045864 -203330.92319473767 L 19717.125920371203 -203494.8997635987 L 19922.185995355936 -204032.1843177718 L 20307.61864201979 -204375.0720972634 L 21565.722572584105 -205005.4700683443 L 21909.010694998065 -205009.09403343333 L 22041.306551098816 -204577.2804499452 L 21677.23578532847 -203628.25788742313 "  ID_2="2" _id="34" NAME_1="Aegean" ID_0="89" CCN_3="0" CCA_3="0" NAME_0="Greece" NAME_2="South Aegean" ISO="GRC" NL_title="Ρόδου" id="Rhodes" title="Rhodes" ENGTYPE_3="Municipality" ID_1="1"/>
    <path d="M 7400.898037719306 -204636.90456060175 L 7400.898037719306 -204636.90456060175 L 7507.09824408895 -204822.9650524892 L 7779.08022831571 -204620.63372361514 L 7559.459320071854 -204432.86246580008 L 7400.898037719306 -204636.90456060175 "  ID_2="2" _id="35" NAME_1="Aegean" ID_0="89" CCN_3="0" CCA_3="0" NAME_0="Greece" NAME_2="South Aegean" ISO="GRC" NL_title="Θήρας" id="Santorini" title="Santorini" ENGTYPE_3="Municipality" ID_1="1"/>
    <path d="M 2554.7271573455987 -209612.0353661466 L 2554.7271573455987 -209612.0353661466 L 2204.198565717719 -209834.66163783416 L 2498.0018261272107 -210159.5718722937 L 2793.243193524464 -210070.12513180193 L 2554.7271573455987 -209612.0353661466 "  ID_2="2" _id="36" NAME_1="Aegean" ID_0="89" CCN_3="0" CCA_3="0" NAME_0="Greece" NAME_2="South Aegean" ISO="GRC" NL_title="Σερίφου" id="Serifos" title="Serifos" ENGTYPE_3="Municipality" ID_1="1"/>
    <path d="M 3916.085172323969 -208618.86081242902 L 3916.085172323969 -208618.86081242902 L 3668.8605993799583 -208151.2383117373 L 3441.929313943226 -208686.26776492386 L 3916.085172323969 -208618.86081242902 "  ID_2="2" _id="37" NAME_1="Aegean" ID_0="89" CCN_3="0" CCA_3="0" NAME_0="Greece" NAME_2="South Aegean" ISO="GRC" NL_title="Σίφνου" id="Sifnos" title="Sifnos" ENGTYPE_3="Municipality" ID_1="1"/>
    <path d="M 5671.59435758453 -206431.77223732934 L 5671.59435758453 -206431.77223732934 L 5734.132037882606 -206790.79234458818 L 5965.377644285252 -206937.73142028562 L 6177.728122754106 -206836.15500738152 L 5671.59435758453 -206431.77223732934 "  ID_2="2" _id="38" NAME_1="Aegean" ID_0="89" CCN_3="0" CCA_3="0" NAME_0="Greece" NAME_2="South Aegean" ISO="GRC" NL_title="Σικίνου" id="Sikinos" title="Sikinos" ENGTYPE_3="Municipality" ID_1="1"/>
    <path d="M 20131.63029928492 -205765.1849065253 L 20131.63029928492 -205765.1849065253 L 19741.85337109229 -206098.35578125867 L 20279.975029905072 -206388.28791193917 L 20131.63029928492 -205765.1849065253 "  ID_2="2" _id="39" NAME_1="Aegean" ID_0="89" CCN_3="0" CCA_3="0" NAME_0="Greece" NAME_2="South Aegean" ISO="GRC" NL_title="Σύμης" id="Symi" title="Symi" ENGTYPE_3="Municipality" ID_1="1"/>
    <path d="M 4570.583641821252 -211379.1317003081 L 4570.583641821252 -211379.1317003081 L 4713.126010216962 -212036.7872833091 L 4937.111173697501 -211661.13551142896 L 4570.583641821252 -211379.1317003081 "  ID_2="2" _id="40" NAME_1="Aegean" ID_0="89" CCN_3="0" CCA_3="0" NAME_0="Greece" NAME_2="South Aegean" ISO="GRC" NL_title="Σύρου - Ερμούπολης" title="Syros-Ermoupoli" ENGTYPE_3="Municipality" ID_1="1"/>
    <path d="M 17606.733875100188 -204821.15373378937 L 17606.733875100188 -204821.15373378937 L 17238.758249381204 -205036.2001308009 L 17629.99325827065 -205350.83160273978 L 17839.437562199633 -204985.613186744 L 17606.733875100188 -204821.15373378937 "  ID_2="2" _id="41" NAME_1="Aegean" ID_0="89" CCN_3="0" CCA_3="0" NAME_0="Greece" NAME_2="South Aegean" ISO="GRC" NL_title="Τήλου" id="Tilos" title="Tilos" ENGTYPE_3="Municipality" ID_1="1"/>
    <path d="M 6448.271999992821 -212871.55370675476 L 6448.271999992821 -212871.55370675476 L 6228.641104893989 -212245.7995465958 L 5563.966031080936 -212693.4309847395 L 5098.538683173243 -213159.91402776362 L 6448.271999992821 -212871.55370675476 "  ID_2="2" _id="42" NAME_1="Aegean" ID_0="89" CCN_3="0" CCA_3="0" NAME_0="Greece" NAME_2="South Aegean" ISO="GRC" NL_title="Τήνου" id="Tinos" title="Tinos" ENGTYPE_3="Municipality" ID_1="1"/>
  </g>
</svg>