<?xml version="1.0" encoding="utf-8"?>
<!-- (c) ammap.com | SVG map of Afghanistan - Low -->
<svg xmlns="http://www.w3.org/2000/svg" xmlns:amcharts="http://amcharts.com/ammap" xmlns:xlink="http://www.w3.org/1999/xlink" version="1.1">
	<defs>
		<style type="text/css">
			.land
			{
				fill: #CCCCCC;
				fill-opacity: 1;
				stroke:white;
				stroke-opacity: 1;
				stroke-width:0.5;
			}
		</style>

	<amcharts:ammap projection="mercator" leftLongitude="21.741943" topLatitude="40.512494" rightLongitude="23.345947" bottomLatitude="38.854147"></amcharts:ammap>

		<!-- All areas are listed in the line below. You can use this list in your script. -->		<!--{id:"AF-PIA"},{id:"AF-WAR"},{id:"AF-SAM"},{id:"AF-PAR"},{id:"AF-LOG"},{id:"AF-LAG"},{id:"AF-PAN"},{id:"AF-KAP"},{id:"AF-KAB"},{id:"AF-BGL"},{id:"AF-TAK"},{id:"AF-NAN"},{id:"AF-KDZ"},{id:"AF-KNR"},{id:"AF-NUR"},{id:"AF-BDS"},{id:"AF-PKA"},,{id:"AF-KHO"},{id:"AF-GHA"},{id:"AF-ZAB"},{id:"AF-KAN"},{id:"AF-DAY"},{id:"AF-URU"},{id:"AF-NIM"},{id:"AF-HEL"},{id:"AF-FRA"},{id:"AF-SAR"},{id:"AF-GHO"},{id:"AF-JOW"},{id:"AF-FYB"},{id:"AF-BAL"},{id:"AF-BAM"},{id:"AF-HER"},{id:"AF-BDG"}-->


	</defs>
  <g>
    <path d="M -5659.959672571946 -226164.7402418401 L -5659.959672571946 -226164.7402418401 L -6393.693842402698 -225582.15700694462 L -7449.1545166709475 -226773.11949930803 L -6938.796312223133 -227247.25860722287 L -6799.329894886452 -227659.3022994196 L -7055.7423735906395 -228260.7186048777 L -6727.514427141107 -228396.63944208217 L -6619.876113782536 -227978.53363181866 L -6007.562115952386 -227508.82836469 L -5659.959672571946 -226164.7402418401 "  ID_2="14" _id="301" NAME_1="Thessaly and Central Greece" ID_0="89" CCN_3="0" CCA_3="0" NAME_0="Greece" NAME_2="Thessaly" ISO="GRC" NL_title="Αγιάς" id="Agia" title="Agia" ENGTYPE_3="Municipality" ID_1="8"/>
    <path d="M -7321.0731129949245 -222336.75349245232 L -7321.0731129949245 -222336.75349245232 L -7818.288617464403 -222397.34149241573 L -7833.059174660245 -222954.18116485263 L -7571.3836238520735 -223172.08679843636 L -7691.815097296833 -223814.38374392074 L -7193.800644500642 -224000.73705350977 L -6935.121149917916 -223829.7577634468 L -6741.256338365614 -223635.99386604325 L -6189.422728890587 -223923.43139771218 L -6110.826187219631 -223349.14271443294 L -5738.496293118089 -223230.95211183093 L -5323.98192735028 -222745.30599272912 L -5152.367826705856 -222087.384882143 L -5607.948136482688 -221866.01889150692 L -6528.6362148370135 -222079.31471730306 L -7007.366052389058 -222439.13524600328 L -7321.0731129949245 -222336.75349245232 "  ID_2="14" _id="302" NAME_1="Thessaly and Central Greece" ID_0="89" CCN_3="0" CCA_3="0" NAME_0="Greece" NAME_2="Thessaly" ISO="GRC" NL_title="Αλμυρού" id="Almyros" title="Almyros" ENGTYPE_3="Municipality" ID_1="8"/>
    <path d="M -114.16971593138925 -223805.3556090976 L -114.16971593138925 -223805.3556090976 L -485.0615030440042 -223182.18483713022 L -900.9940020931862 -223101.5610738971 L -477.781086413992 -223636.35485919248 L -114.16971593138925 -223805.3556090976 "  ID_2="14" _id="303" NAME_1="Thessaly and Central Greece" ID_0="89" CCN_3="0" CCA_3="0" NAME_0="Greece" NAME_2="Thessaly" ISO="GRC" NL_title="Αλοννήσου" id="Alonnisos" title="Alonnisos" ENGTYPE_3="Municipality" ID_1="8"/>
    <path d="M -13760.666536785431 -223248.0591989586 L -13760.666536785431 -223248.0591989586 L -13865.828110329963 -223531.96193026606 L -13479.896120961426 -223989.95066088633 L -13588.503159166205 -224287.7762825707 L -13718.46209141071 -224479.1980556058 L -13437.20231973608 -224877.34616634788 L -12928.691683293036 -224716.95606068833 L -12360.988962672192 -224176.47630527944 L -12420.900100344907 -223785.8296312084 L -13056.024072912463 -223658.63382518006 L -13638.367521626282 -223178.78445319156 L -13760.666536785431 -223248.0591989586 "  ID_2="14" _id="304" NAME_1="Thessaly and Central Greece" ID_0="89" CCN_3="0" CCA_3="0" NAME_0="Greece" NAME_2="Thessaly" ISO="GRC" NL_title="Αργιθέας" id="Argithea" title="Argithea" ENGTYPE_3="Municipality" ID_1="8"/>
    <path d="M -10833.589511631004 -227280.41458226988 L -10833.589511631004 -227280.41458226988 L -10908.940325722855 -227848.7700568628 L -11193.315995872872 -228569.72942525236 L -10082.638005352901 -229646.12978231726 L -9877.587917221947 -230155.16935392053 L -9473.84936701488 -229863.0567880372 L -8632.00750168402 -229926.89500590434 L -8668.509453374601 -229324.9739731533 L -7923.939546859193 -228856.88656646086 L -8394.180558437503 -228406.485406422 L -9334.59267361435 -227712.20197494733 L -9766.594020890474 -226520.67612445098 L -10058.579673855395 -226475.0442252608 L -10285.021603442401 -226982.8741893607 L -10589.041415583122 -226795.93639267373 L -10833.589511631004 -227280.41458226988 "  ID_2="14" _id="305" NAME_1="Thessaly and Central Greece" ID_0="89" CCN_3="0" CCA_3="0" NAME_0="Greece" NAME_2="Thessaly" ISO="GRC" NL_title="Ελασσόνας" id="Elassona" title="Elassona" ENGTYPE_3="Municipality" ID_1="8"/>
    <path d="M -10589.041415583122 -226795.93639267373 L -10589.041415583122 -226795.93639267373 L -10285.021603442401 -226982.8741893607 L -10058.579673855395 -226475.0442252608 L -9766.594020890474 -226520.67612445098 L -9414.787111940248 -226330.81013577286 L -9551.097683383687 -225795.99200911945 L -10495.075105471036 -225832.3616418335 L -11026.335795525494 -225573.9753489698 L -11080.115004788006 -226042.50046818025 L -10699.076573922184 -226400.13346196656 L -10589.041415583122 -226795.93639267373 "  ID_2="14" _id="306" NAME_1="Thessaly and Central Greece" ID_0="89" CCN_3="0" CCA_3="0" NAME_0="Greece" NAME_2="Thessaly" ISO="GRC" NL_title="Φαρκαδόνας" id="Farkadona" title="Farkadona" ENGTYPE_3="Municipality" ID_1="8"/>
    <path d="M -9302.215292661685 -224541.0160403155 L -9302.215292661685 -224541.0160403155 L -9119.865323872911 -224917.67843211372 L -8474.285115075725 -224740.16466920462 L -7971.9563413133355 -224942.31900409056 L -7305.893094781473 -224754.06970433233 L -7035.2892964185285 -224460.18670996782 L -7193.800644500642 -224000.73705350977 L -7691.815097296833 -223814.38374392074 L -7571.3836238520735 -223172.08679843636 L -7833.059174660245 -222954.18116485263 L -8348.860214587095 -223533.096232337 L -8974.806268247654 -223668.74221965682 L -9129.232993006959 -223907.58993971805 L -9302.215292661685 -224541.0160403155 "  ID_2="14" _id="307" NAME_1="Thessaly and Central Greece" ID_0="89" CCN_3="0" CCA_3="0" NAME_0="Greece" NAME_2="Thessaly" ISO="GRC" NL_title="Φαρσάλων" id="Farsala" title="Farsala" ENGTYPE_3="Municipality" ID_1="8"/>
    <path d="M -12870.967666665862 -225820.21221433798 L -12870.967666665862 -225820.21221433798 L -13925.968945646366 -226064.81541199732 L -14676.381161803742 -225750.92242793538 L -15067.426420465225 -226699.61458746338 L -14524.570992815423 -227099.7481240601 L -14530.952592577234 -227508.56838588274 L -14164.245297327716 -227883.89400287313 L -13608.476867341818 -227778.06183758474 L -13452.36236424106 -228143.21629970314 L -12878.807347124488 -228118.84991834784 L -12092.951785810097 -227863.91205710534 L -10908.940325722855 -227848.7700568628 L -10833.589511631004 -227280.41458226988 L -11617.567544377178 -226839.62643858657 L -11898.657539532014 -226322.5117317341 L -12845.910649759584 -226357.18447317163 L -12870.967666665862 -225820.21221433798 "  ID_2="14" _id="308" NAME_1="Thessaly and Central Greece" ID_0="89" CCN_3="0" CCA_3="0" NAME_0="Greece" NAME_2="Thessaly" ISO="GRC" NL_title="Καλαμπάκας" id="Kalambaka" title="Kalambaka" ENGTYPE_3="Municipality" ID_1="8"/>
    <path d="M -10967.3434484286 -222790.09032934663 L -10967.3434484286 -222790.09032934663 L -11343.618149894224 -223110.16372439705 L -11678.11784071119 -222757.06790735153 L -11894.672784750992 -222840.23319937213 L -12022.494530220712 -223603.86657596123 L -11459.86513147647 -223853.8774061208 L -11376.205254783607 -224487.17994879818 L -10961.760796993802 -225071.64490614447 L -10551.480857358625 -225217.95180707725 L -10287.57823808859 -224762.495630962 L -10500.00861139011 -224129.21206475896 L -10461.818881358093 -223350.89505279978 L -10967.3434484286 -222790.09032934663 "  ID_2="14" _id="309" NAME_1="Thessaly and Central Greece" ID_0="89" CCN_3="0" CCA_3="0" NAME_0="Greece" NAME_2="Thessaly" ISO="GRC" NL_title="Καρδίτσας" id="Karditsa" title="Karditsa" ENGTYPE_3="Municipality" ID_1="8"/>
    <path d="M -9119.865323872911 -224917.67843211372 L -9119.865323872911 -224917.67843211372 L -9241.465259245619 -225578.40274752563 L -8705.360944958895 -225674.02916846416 L -8499.162368608448 -226054.83705434803 L -8021.790743211732 -226151.23424546522 L -7959.662523931549 -226801.85494878367 L -7449.1545166709475 -226773.11949930803 L -6393.693842402698 -225582.15700694462 L -7305.893094781473 -224754.06970433233 L -7971.9563413133355 -224942.31900409056 L -8474.285115075725 -224740.16466920462 L -9119.865323872911 -224917.67843211372 "  ID_2="14" _id="310" NAME_1="Thessaly and Central Greece" ID_0="89" CCN_3="0" CCA_3="0" NAME_0="Greece" NAME_2="Thessaly" ISO="GRC" NL_title="Κιλελέρ" id="Kileler" title="Kileler" ENGTYPE_3="Municipality" ID_1="8"/>
    <path d="M -12022.494530220712 -223603.86657596123 L -12022.494530220712 -223603.86657596123 L -12420.900100344907 -223785.8296312084 L -12360.988962672192 -224176.47630527944 L -12172.327302100228 -224555.69027951642 L -11376.205254783607 -224487.17994879818 L -11459.86513147647 -223853.8774061208 L -12022.494530220712 -223603.86657596123 "  ID_2="14" _id="311" NAME_1="Thessaly and Central Greece" ID_0="89" CCN_3="0" CCA_3="0" NAME_0="Greece" NAME_2="Thessaly" ISO="GRC" NL_title="Λίμνης Πλαστήρα" id="Lake Plastiras" title="Lake Plastiras" ENGTYPE_3="Municipality" ID_1="8"/>
    <path d="M -7959.662523931549 -226801.85494878367 L -7959.662523931549 -226801.85494878367 L -8021.790743211732 -226151.23424546522 L -8499.162368608448 -226054.83705434803 L -8705.360944958895 -225674.02916846416 L -9241.465259245619 -225578.40274752563 L -9551.097683383687 -225795.99200911945 L -9414.787111940248 -226330.81013577286 L -9277.108341485275 -226576.97627075986 L -8702.374875586627 -226528.87425163982 L -8289.408472202142 -227171.91283333287 L -7959.662523931549 -226801.85494878367 "  ID_2="14" _id="312" NAME_1="Thessaly and Central Greece" ID_0="89" CCN_3="0" CCA_3="0" NAME_0="Greece" NAME_2="Thessaly" ISO="GRC" NL_title="Λαρισαίων" id="Larissa" title="Larissa" ENGTYPE_3="Municipality" ID_1="8"/>
    <path d="M -10961.760796993802 -225071.64490614447 L -10961.760796993802 -225071.64490614447 L -11376.205254783607 -224487.17994879818 L -12172.327302100228 -224555.69027951642 L -12360.988962672192 -224176.47630527944 L -12928.691683293036 -224716.95606068833 L -12036.046691218155 -225087.03396875318 L -11804.00213648788 -225332.86141766634 L -11523.661155389336 -225195.49582231932 L -11110.125501321543 -225501.07165309848 L -10961.760796993802 -225071.64490614447 "  ID_2="14" _id="313" NAME_1="Thessaly and Central Greece" ID_0="89" CCN_3="0" CCA_3="0" NAME_0="Greece" NAME_2="Thessaly" ISO="GRC" NL_title="Μουζακίου" id="Mouzaki" title="Mouzaki" ENGTYPE_3="Municipality" ID_1="8"/>
    <path d="M -10287.57823808859 -224762.495630962 L -10287.57823808859 -224762.495630962 L -10551.480857358625 -225217.95180707725 L -10961.760796993802 -225071.64490614447 L -11110.125501321543 -225501.07165309848 L -11026.335795525494 -225573.9753489698 L -10495.075105471036 -225832.3616418335 L -9551.097683383687 -225795.99200911945 L -9241.465259245619 -225578.40274752563 L -9119.865323872911 -224917.67843211372 L -9302.215292661685 -224541.0160403155 L -9823.608970877694 -225103.8978536171 L -10287.57823808859 -224762.495630962 "  ID_2="14" _id="314" NAME_1="Thessaly and Central Greece" ID_0="89" CCN_3="0" CCA_3="0" NAME_0="Greece" NAME_2="Thessaly" ISO="GRC" NL_title="Παλαμά" id="Palamas" title="Palamas" ENGTYPE_3="Municipality" ID_1="8"/>
    <path d="M -11804.00213648788 -225332.86141766634 L -11804.00213648788 -225332.86141766634 L -12036.046691218155 -225087.03396875318 L -12928.691683293036 -224716.95606068833 L -13437.20231973608 -224877.34616634788 L -13718.46209141071 -224479.1980556058 L -14119.973573156496 -224489.4014705358 L -14764.904636437675 -225463.25212319926 L -14676.381161803742 -225750.92242793538 L -13925.968945646366 -226064.81541199732 L -12870.967666665862 -225820.21221433798 L -12065.957319210507 -225827.72461654354 L -11804.00213648788 -225332.86141766634 "  ID_2="14" _id="315" NAME_1="Thessaly and Central Greece" ID_0="89" CCN_3="0" CCA_3="0" NAME_0="Greece" NAME_2="Thessaly" ISO="GRC" NL_title="Πύλης" id="Pyli" title="Pyli" ENGTYPE_3="Municipality" ID_1="8"/>
    <path d="M -7193.800644500642 -224000.73705350977 L -7193.800644500642 -224000.73705350977 L -7035.2892964185285 -224460.18670996782 L -7305.893094781473 -224754.06970433233 L -6393.693842402698 -225582.15700694462 L -5659.959672571946 -226164.7402418401 L -5050.531875572895 -225654.84018301906 L -5101.934213562487 -225109.25200437938 L -5983.334007934521 -225142.18007315558 L -6281.910984598271 -224091.60538609777 L -6935.121149917916 -223829.7577634468 L -7193.800644500642 -224000.73705350977 "  ID_2="14" _id="316" NAME_1="Thessaly and Central Greece" ID_0="89" CCN_3="0" CCA_3="0" NAME_0="Greece" NAME_2="Thessaly" ISO="GRC" NL_title="Ρήγα Φεραίου" id="Rigas Feraios" title="Rigas Feraios" ENGTYPE_3="Municipality" ID_1="8"/>
    <path d="M -2577.996527369869 -223155.93553480774 L -2577.996527369869 -223155.93553480774 L -2893.6310508147044 -222960.87574916444 L -3183.060069132554 -223193.44234248713 L -2707.4261563474256 -223478.6527910534 L -2577.996527369869 -223155.93553480774 "  ID_2="14" _id="317" NAME_1="Thessaly and Central Greece" ID_0="89" CCN_3="0" CCA_3="0" NAME_0="Greece" NAME_2="Thessaly" ISO="GRC" NL_title="Σκιάθου" id="Skiathos" title="Skiathos" ENGTYPE_3="Municipality" ID_1="8"/>
    <path d="M -1901.6568079816832 -223330.43432849832 L -1901.6568079816832 -223330.43432849832 L -1449.3521863450542 -222977.7671193826 L -1773.7052334088287 -222666.60902229787 L -1901.6568079816832 -223330.43432849832 "  ID_2="14" _id="318" NAME_1="Thessaly and Central Greece" ID_0="89" CCN_3="0" CCA_3="0" NAME_0="Greece" NAME_2="Thessaly" ISO="GRC" NL_title="Σκοπέλου" id="Skopelos" title="Skopelos" ENGTYPE_3="Municipality" ID_1="8"/>
    <path d="M -9129.232993006959 -223907.58993971805 L -9129.232993006959 -223907.58993971805 L -9607.523408979745 -222912.31640266595 L -9988.21229995307 -222692.67691699823 L -10212.886556365958 -222409.22340488012 L -10796.388480153963 -222509.82004637644 L -10967.3434484286 -222790.09032934663 L -10461.818881358093 -223350.89505279978 L -10500.00861139011 -224129.21206475896 L -10287.57823808859 -224762.495630962 L -9823.608970877694 -225103.8978536171 L -9302.215292661685 -224541.0160403155 L -9129.232993006959 -223907.58993971805 "  ID_2="14" _id="319" NAME_1="Thessaly and Central Greece" ID_0="89" CCN_3="0" CCA_3="0" NAME_0="Greece" NAME_2="Thessaly" ISO="GRC" NL_title="Σοφάδων" id="Sofades" title="Sofades" ENGTYPE_3="Municipality" ID_1="8"/>
    <path d="M -4874.563506545615 -224210.3721359063 L -4874.563506545615 -224210.3721359063 L -4693.322078559675 -224610.3351568426 L -4116.790978925228 -224553.52011686563 L -3393.962453759536 -223354.81206783096 L -3652.831698569042 -223020.87373267493 L -4079.000723057308 -223307.86155483229 L -4487.662792329955 -224045.84644706917 L -4874.563506545615 -224210.3721359063 "  ID_2="14" _id="320" NAME_1="Thessaly and Central Greece" ID_0="89" CCN_3="0" CCA_3="0" NAME_0="Greece" NAME_2="Thessaly" ISO="GRC" NL_title="Νοτίου Πηλίου" id="South Pelion" title="South Pelion" ENGTYPE_3="Municipality" ID_1="8"/>
    <path d="M -7959.662523931549 -226801.85494878367 L -7959.662523931549 -226801.85494878367 L -8289.408472202142 -227171.91283333287 L -8191.966736867213 -227643.12669848558 L -8394.180558437503 -228406.485406422 L -7923.939546859193 -228856.88656646086 L -7686.132577320282 -228491.9299978843 L -7225.0295372328965 -228661.849652545 L -6720.243997364872 -228428.54841298843 L -6727.514427141107 -228396.63944208217 L -7055.7423735906395 -228260.7186048777 L -6799.329894886452 -227659.3022994196 L -6938.796312223133 -227247.25860722287 L -7449.1545166709475 -226773.11949930803 L -7959.662523931549 -226801.85494878367 "  ID_2="14" _id="321" NAME_1="Thessaly and Central Greece" ID_0="89" CCN_3="0" CCA_3="0" NAME_0="Greece" NAME_2="Thessaly" ISO="GRC" NL_title="Τεμπών" id="Tempi" title="Tempi" ENGTYPE_3="Municipality" ID_1="8"/>
    <path d="M -11026.335795525494 -225573.9753489698 L -11026.335795525494 -225573.9753489698 L -11110.125501321543 -225501.07165309848 L -11523.661155389336 -225195.49582231932 L -11804.00213648788 -225332.86141766634 L -12065.957319210507 -225827.72461654354 L -12870.967666665862 -225820.21221433798 L -12845.910649759584 -226357.18447317163 L -11898.657539532014 -226322.5117317341 L -11617.567544377178 -226839.62643858657 L -10833.589511631004 -227280.41458226988 L -10589.041415583122 -226795.93639267373 L -10699.076573922184 -226400.13346196656 L -11080.115004788006 -226042.50046818025 L -11026.335795525494 -225573.9753489698 "  ID_2="14" _id="322" NAME_1="Thessaly and Central Greece" ID_0="89" CCN_3="0" CCA_3="0" NAME_0="Greece" NAME_2="Thessaly" ISO="GRC" NL_title="Τρικκαίων" id="Trikala" title="Trikala" ENGTYPE_3="Municipality" ID_1="8"/>
    <path d="M -8289.408472202142 -227171.91283333287 L -8289.408472202142 -227171.91283333287 L -8702.374875586627 -226528.87425163982 L -9277.108341485275 -226576.97627075986 L -9414.787111940248 -226330.81013577286 L -9766.594020890474 -226520.67612445098 L -9334.59267361435 -227712.20197494733 L -8394.180558437503 -228406.485406422 L -8191.966736867213 -227643.12669848558 L -8289.408472202142 -227171.91283333287 "  ID_2="14" _id="323" NAME_1="Thessaly and Central Greece" ID_0="89" CCN_3="0" CCA_3="0" NAME_0="Greece" NAME_2="Thessaly" ISO="GRC" NL_title="Τυρνάβου" id="Tyrnavos" title="Tyrnavos" ENGTYPE_3="Municipality" ID_1="8"/>
    <path d="M -6183.55045868727 -223932.90040476355 L -6183.55045868727 -223932.90040476355 L -6189.422728890587 -223923.74100803037 L -6189.422728890587 -223923.43139771218 L -6741.256338365614 -223635.99386604325 L -6935.121149917916 -223829.7577634468 L -6281.910984598271 -224091.60538609777 L -5983.334007934521 -225142.18007315558 L -5101.934213562487 -225109.25200437938 L -4693.322078559675 -224610.3351568426 L -4874.563506545615 -224210.3721359063 L -5510.146874401201 -224508.36232473902 L -6183.55045868727 -223932.90040476355 "  ID_2="14" _id="324" NAME_1="Thessaly and Central Greece" ID_0="89" CCN_3="0" CCA_3="0" NAME_0="Greece" NAME_2="Thessaly" ISO="GRC" NL_title="Βόλου" id="Volos" title="Volos" ENGTYPE_3="Municipality" ID_1="8"/>
    <path d="M -4116.790978925228 -224553.52011686563 L -4116.790978925228 -224553.52011686563 L -4693.322078559675 -224610.3351568426 L -5101.934213562487 -225109.25200437938 L -5050.531875572895 -225654.84018301906 L -4116.790978925228 -224553.52011686563 "  ID_2="14" _id="325" NAME_1="Thessaly and Central Greece" ID_0="89" CCN_3="0" CCA_3="0" NAME_0="Greece" NAME_2="Thessaly" ISO="GRC" NL_title="Ζαγοράς - Μουρεσίου" title="Zagora-Mouresi" ENGTYPE_3="Municipality" ID_1="8"/>
  </g>
</svg>