<?xml version="1.0" encoding="utf-8"?>
<!-- (c) ammap.com | SVG map of Afghanistan - Low -->
<svg xmlns="http://www.w3.org/2000/svg" xmlns:amcharts="http://amcharts.com/ammap" xmlns:xlink="http://www.w3.org/1999/xlink" version="1.1">
	<defs>
		<style type="text/css">
			.land
			{
				fill: #CCCCCC;
				fill-opacity: 1;
				stroke:white;
				stroke-opacity: 1;
				stroke-width:0.5;
			}
		</style>

	<amcharts:ammap projection="mercator" leftLongitude="19.374078" topLatitude="39.026385" rightLongitude="22.192383" bottomLatitude="37.316387"></amcharts:ammap>

		<!-- All areas are listed in the line below. You can use this list in your script. -->		<!--{id:"AF-PIA"},{id:"AF-WAR"},{id:"AF-SAM"},{id:"AF-PAR"},{id:"AF-LOG"},{id:"AF-LAG"},{id:"AF-PAN"},{id:"AF-KAP"},{id:"AF-KAB"},{id:"AF-BGL"},{id:"AF-TAK"},{id:"AF-NAN"},{id:"AF-KDZ"},{id:"AF-KNR"},{id:"AF-NUR"},{id:"AF-BDS"},{id:"AF-PKA"},,{id:"AF-KHO"},{id:"AF-GHA"},{id:"AF-ZAB"},{id:"AF-KAN"},{id:"AF-DAY"},{id:"AF-URU"},{id:"AF-NIM"},{id:"AF-HEL"},{id:"AF-FRA"},{id:"AF-SAR"},{id:"AF-GHO"},{id:"AF-JOW"},{id:"AF-FYB"},{id:"AF-BAL"},{id:"AF-BAM"},{id:"AF-HER"},{id:"AF-BDG"}-->


	</defs>
  <g>
    <path d="M -14389.488804424194 -219118.75342100955 L -14389.488804424194 -219118.75342100955 L -14500.482700755385 -220456.9515568006 L -13058.830378911729 -221322.9190126979 L -12408.825993753064 -221228.98608043676 L -12836.273335564574 -220734.60934159998 L -12444.249365202175 -220187.2111247951 L -12342.023926760075 -219616.45258709215 L -12684.103639828798 -219133.95149738135 L -12154.360951596282 -218375.52709985312 L -12555.423024907835 -218068.61696613044 L -13725.622665791649 -218932.37973780438 L -14389.488804424194 -219118.75342100955 "  ID_2="12" _id="257" NAME_1="Peloponnese, Western Greece and the Ionian Islands" ID_0="89" CCN_3="0" CCA_3="0" NAME_0="Greece" NAME_2="West Greece" ISO="GRC" NL_title="Αγρινίου" id="Agrinio" title="Agrinio" ENGTYPE_3="Municipality" ID_1="7"/>
    <path d="M -10435.044125548999 -216245.7827188845 L -10435.044125548999 -216245.7827188845 L -11063.317116212007 -216481.39478824043 L -10940.818363971983 -217028.33767971693 L -11276.516477278925 -217645.05566644683 L -10372.33666873173 -217461.51560109953 L -10040.7431524543 -217081.6466368238 L -9354.246802459715 -216604.08429393798 L -8711.373031119458 -216570.77289373442 L -8545.571279554137 -216382.07685508093 L -8625.396204277602 -215464.58747139815 L -9208.978022898624 -215079.41139772453 L -9589.587019038048 -216254.56818247997 L -10435.044125548999 -216245.7827188845 "  ID_2="12" _id="258" NAME_1="Peloponnese, Western Greece and the Ionian Islands" ID_0="89" CCN_3="0" CCA_3="0" NAME_0="Greece" NAME_2="West Greece" ISO="GRC" NL_title="Αιγιαλείας" id="Aigialeia" title="Aigialeia" ENGTYPE_3="Municipality" ID_1="7"/>
    <path d="M -17153.780107947536 -221029.9174875762 L -17153.780107947536 -221029.9174875762 L -17109.328620402746 -221089.57037469666 L -17108.040316225408 -221091.5196057397 L -16782.06939879942 -221545.49651245834 L -15814.862554105024 -221715.68221896832 L -15275.262840886671 -221177.19102906022 L -14780.384260273771 -220438.9709684654 L -15030.005678198555 -219924.30005650615 L -15704.048421146837 -220360.70435767053 L -16257.859427730653 -220108.29452192684 L -16401.00100737105 -220716.23391203323 L -16921.715579509088 -220451.34215555812 L -17153.780107947536 -221029.9174875762 "  ID_2="12" _id="259" NAME_1="Peloponnese, Western Greece and the Ionian Islands" ID_0="89" CCN_3="0" CCA_3="0" NAME_0="Greece" NAME_2="West Greece" ISO="GRC" NL_title="Άκτιου - Βόνιτσας" title="Aktio-Vonitsa" ENGTYPE_3="Municipality" ID_1="7"/>
    <path d="M -15148.789320719103 -222404.4911791119 L -15148.789320719103 -222404.4911791119 L -15049.779649292095 -222907.60491667606 L -14296.820785343223 -222860.51836744993 L -13760.666536785431 -223248.0591989586 L -13638.367521626282 -223178.78445319156 L -13434.78550104712 -222789.8586753778 L -13754.964043101309 -222191.8210272443 L -13082.419328267097 -221873.72578923212 L -13058.830378911729 -221322.9190126979 L -14500.482700755385 -220456.9515568006 L -14780.384260273771 -220438.9709684654 L -15275.262840886671 -221177.19102906022 L -14975.657218252769 -221564.21191709247 L -14913.109551100884 -222059.88519930112 L -15148.789320719103 -222404.4911791119 "  ID_2="12" _id="260" NAME_1="Peloponnese, Western Greece and the Ionian Islands" ID_0="89" CCN_3="0" CCA_3="0" NAME_0="Greece" NAME_2="West Greece" ISO="GRC" NL_title="Αμφιλοχίας" id="Amfilochia" title="Amfilochia" ENGTYPE_3="Municipality" ID_1="7"/>
    <path d="M -12858.154532871235 -214811.9183974117 L -12858.154532871235 -214811.9183974117 L -13534.87375271475 -214771.51470452826 L -14160.88971435393 -214614.74154830226 L -14702.866298845185 -214709.24488255262 L -15150.377230518769 -214423.76596825174 L -14792.408432595477 -214908.46030812088 L -14380.80024136752 -215177.70373741444 L -13842.638635138394 -216093.81425772444 L -13425.47775303702 -215545.994880132 L -13300.482287273851 -215079.0567705057 L -12858.154532871235 -214811.9183974117 "  ID_2="12" _id="261" NAME_1="Peloponnese, Western Greece and the Ionian Islands" ID_0="89" CCN_3="0" CCA_3="0" NAME_0="Greece" NAME_2="West Greece" ISO="GRC" NL_title="Κυλλήνης" title="Andravida-Kyllini" ENGTYPE_3="Municipality" ID_1="7"/>
    <path d="M -10748.881015258034 -212360.35201453662 L -10748.881015258034 -212360.35201453662 L -10659.908132190132 -211957.5967833216 L -11169.287624937946 -211385.6933618434 L -11250.081274508517 -211806.24893228797 L -11626.166225747076 -211904.79340449875 L -11682.951478089693 -212324.86006526987 L -12240.747239455713 -212462.58514271516 L -12644.186184040169 -212235.44882224486 L -12926.344772583016 -212532.2559087679 L -12685.671575920876 -212967.9156301956 L -11993.972074945652 -213029.23293667543 L -11542.466401636653 -212638.25502560908 L -11115.428520842735 -212758.01665000402 L -10748.881015258034 -212360.35201453662 "  ID_2="12" _id="262" NAME_1="Peloponnese, Western Greece and the Ionian Islands" ID_0="89" CCN_3="0" CCA_3="0" NAME_0="Greece" NAME_2="West Greece" ISO="GRC" NL_title="Ανδριτσαίνας - Κρεστένων" title="Andritsaina-Krestena" ENGTYPE_3="Municipality" ID_1="7"/>
    <path d="M -12165.396425362995 -216170.45261921655 L -12165.396425362995 -216170.45261921655 L -11063.317116212007 -216481.39478824043 L -10435.044125548999 -216245.7827188845 L -11059.062716370905 -215887.5168090499 L -11024.358398415823 -215467.29998749052 L -11468.473799700163 -215090.96225379768 L -12257.135667013785 -214394.701108991 L -12614.485279982751 -214727.95030777052 L -12699.363552875247 -214835.9951199908 L -12436.209947661791 -215429.85845970322 L -11990.756307929678 -215775.63659550255 L -12165.396425362995 -216170.45261921655 "  ID_2="12" _id="263" NAME_1="Peloponnese, Western Greece and the Ionian Islands" ID_0="89" CCN_3="0" CCA_3="0" NAME_0="Greece" NAME_2="West Greece" ISO="GRC" NL_title="Ερυμάνθου" id="Erymanthos" title="Erymanthos" ENGTYPE_3="Municipality" ID_1="7"/>
    <path d="M -13534.87375271475 -214771.51470452826 L -13534.87375271475 -214771.51470452826 L -12858.154532871235 -214811.9183974117 L -12699.363552875247 -214835.9951199908 L -12614.485279982751 -214727.95030777052 L -12242.235280714809 -214090.54701771404 L -13143.64873067908 -213964.19204337886 L -14095.705517722574 -213610.4249619052 L -14348.253083895379 -214031.54865798852 L -13974.49506965957 -214619.42325950952 L -13534.87375271475 -214771.51470452826 "  ID_2="12" _id="264" NAME_1="Peloponnese, Western Greece and the Ionian Islands" ID_0="89" CCN_3="0" CCA_3="0" NAME_0="Greece" NAME_2="West Greece" ISO="GRC" NL_title="Ηλίδας" id="Ilida" title="Ilida" ENGTYPE_3="Municipality" ID_1="7"/>
    <path d="M -9208.978022898624 -215079.41139772453 L -9208.978022898624 -215079.41139772453 L -9300.457606342543 -214649.21011616476 L -9096.565993286076 -214313.03026145927 L -9562.65247356357 -214022.0701500721 L -9932.975009992879 -214204.34243325176 L -10207.243983806946 -213927.24462040566 L -10989.94369922926 -214267.00315163832 L -11055.637225419112 -214488.1498994985 L -11468.473799700163 -215090.96225379768 L -11024.358398415823 -215467.29998749052 L -11059.062716370905 -215887.5168090499 L -10435.044125548999 -216245.7827188845 L -9589.587019038048 -216254.56818247997 L -9208.978022898624 -215079.41139772453 "  ID_2="12" _id="265" NAME_1="Peloponnese, Western Greece and the Ionian Islands" ID_0="89" CCN_3="0" CCA_3="0" NAME_0="Greece" NAME_2="West Greece" ISO="GRC" NL_title="Καλαβρύτων" id="Kalavryta" title="Kalavryta" ENGTYPE_3="Municipality" ID_1="7"/>
    <path d="M -12997.610963353824 -217403.68524518673 L -12997.610963353824 -217403.68524518673 L -13276.863377355918 -217841.6575060139 L -13751.009248882834 -218160.81227510943 L -14516.062193132035 -217494.8882863671 L -14926.2023168103 -217402.20903253325 L -15157.447923213229 -217880.6358866244 L -15125.460029569704 -218354.84443349828 L -14734.634481697884 -218596.25693932772 L -14389.488804424194 -219118.75342100955 L -13725.622665791649 -218932.37973780438 L -12555.423024907835 -218068.61696613044 L -12811.66572709253 -217988.9766313948 L -12997.610963353824 -217403.68524518673 "  ID_2="12" _id="266" NAME_1="Peloponnese, Western Greece and the Ionian Islands" ID_0="89" CCN_3="0" CCA_3="0" NAME_0="Greece" NAME_2="West Greece" ISO="GRC" NL_title="Ιεράς Πόλης Μεσολογγίου" id="Missolonghi" title="Missolonghi" ENGTYPE_3="Municipality" ID_1="7"/>
    <path d="M -12997.610963353824 -217403.68524518673 L -12997.610963353824 -217403.68524518673 L -12811.66572709253 -217988.9766313948 L -12555.423024907835 -218068.61696613044 L -12154.360951596282 -218375.52709985312 L -11792.247609226835 -218708.81626891633 L -11910.711672416286 -219258.33833216058 L -11598.542587339933 -219518.68656133968 L -11427.37789512856 -220015.6743037079 L -10771.671016286671 -220337.65707169744 L -10762.033702091661 -220612.55537167928 L -10484.698764073242 -220514.81674718132 L -10573.61172601718 -219847.4220119975 L -10402.476994368388 -219289.48478151343 L -10474.272488406177 -218808.99602076947 L -11070.068229575953 -218504.66717545036 L -11241.472606284824 -217891.74402689925 L -11724.99613379993 -217598.73762864157 L -12369.298025273556 -217773.00715264294 L -12997.610963353824 -217403.68524518673 "  ID_2="12" _id="267" NAME_1="Peloponnese, Western Greece and the Ionian Islands" ID_0="89" CCN_3="0" CCA_3="0" NAME_0="Greece" NAME_2="West Greece" ISO="GRC" NL_title="Ναυπακτίας" id="Nafpaktia" title="Nafpaktia" ENGTYPE_3="Municipality" ID_1="7"/>
    <path d="M -12685.671575920876 -212967.9156301956 L -12685.671575920876 -212967.9156301956 L -12893.627838591365 -213149.11512144862 L -12242.235280714809 -214090.54701771404 L -12614.485279982751 -214727.95030777052 L -12257.135667013785 -214394.701108991 L -11468.473799700163 -215090.96225379768 L -11055.637225419112 -214488.1498994985 L -11558.834855486255 -213974.20016994473 L -11461.972357689292 -213306.53016221244 L -11542.466401636653 -212638.25502560908 L -11993.972074945652 -213029.23293667543 L -12685.671575920876 -212967.9156301956 "  ID_2="12" _id="268" NAME_1="Peloponnese, Western Greece and the Ionian Islands" ID_0="89" CCN_3="0" CCA_3="0" NAME_0="Greece" NAME_2="West Greece" ISO="GRC" NL_title="Αρχαίας Ολυμπίας" id="Olympia" title="Olympia" ENGTYPE_3="Municipality" ID_1="7"/>
    <path d="M -11063.317116212007 -216481.39478824043 L -11063.317116212007 -216481.39478824043 L -12165.396425362995 -216170.45261921655 L -12178.998520630574 -216531.9251858818 L -11839.87491637094 -217196.55043562665 L -11276.516477278925 -217645.05566644683 L -10940.818363971983 -217028.33767971693 L -11063.317116212007 -216481.39478824043 "  ID_2="12" _id="269" NAME_1="Peloponnese, Western Greece and the Ionian Islands" ID_0="89" CCN_3="0" CCA_3="0" NAME_0="Greece" NAME_2="West Greece" ISO="GRC" NL_title="Πατρέων" id="Patras" title="Patras" ENGTYPE_3="Municipality" ID_1="7"/>
    <path d="M -14348.253083895379 -214031.54865798852 L -14348.253083895379 -214031.54865798852 L -15150.377230518769 -214423.76596825174 L -14702.866298845185 -214709.24488255262 L -14160.88971435393 -214614.74154830226 L -13534.87375271475 -214771.51470452826 L -13974.49506965957 -214619.42325950952 L -14348.253083895379 -214031.54865798852 "  ID_2="12" _id="270" NAME_1="Peloponnese, Western Greece and the Ionian Islands" ID_0="89" CCN_3="0" CCA_3="0" NAME_0="Greece" NAME_2="West Greece" ISO="GRC" NL_title="Πηνειού" id="Pineios" title="Pineios" ENGTYPE_3="Municipality" ID_1="7"/>
    <path d="M -14095.705517722574 -213610.4249619052 L -14095.705517722574 -213610.4249619052 L -13143.64873067908 -213964.19204337886 L -12242.235280714809 -214090.54701771404 L -12893.627838591365 -213149.11512144862 L -12685.671575920876 -212967.9156301956 L -12926.344772583016 -212532.2559087679 L -13652.109432851106 -213090.10379805756 L -14086.986994104216 -213124.99505754525 L -14095.705517722574 -213610.4249619052 "  ID_2="12" _id="271" NAME_1="Peloponnese, Western Greece and the Ionian Islands" ID_0="89" CCN_3="0" CCA_3="0" NAME_0="Greece" NAME_2="West Greece" ISO="GRC" NL_title="Πύργου" id="Pyrgos" title="Pyrgos" ENGTYPE_3="Municipality" ID_1="7"/>
    <path d="M -12154.360951596282 -218375.52709985312 L -12154.360951596282 -218375.52709985312 L -12684.103639828798 -219133.95149738135 L -12342.023926760075 -219616.45258709215 L -12444.249365202175 -220187.2111247951 L -11427.37789512856 -220015.6743037079 L -11598.542587339933 -219518.68656133968 L -11910.711672416286 -219258.33833216058 L -11792.247609226835 -218708.81626891633 L -12154.360951596282 -218375.52709985312 "  ID_2="12" _id="272" NAME_1="Peloponnese, Western Greece and the Ionian Islands" ID_0="89" CCN_3="0" CCA_3="0" NAME_0="Greece" NAME_2="West Greece" ISO="GRC" NL_title="Θέρμου" id="Thermo" title="Thermo" ENGTYPE_3="Municipality" ID_1="7"/>
    <path d="M -12165.396425362995 -216170.45261921655 L -12165.396425362995 -216170.45261921655 L -11990.756307929678 -215775.63659550255 L -12436.209947661791 -215429.85845970322 L -12699.363552875247 -214835.9951199908 L -12858.154532871235 -214811.9183974117 L -13300.482287273851 -215079.0567705057 L -13425.47775303702 -215545.994880132 L -13842.638635138394 -216093.81425772444 L -13769.924350524549 -216809.49159252827 L -12561.295295111435 -216345.0981798561 L -12178.998520630574 -216531.9251858818 L -12165.396425362995 -216170.45261921655 "  ID_2="12" _id="273" NAME_1="Peloponnese, Western Greece and the Ionian Islands" ID_0="89" CCN_3="0" CCA_3="0" NAME_0="Greece" NAME_2="West Greece" ISO="GRC" NL_title="Δυτικής Αχαΐας" id="West Achaea" title="West Achaea" ENGTYPE_3="Municipality" ID_1="7"/>
    <path d="M -16257.859427730653 -220108.29452192684 L -16257.859427730653 -220108.29452192684 L -15704.048421146837 -220360.70435767053 L -15030.005678198555 -219924.30005650615 L -14780.384260273771 -220438.9709684654 L -14500.482700755385 -220456.9515568006 L -14389.488804424194 -219118.75342100955 L -14734.634481697884 -218596.25693932772 L -15125.460029569704 -218354.84443349828 L -15660.695487551424 -218963.40296311615 L -15602.512075635304 -219469.4275863987 L -15769.781894752115 -219866.01999745212 L -16257.859427730653 -220108.29452192684 "  ID_2="12" _id="274" NAME_1="Peloponnese, Western Greece and the Ionian Islands" ID_0="89" CCN_3="0" CCA_3="0" NAME_0="Greece" NAME_2="West Greece" ISO="GRC" NL_title="Ξηρομέρου" id="Xiromero" title="Xiromero" ENGTYPE_3="Municipality" ID_1="7"/>
    <path d="M -11269.106231545762 -211352.23231305595 L -11269.106231545762 -211352.23231305595 L -12133.8080058833 -211260.15699247236 L -12644.186184040169 -212235.44882224486 L -12240.747239455713 -212462.58514271516 L -11682.951478089693 -212324.86006526987 L -11626.166225747076 -211904.79340449875 L -11250.081274508517 -211806.24893228797 L -11169.287624937946 -211385.6933618434 L -11269.106231545762 -211352.23231305595 "  ID_2="12" _id="275" NAME_1="Peloponnese, Western Greece and the Ionian Islands" ID_0="89" CCN_3="0" CCA_3="0" NAME_0="Greece" NAME_2="West Greece" ISO="GRC" NL_title="Ζαχάρως" id="Zacharo" title="Zacharo" ENGTYPE_3="Municipality" ID_1="7"/>
  </g>
</svg>