<?xml version="1.0" encoding="utf-8"?>
<!-- (c) ammap.com | SVG map of Afghanistan - Low -->
<svg xmlns="http://www.w3.org/2000/svg" xmlns:amcharts="http://amcharts.com/ammap" xmlns:xlink="http://www.w3.org/1999/xlink" version="1.1">
	<defs>
		<style type="text/css">
			.land
			{
				fill: #CCCCCC;
				fill-opacity: 1;
				stroke:white;
				stroke-opacity: 1;
				stroke-width:0.5;
			}
		</style>

	<amcharts:ammap projection="mercator" leftLongitude="20.808105" topLatitude="41.749800" rightLongitude="22.873535" bottomLatitude="40.034712"></amcharts:ammap>

		<!-- All areas are listed in the line below. You can use this list in your script. -->		<!--{id:"AF-PIA"},{id:"AF-WAR"},{id:"AF-SAM"},{id:"AF-PAR"},{id:"AF-LOG"},{id:"AF-LAG"},{id:"AF-PAN"},{id:"AF-KAP"},{id:"AF-KAB"},{id:"AF-BGL"},{id:"AF-TAK"},{id:"AF-NAN"},{id:"AF-KDZ"},{id:"AF-KNR"},{id:"AF-NUR"},{id:"AF-BDS"},{id:"AF-PKA"},,{id:"AF-KHO"},{id:"AF-GHA"},{id:"AF-ZAB"},{id:"AF-KAN"},{id:"AF-DAY"},{id:"AF-URU"},{id:"AF-NIM"},{id:"AF-HEL"},{id:"AF-FRA"},{id:"AF-SAR"},{id:"AF-GHO"},{id:"AF-JOW"},{id:"AF-FYB"},{id:"AF-BAL"},{id:"AF-BAM"},{id:"AF-HER"},{id:"AF-BDG"}-->


	</defs>
  <g>
    <path d="M -11412.557403662582 -233638.68221544687 L -11412.557403662582 -233638.68221544687 L -11682.282358865798 -233010.45277818374 L -12607.384626726925 -232862.73373936687 L -13044.519217003897 -232461.40098790175 L -13698.038974800864 -233319.24797506264 L -13506.910561268904 -233193.5890945897 L -12908.897738491609 -233550.07164075118 L -12274.23316121211 -234139.37338950223 L -12430.617309372916 -234458.50724569202 L -11990.77628163815 -234707.990814938 L -11412.557403662582 -233638.68221544687 "  ID_2="7" _id="152" NAME_1="Epirus and Western Macedonia" ID_0="89" CCN_3="0" CCA_3="0" NAME_0="Greece" NAME_2="West Macedonia" ISO="GRC" NL_title="Αμυνταίου" id="Amyntaio" title="Amyntaio" ENGTYPE_3="Municipality" ID_1="5"/>
    <path d="M -11774.471008950872 -229547.78313664635 L -11774.471008950872 -229547.78313664635 L -11513.105050618238 -229509.53122245517 L -11488.577336978895 -228610.6405508629 L -11193.315995872872 -228569.72942525236 L -10908.940325722855 -227848.7700568628 L -12092.951785810097 -227863.91205710534 L -12878.807347124488 -228118.84991834784 L -12915.0496406091 -228609.52000734082 L -12663.29103590983 -228890.39148399016 L -12287.975072436919 -228607.64375443698 L -11862.51511458799 -228848.90831809488 L -11774.471008950872 -229547.78313664635 "  ID_2="7" _id="153" NAME_1="Epirus and Western Macedonia" ID_0="89" CCN_3="0" CCA_3="0" NAME_0="Greece" NAME_2="West Macedonia" ISO="GRC" NL_title="Δεσκάτης" id="Deskati" title="Deskati" ENGTYPE_3="Municipality" ID_1="5"/>
    <path d="M -13225.291262846817 -231978.4347615657 L -13225.291262846817 -231978.4347615657 L -13150.549646854031 -232248.1665410949 L -13044.519217003897 -232461.40098790175 L -12607.384626726925 -232862.73373936687 L -11682.282358865798 -233010.45277818374 L -11412.557403662582 -233638.68221544687 L -10971.188387252096 -233535.40144096437 L -11027.194664976452 -232580.99933432508 L -10855.250998147138 -232300.3824090437 L -10857.438119192675 -232206.98635714644 L -12009.581527885483 -231705.68600717766 L -12301.966655013619 -231846.9211291891 L -12606.935218292692 -231348.002740763 L -13225.291262846817 -231978.4347615657 "  ID_2="7" _id="154" NAME_1="Epirus and Western Macedonia" ID_0="89" CCN_3="0" CCA_3="0" NAME_0="Greece" NAME_2="West Macedonia" ISO="GRC" NL_title="Εορδαίας" id="Eordaia" title="Eordaia" ENGTYPE_3="Municipality" ID_1="5"/>
    <path d="M -11990.77628163815 -234707.990814938 L -11990.77628163815 -234707.990814938 L -12430.617309372916 -234458.50724569202 L -12274.23316121211 -234139.37338950223 L -12908.897738491609 -233550.07164075118 L -13506.910561268904 -233193.5890945897 L -13698.038974800864 -233319.24797506264 L -14342.670432459714 -234003.2345281239 L -14404.519019826022 -234860.1338885622 L -13898.315346677859 -234903.69186030407 L -13423.500355927032 -235217.14603862158 L -12909.24727838439 -235144.66943838028 L -12593.53286010717 -234869.08816094586 L -12024.851427786027 -235341.53542731632 L -11520.62515174665 -235445.75242705375 L -11368.585285113724 -235038.69767811743 L -11990.77628163815 -234707.990814938 "  ID_2="7" _id="155" NAME_1="Epirus and Western Macedonia" ID_0="89" CCN_3="0" CCA_3="0" NAME_0="Greece" NAME_2="West Macedonia" ISO="GRC" NL_title="Φλώρινας" id="Florina" title="Florina" ENGTYPE_3="Municipality" ID_1="5"/>
    <path d="M -12878.807347124488 -228118.84991834784 L -12878.807347124488 -228118.84991834784 L -13452.36236424106 -228143.21629970314 L -13608.476867341818 -227778.06183758474 L -14164.245297327716 -227883.89400287313 L -14504.926850824751 -228099.04015266456 L -15085.692376591796 -227966.97912945662 L -15596.050581040794 -228813.00788792406 L -15890.542934381469 -229773.38972751357 L -15694.411106951511 -229911.24168102432 L -15349.844667214042 -230108.1879071794 L -15131.731773937152 -229891.35566220342 L -14484.01437836458 -229936.48586749655 L -14022.721588049846 -230317.5886611374 L -13173.559358672332 -230471.16908852372 L -12725.399281482425 -229884.30038016313 L -12153.042686856397 -230048.7946752081 L -11774.471008950872 -229547.78313664635 L -11862.51511458799 -228848.90831809488 L -12287.975072436919 -228607.64375443698 L -12663.29103590983 -228890.39148399016 L -12915.0496406091 -228609.52000734082 L -12878.807347124488 -228118.84991834784 "  ID_2="7" _id="156" NAME_1="Epirus and Western Macedonia" ID_0="89" CCN_3="0" CCA_3="0" NAME_0="Greece" NAME_2="West Macedonia" ISO="GRC" NL_title="Γρεβενών" id="Grevena" title="Grevena" ENGTYPE_3="Municipality" ID_1="5"/>
    <path d="M -13150.549646854031 -232248.1665410949 L -13150.549646854031 -232248.1665410949 L -14297.230246360232 -232185.0583562102 L -15174.365654037369 -231617.65560339528 L -15000.035129081074 -232074.75134650755 L -15582.168853859357 -232270.4915169152 L -15526.062707593213 -232671.8685409542 L -15455.096122445933 -233083.35652056805 L -14707.110711832494 -233315.72042530114 L -14342.670432459714 -234003.2345281239 L -13698.038974800864 -233319.24797506264 L -13044.519217003897 -232461.40098790175 L -13150.549646854031 -232248.1665410949 "  ID_2="7" _id="157" NAME_1="Epirus and Western Macedonia" ID_0="89" CCN_3="0" CCA_3="0" NAME_0="Greece" NAME_2="West Macedonia" ISO="GRC" NL_title="Καστοριάς" id="Kastoria" title="Kastoria" ENGTYPE_3="Municipality" ID_1="5"/>
    <path d="M -11513.105050618238 -229509.53122245517 L -11513.105050618238 -229509.53122245517 L -11774.471008950872 -229547.78313664635 L -12153.042686856397 -230048.7946752081 L -12513.727909091276 -230754.81555156858 L -12606.935218292692 -231348.002740763 L -12301.966655013619 -231846.9211291891 L -12009.581527885483 -231705.68600717766 L -10857.438119192675 -232206.98635714644 L -9926.393673149025 -231803.17902299453 L -9814.161406910649 -231120.4774448408 L -10739.573267247899 -231023.52093414887 L -11079.665596353738 -230707.11900078342 L -10830.084125845613 -230304.53758087908 L -11085.218287227139 -229661.30406975423 L -11513.105050618238 -229509.53122245517 "  ID_2="7" _id="158" NAME_1="Epirus and Western Macedonia" ID_0="89" CCN_3="0" CCA_3="0" NAME_0="Greece" NAME_2="West Macedonia" ISO="GRC" NL_title="Κοζάνης" id="Kozani" title="Kozani" ENGTYPE_3="Municipality" ID_1="5"/>
    <path d="M -15174.365654037369 -231617.65560339528 L -15174.365654037369 -231617.65560339528 L -15324.897505703027 -230988.70956025302 L -15349.844667214042 -230108.1879071794 L -15694.411106951511 -229911.24168102432 L -15764.488862085602 -230281.9148331561 L -16366.786045266546 -231141.28080816445 L -16886.98130099143 -231272.64652738775 L -16869.17474015288 -231719.74724116497 L -16535.583853058793 -232140.89038025407 L -16098.059775471818 -232027.2337068093 L -15526.062707593213 -232671.8685409542 L -15582.168853859357 -232270.4915169152 L -15000.035129081074 -232074.75134650755 L -15174.365654037369 -231617.65560339528 "  ID_2="7" _id="159" NAME_1="Epirus and Western Macedonia" ID_0="89" CCN_3="0" CCA_3="0" NAME_0="Greece" NAME_2="West Macedonia" ISO="GRC" NL_title="Νεστορίου" id="Nestorio" title="Nestorio" ENGTYPE_3="Municipality" ID_1="5"/>
    <path d="M -15324.897505703027 -230988.70956025302 L -15324.897505703027 -230988.70956025302 L -15174.365654037369 -231617.65560339528 L -14297.230246360232 -232185.0583562102 L -13150.549646854031 -232248.1665410949 L -13225.291262846817 -231978.4347615657 L -13751.448670462107 -231399.64520696015 L -14972.601240902195 -231266.43510109992 L -15324.897505703027 -230988.70956025302 "  ID_2="7" _id="160" NAME_1="Epirus and Western Macedonia" ID_0="89" CCN_3="0" CCA_3="0" NAME_0="Greece" NAME_2="West Macedonia" ISO="GRC" NL_title="Ορεστίδος" id="Orestida" title="Orestida" ENGTYPE_3="Municipality" ID_1="5"/>
    <path d="M -14404.519019826022 -234860.1338885622 L -14404.519019826022 -234860.1338885622 L -14342.670432459714 -234003.2345281239 L -14707.110711832494 -233315.72042530114 L -15455.096122445933 -233083.35652056805 L -15813.014986098206 -233846.71017562205 L -15840.568716526126 -234686.9995086903 L -14404.519019826022 -234860.1338885622 "  ID_2="7" _id="161" NAME_1="Epirus and Western Macedonia" ID_0="89" CCN_3="0" CCA_3="0" NAME_0="Greece" NAME_2="West Macedonia" ISO="GRC" NL_title="Πρεσπών" id="Prespes" title="Prespes" ENGTYPE_3="Municipality" ID_1="5"/>
    <path d="M -9814.161406910649 -231120.4774448408 L -9814.161406910649 -231120.4774448408 L -9516.483247115382 -230922.76108949733 L -9877.587917221947 -230155.16935392053 L -10082.638005352901 -229646.12978231726 L -11193.315995872872 -228569.72942525236 L -11488.577336978895 -228610.6405508629 L -11513.105050618238 -229509.53122245517 L -11085.218287227139 -229661.30406975423 L -10830.084125845613 -230304.53758087908 L -11079.665596353738 -230707.11900078342 L -10739.573267247899 -231023.52093414887 L -9814.161406910649 -231120.4774448408 "  ID_2="7" _id="162" NAME_1="Epirus and Western Macedonia" ID_0="89" CCN_3="0" CCA_3="0" NAME_0="Greece" NAME_2="West Macedonia" ISO="GRC" NL_title="Σερβίων - Βελβεντού" title="Servia-Velventos" ENGTYPE_3="Municipality" ID_1="5"/>
    <path d="M -12153.042686856397 -230048.7946752081 L -12153.042686856397 -230048.7946752081 L -12725.399281482425 -229884.30038016313 L -13173.559358672332 -230471.16908852372 L -14022.721588049846 -230317.5886611374 L -14484.01437836458 -229936.48586749655 L -15131.731773937152 -229891.35566220342 L -15349.844667214042 -230108.1879071794 L -15324.897505703027 -230988.70956025302 L -14972.601240902195 -231266.43510109992 L -13751.448670462107 -231399.64520696015 L -13225.291262846817 -231978.4347615657 L -12606.935218292692 -231348.002740763 L -12513.727909091276 -230754.81555156858 L -12153.042686856397 -230048.7946752081 "  ID_2="7" _id="163" NAME_1="Epirus and Western Macedonia" ID_0="89" CCN_3="0" CCA_3="0" NAME_0="Greece" NAME_2="West Macedonia" ISO="GRC" NL_title="Βοΐου" id="Voio" title="Voio" ENGTYPE_3="Municipality" ID_1="5"/>
  </g>
</svg>